<svg width="311" height="239" viewBox="0 0 311 239" fill="none" xmlns="http://www.w3.org/2000/svg">
<g filter="url(#filter0_d_225:1545)">
<path opacity="0.26" d="M157.748 230.786C204.14 230.786 241.748 193.178 241.748 146.786C241.748 100.394 204.14 62.7857 157.748 62.7857C111.356 62.7857 73.7483 100.394 73.7483 146.786C73.7483 193.178 111.356 230.786 157.748 230.786Z" fill="#D2DEFF"/>
<path d="M193.641 121.286L148.18 166.747L124.248 142.781" stroke="#006BC1" stroke-width="15" stroke-miterlimit="10" stroke-linecap="round" stroke-linejoin="round"/>
<path d="M66.5756 96.5569L65.3602 96.9518C65.2575 96.9856 65.1492 96.9987 65.0415 96.9904C64.9338 96.9821 64.8287 96.9526 64.7325 96.9036C64.6362 96.8545 64.5506 96.7869 64.4805 96.7046C64.4105 96.6223 64.3575 96.527 64.3245 96.4241L63.9292 95.2078C63.809 94.8052 63.5401 94.4635 63.1771 94.2521C62.8141 94.0406 62.3843 93.9752 61.9748 94.0691C61.7649 94.1259 61.5687 94.2247 61.398 94.3595C61.2273 94.4942 61.0857 94.6622 60.9817 94.8532C60.8777 95.0442 60.8135 95.2543 60.7929 95.4708C60.7723 95.6873 60.7958 95.9057 60.862 96.1129L61.2853 97.4158C61.3191 97.5184 61.3322 97.6267 61.324 97.7344C61.3157 97.8422 61.2862 97.9472 61.2371 98.0435C61.188 98.1398 61.1204 98.2254 61.0381 98.2954C60.9558 98.3654 60.8605 98.4185 60.7576 98.4515L59.5422 98.8464C59.1404 98.9663 58.7992 99.2343 58.5875 99.5963C58.3758 99.9582 58.3095 100.387 58.402 100.796C58.4589 101.006 58.5577 101.202 58.6924 101.373C58.8272 101.544 58.9951 101.685 59.1861 101.789C59.3771 101.893 59.5872 101.957 59.8037 101.978C60.0202 101.999 60.2387 101.975 60.4458 101.909L61.7487 101.486C61.8513 101.452 61.9597 101.439 62.0674 101.447C62.1751 101.455 62.2802 101.485 62.3764 101.534C62.4727 101.583 62.5583 101.65 62.6283 101.733C62.6984 101.815 62.7514 101.91 62.7844 102.013L63.1793 103.229C63.299 103.632 63.5678 103.974 63.9311 104.186C64.2943 104.399 64.7247 104.464 65.1347 104.37C65.3446 104.313 65.5408 104.215 65.7115 104.08C65.8822 103.945 66.0238 103.777 66.1278 103.586C66.2318 103.395 66.296 103.185 66.3166 102.968C66.3372 102.752 66.3137 102.534 66.2475 102.326L65.8248 101.025C65.791 100.923 65.7779 100.814 65.7862 100.707C65.7944 100.599 65.824 100.494 65.873 100.398C65.9221 100.301 65.9897 100.216 66.072 100.146C66.1543 100.076 66.2496 100.023 66.3525 99.9897L67.6554 99.5663C67.8619 99.4981 68.0524 99.3887 68.2155 99.2448C68.3785 99.1009 68.5108 98.9255 68.6042 98.7291C68.6975 98.5327 68.7502 98.3194 68.7589 98.1021C68.7676 97.8848 68.7322 97.668 68.6548 97.4647C68.4827 97.0823 68.1746 96.7775 67.7903 96.6097C67.406 96.4419 66.973 96.4231 66.5756 96.5569Z" fill="#FEEB72"/>
<path d="M9.16331 77.6487L8.56059 77.4871C8.45813 77.4597 8.37077 77.3926 8.31774 77.3007C8.26471 77.2089 8.25035 77.0997 8.27783 76.9972L8.43968 76.3935C8.49691 76.1968 8.47716 75.9857 8.38445 75.803C8.29173 75.6203 8.133 75.4797 7.94044 75.4097C7.83952 75.3772 7.73305 75.3654 7.62747 75.3752C7.52188 75.385 7.41937 75.416 7.32612 75.4665C7.23286 75.5169 7.1508 75.5858 7.08488 75.6688C7.01895 75.7519 6.97054 75.8474 6.94255 75.9497L6.76956 76.5949C6.75596 76.6456 6.7325 76.6932 6.70051 76.7349C6.66853 76.7765 6.62865 76.8115 6.58315 76.8377C6.53766 76.864 6.48744 76.881 6.43536 76.8879C6.38328 76.8947 6.33036 76.8913 6.27962 76.8777L5.67594 76.7158C5.47984 76.6587 5.26938 76.678 5.08698 76.77C4.90459 76.8619 4.76384 77.0196 4.69313 77.2112C4.66061 77.3121 4.64888 77.4186 4.65864 77.5242C4.6684 77.6297 4.69945 77.7322 4.74991 77.8255C4.80038 77.9188 4.86921 78.0008 4.95226 78.0667C5.03531 78.1327 5.13085 78.1811 5.23313 78.2091L5.87834 78.3821C5.92907 78.3957 5.97663 78.4191 6.0183 78.4511C6.05997 78.4831 6.09493 78.523 6.12119 78.5685C6.14745 78.614 6.16449 78.6642 6.17134 78.7163C6.17818 78.7683 6.17471 78.8213 6.1611 78.872L5.99951 79.4747C5.94145 79.6714 5.96047 79.8829 6.0527 80.066C6.14493 80.2492 6.30345 80.3904 6.49604 80.4609C6.59697 80.4935 6.70343 80.5052 6.80902 80.4954C6.9146 80.4857 7.01711 80.4546 7.11036 80.4042C7.20362 80.3537 7.28568 80.2849 7.35161 80.2018C7.41753 80.1188 7.46594 80.0232 7.49393 79.9209L7.6664 79.2777C7.69387 79.1752 7.76093 79.0878 7.85281 79.0348C7.94469 78.9818 8.05388 78.9674 8.15634 78.9949L8.80155 79.1679C8.90411 79.1948 9.01106 79.2007 9.11595 79.1852C9.22084 79.1696 9.32149 79.133 9.41184 79.0775C9.50219 79.022 9.58036 78.9488 9.64163 78.8622C9.7029 78.7757 9.746 78.6776 9.76834 78.574C9.80011 78.3722 9.7558 78.1658 9.64401 77.9949C9.53221 77.8239 9.3609 77.7005 9.16331 77.6487Z" fill="#F98585"/>
<path d="M78.4018 55.9243L77.6129 55.4688C77.5461 55.4306 77.4876 55.3795 77.4407 55.3186C77.3938 55.2577 77.3594 55.1881 77.3395 55.1138C77.3196 55.0395 77.3146 54.9621 77.3248 54.8858C77.3349 54.8096 77.3601 54.7361 77.3988 54.6697L77.8563 53.8773C78.0116 53.6217 78.0639 53.3166 78.0026 53.0239C77.9413 52.7312 77.771 52.4728 77.5261 52.301C77.3963 52.2179 77.2511 52.1617 77.099 52.1359C76.947 52.1101 76.7914 52.1153 76.6414 52.151C76.4914 52.1868 76.3502 52.2524 76.2261 52.344C76.1021 52.4355 75.9978 52.5512 75.9194 52.684L75.4314 53.5292C75.3932 53.5959 75.3421 53.6545 75.2812 53.7014C75.2203 53.7483 75.1507 53.7827 75.0764 53.8026C75.0021 53.8225 74.9247 53.8275 74.8484 53.8173C74.7722 53.8072 74.6987 53.782 74.6323 53.7433L73.8399 53.2858C73.5843 53.1305 73.2792 53.0782 72.9865 53.1395C72.6938 53.2008 72.4354 53.3711 72.2636 53.616C72.1803 53.746 72.1241 53.8915 72.0984 54.0438C72.0727 54.1961 72.078 54.352 72.114 54.5022C72.15 54.6523 72.216 54.7937 72.3079 54.9178C72.3999 55.0418 72.516 55.1461 72.6492 55.2242L73.4944 55.7122C73.5611 55.7504 73.6197 55.8015 73.6666 55.8624C73.7135 55.9233 73.7479 55.9929 73.7678 56.0672C73.7877 56.1415 73.7927 56.2189 73.7825 56.2952C73.7724 56.3714 73.7472 56.4448 73.7085 56.5113L73.251 57.3037C73.0958 57.5591 73.0434 57.864 73.1045 58.1566C73.1657 58.4492 73.3357 58.7076 73.5803 58.8795C73.7103 58.9628 73.8558 59.019 74.0081 59.0447C74.1604 59.0704 74.3163 59.0651 74.4665 59.0291C74.6167 58.9931 74.758 58.9271 74.8821 58.8352C75.0062 58.7432 75.1104 58.6271 75.1885 58.4939L75.675 57.6513C75.7132 57.5846 75.7643 57.526 75.8252 57.4791C75.8861 57.4322 75.9557 57.3978 76.03 57.3779C76.1043 57.358 76.1818 57.353 76.258 57.3632C76.3342 57.3733 76.4077 57.3985 76.4741 57.4372L77.3194 57.9252C77.4537 58.0015 77.6019 58.0499 77.7554 58.0675C77.9088 58.0851 78.0642 58.0715 78.2123 58.0276C78.3603 57.9837 78.498 57.9103 78.617 57.8119C78.736 57.7135 78.834 57.5921 78.9049 57.4549C79.0259 57.1828 79.0414 56.8755 78.9484 56.5926C78.8555 56.3098 78.6606 56.0715 78.4018 55.9243Z" fill="#2EE2B1"/>
<path d="M237.255 13.5635L235.885 12.9817C235.768 12.9329 235.663 12.8616 235.574 12.7718C235.486 12.682 235.416 12.5755 235.368 12.4585C235.321 12.3416 235.297 12.2164 235.299 12.0902C235.3 11.9641 235.327 11.8395 235.376 11.7235L235.96 10.3485C236.163 9.90149 236.188 9.39413 236.03 8.92942C235.872 8.46471 235.543 8.07748 235.11 7.84634C234.882 7.73581 234.634 7.67259 234.381 7.66048C234.127 7.64838 233.874 7.68764 233.636 7.7759C233.399 7.86416 233.181 7.9996 232.997 8.17407C232.813 8.34853 232.666 8.55843 232.566 8.79111L231.94 10.2647C231.891 10.381 231.82 10.4866 231.73 10.5752C231.64 10.6638 231.534 10.7337 231.417 10.781C231.3 10.8282 231.175 10.8519 231.049 10.8505C230.922 10.8491 230.798 10.8228 230.682 10.773L229.307 10.1892C228.86 9.98658 228.352 9.96164 227.888 10.1195C227.423 10.2773 227.036 10.606 226.805 11.039C226.694 11.2672 226.631 11.5154 226.619 11.7687C226.607 12.022 226.646 12.2751 226.734 12.5129C226.822 12.7506 226.958 12.968 227.132 13.152C227.307 13.336 227.517 13.4828 227.749 13.5836L229.223 14.2092C229.339 14.258 229.445 14.3294 229.533 14.4192C229.622 14.509 229.692 14.6155 229.739 14.7324C229.787 14.8494 229.81 14.9746 229.809 15.1007C229.807 15.2269 229.781 15.3515 229.731 15.4674L229.149 16.8379C228.946 17.285 228.921 17.7927 229.079 18.2578C229.236 18.723 229.565 19.1106 229.998 19.3419C230.227 19.4525 230.475 19.5157 230.729 19.5277C230.982 19.5398 231.235 19.5004 231.473 19.412C231.711 19.3235 231.929 19.1878 232.113 19.0131C232.297 18.8384 232.443 18.6282 232.544 18.3953L233.17 16.9217C233.218 16.8053 233.29 16.6998 233.379 16.6112C233.469 16.5226 233.576 16.4526 233.693 16.4054C233.81 16.3581 233.935 16.3345 234.061 16.3359C234.187 16.3373 234.312 16.3636 234.428 16.4134L235.901 17.039C236.136 17.1367 236.387 17.186 236.641 17.1839C236.895 17.1818 237.145 17.1283 237.378 17.0268C237.61 16.9252 237.82 16.7776 237.994 16.5929C238.168 16.4082 238.303 16.1902 238.39 15.952C238.53 15.484 238.492 14.9807 238.282 14.5395C238.072 14.0983 237.706 13.7505 237.255 13.5635Z" fill="#FEEB72"/>
<path d="M261.026 146.27L260.265 146.051C260.201 146.033 260.14 146.002 260.088 145.961C260.035 145.919 259.992 145.868 259.959 145.809C259.927 145.751 259.906 145.686 259.899 145.62C259.891 145.553 259.897 145.486 259.916 145.422L260.134 144.661C260.211 144.413 260.191 144.146 260.078 143.912C259.965 143.678 259.767 143.496 259.525 143.403C259.398 143.36 259.264 143.343 259.13 143.353C258.996 143.363 258.866 143.4 258.747 143.462C258.628 143.523 258.522 143.608 258.436 143.711C258.351 143.815 258.287 143.934 258.248 144.062L258.014 144.877C257.996 144.942 257.965 145.002 257.924 145.054C257.882 145.107 257.831 145.151 257.772 145.183C257.714 145.216 257.649 145.236 257.583 145.243C257.516 145.251 257.449 145.245 257.385 145.226L256.624 145.008C256.377 144.932 256.109 144.952 255.875 145.065C255.641 145.178 255.459 145.375 255.366 145.617C255.323 145.744 255.306 145.879 255.316 146.012C255.326 146.146 255.363 146.276 255.425 146.396C255.486 146.515 255.571 146.62 255.674 146.706C255.778 146.792 255.897 146.856 256.025 146.894L256.84 147.128C256.905 147.146 256.965 147.177 257.017 147.219C257.07 147.26 257.114 147.312 257.146 147.37C257.179 147.429 257.199 147.493 257.207 147.56C257.214 147.626 257.208 147.693 257.189 147.758L256.971 148.518C256.893 148.766 256.913 149.035 257.026 149.27C257.139 149.504 257.337 149.687 257.58 149.781C257.707 149.824 257.842 149.84 257.976 149.83C258.11 149.82 258.24 149.783 258.36 149.721C258.479 149.659 258.585 149.574 258.67 149.47C258.756 149.367 258.82 149.247 258.858 149.118L259.092 148.302C259.11 148.238 259.141 148.178 259.183 148.125C259.224 148.073 259.276 148.029 259.334 147.997C259.393 147.964 259.457 147.944 259.524 147.936C259.59 147.929 259.657 147.935 259.722 147.953L260.537 148.187C260.666 148.223 260.802 148.232 260.935 148.214C261.068 148.197 261.196 148.152 261.312 148.084C261.428 148.015 261.528 147.924 261.608 147.816C261.688 147.708 261.745 147.585 261.776 147.454C261.82 147.199 261.768 146.936 261.629 146.718C261.491 146.499 261.276 146.339 261.026 146.27Z" fill="#E8EEFF"/>
<path d="M296.859 80.9047L296.264 81.2345C296.214 81.2624 296.16 81.2802 296.103 81.2868C296.046 81.2934 295.989 81.2886 295.934 81.2729C295.879 81.2572 295.828 81.2307 295.783 81.1951C295.739 81.1594 295.702 81.1153 295.674 81.0652L295.346 80.4729C295.243 80.2766 295.069 80.127 294.859 80.0542C294.65 79.9814 294.421 79.991 294.218 80.081C294.116 80.1317 294.024 80.2025 293.95 80.2893C293.875 80.3761 293.819 80.4769 293.784 80.5859C293.75 80.6949 293.737 80.8098 293.748 80.9237C293.759 81.0375 293.793 81.148 293.847 81.2486L294.198 81.8812C294.226 81.931 294.244 81.9858 294.25 82.0426C294.257 82.0993 294.252 82.1567 294.236 82.2116C294.221 82.2665 294.194 82.3177 294.158 82.3623C294.123 82.4069 294.079 82.444 294.029 82.4714L293.436 82.7998C293.239 82.9029 293.088 83.0776 293.015 83.2881C292.942 83.4987 292.952 83.7292 293.044 83.9324C293.094 84.0354 293.165 84.1271 293.252 84.202C293.339 84.2769 293.441 84.3334 293.55 84.368C293.659 84.4027 293.775 84.4149 293.889 84.4038C294.003 84.3927 294.114 84.3586 294.215 84.3036L294.847 83.9529C294.897 83.9248 294.952 83.9068 295.008 83.8999C295.065 83.893 295.122 83.8974 295.177 83.9127C295.232 83.928 295.283 83.954 295.328 83.9892C295.372 84.0244 295.41 84.068 295.437 84.1177L295.767 84.7127C295.87 84.9103 296.045 85.061 296.256 85.1339C296.466 85.2069 296.697 85.1966 296.9 85.1052C297.003 85.0546 297.095 84.9836 297.17 84.8966C297.244 84.8096 297.301 84.7083 297.336 84.5989C297.37 84.4895 297.382 84.3741 297.371 84.2599C297.36 84.1456 297.326 84.0348 297.271 83.9341L296.918 83.2971C296.89 83.2473 296.872 83.1924 296.866 83.1357C296.859 83.079 296.864 83.0215 296.88 82.9667C296.895 82.9118 296.922 82.8606 296.957 82.816C296.993 82.7714 297.037 82.7343 297.087 82.7068L297.72 82.3562C297.82 82.2999 297.908 82.224 297.978 82.133C298.048 82.042 298.098 81.9377 298.127 81.8266C298.155 81.7154 298.161 81.5996 298.144 81.4861C298.126 81.3726 298.086 81.2639 298.026 81.1663C297.898 80.9861 297.708 80.8597 297.493 80.8113C297.277 80.763 297.052 80.7963 296.859 80.9047Z" fill="#E8EEFF"/>
<path d="M227.237 116.704L226.926 116.876C226.9 116.891 226.871 116.9 226.841 116.904C226.812 116.907 226.781 116.905 226.753 116.896C226.724 116.888 226.697 116.874 226.673 116.855C226.65 116.837 226.631 116.814 226.616 116.787L226.444 116.477C226.389 116.374 226.298 116.296 226.188 116.258C226.078 116.22 225.958 116.226 225.852 116.273C225.798 116.299 225.75 116.336 225.711 116.382C225.671 116.427 225.642 116.48 225.623 116.537C225.605 116.595 225.598 116.655 225.604 116.715C225.609 116.774 225.626 116.832 225.655 116.885L225.839 117.218C225.854 117.244 225.863 117.273 225.867 117.303C225.87 117.332 225.868 117.363 225.859 117.391C225.851 117.42 225.837 117.447 225.818 117.471C225.8 117.494 225.776 117.514 225.75 117.528L225.44 117.7C225.337 117.755 225.259 117.846 225.221 117.956C225.183 118.066 225.189 118.186 225.236 118.292C225.263 118.347 225.3 118.395 225.346 118.434C225.391 118.473 225.445 118.503 225.502 118.521C225.56 118.54 225.62 118.546 225.681 118.54C225.741 118.534 225.799 118.516 225.852 118.487L226.181 118.305C226.207 118.29 226.236 118.281 226.266 118.278C226.295 118.274 226.326 118.277 226.354 118.285C226.383 118.293 226.41 118.307 226.434 118.326C226.457 118.344 226.477 118.368 226.491 118.394L226.663 118.705C226.717 118.808 226.808 118.887 226.919 118.926C227.029 118.964 227.15 118.959 227.256 118.912C227.311 118.886 227.359 118.848 227.398 118.802C227.437 118.757 227.467 118.703 227.485 118.646C227.504 118.588 227.51 118.528 227.504 118.468C227.498 118.407 227.48 118.349 227.451 118.296L227.267 117.964C227.252 117.938 227.243 117.909 227.24 117.879C227.236 117.849 227.239 117.819 227.247 117.79C227.255 117.761 227.269 117.734 227.288 117.711C227.307 117.688 227.33 117.668 227.356 117.654L227.689 117.469C227.741 117.44 227.787 117.4 227.824 117.352C227.861 117.304 227.888 117.249 227.903 117.191C227.918 117.132 227.921 117.071 227.912 117.012C227.902 116.952 227.881 116.895 227.85 116.844C227.783 116.749 227.683 116.682 227.57 116.656C227.457 116.63 227.338 116.647 227.237 116.704Z" fill="#D1DCFC"/>
<path d="M99.1404 72.2998L98.6415 72.1847C98.5994 72.1751 98.5595 72.1572 98.5243 72.1322C98.489 72.1071 98.4591 72.0753 98.4362 72.0387C98.4133 72.002 98.3978 71.9612 98.3908 71.9185C98.3837 71.8758 98.3851 71.8322 98.395 71.7901L98.5104 71.2902C98.5523 71.1277 98.531 70.9552 98.4508 70.8077C98.3705 70.6603 98.2373 70.5487 98.0781 70.4956C97.9943 70.4719 97.9066 70.4653 97.8203 70.4763C97.7339 70.4873 97.6507 70.5157 97.5756 70.5597C97.5006 70.6038 97.4352 70.6626 97.3834 70.7325C97.3316 70.8025 97.2946 70.8822 97.2744 70.9669L97.1509 71.5019C97.1413 71.544 97.1235 71.5839 97.0984 71.6191C97.0734 71.6544 97.0416 71.6843 97.0049 71.7072C96.9683 71.7301 96.9274 71.7456 96.8848 71.7526C96.8421 71.7597 96.7985 71.7583 96.7564 71.7484L96.2536 71.6323C96.091 71.5904 95.9186 71.6117 95.7711 71.6919C95.6236 71.7722 95.5121 71.9054 95.459 72.0647C95.4352 72.1484 95.4286 72.2361 95.4396 72.3224C95.4507 72.4088 95.479 72.492 95.5231 72.5671C95.5671 72.6422 95.6259 72.7076 95.6959 72.7593C95.7659 72.8111 95.8456 72.8482 95.9303 72.8683L96.4652 72.9918C96.5074 73.0014 96.5472 73.0192 96.5825 73.0443C96.6177 73.0693 96.6476 73.1011 96.6706 73.1378C96.6935 73.1745 96.7089 73.2153 96.716 73.258C96.723 73.3006 96.7216 73.3443 96.7118 73.3864L96.5966 73.8852C96.5546 74.0478 96.5759 74.2203 96.6562 74.3677C96.7364 74.5152 96.8696 74.6268 97.0289 74.6799C97.1126 74.7036 97.2003 74.7102 97.2867 74.6992C97.373 74.6882 97.4562 74.6598 97.5313 74.6157C97.6064 74.5717 97.6718 74.5129 97.7236 74.4429C97.7753 74.373 97.8124 74.2932 97.8325 74.2086L97.9551 73.6775C97.9647 73.6354 97.9826 73.5955 98.0076 73.5603C98.0327 73.525 98.0645 73.4951 98.1011 73.4722C98.1378 73.4493 98.1786 73.4338 98.2213 73.4267C98.264 73.4197 98.3076 73.4211 98.3497 73.431L98.8846 73.5545C98.9696 73.5735 99.0575 73.5751 99.1431 73.5593C99.2287 73.5434 99.3102 73.5104 99.3827 73.4622C99.4551 73.4141 99.5171 73.3517 99.5649 73.2789C99.6126 73.2061 99.6452 73.1245 99.6605 73.0388C99.68 72.8732 99.6378 72.7062 99.5418 72.5698C99.4458 72.4335 99.3029 72.3373 99.1404 72.2998Z" fill="#E8EEFF"/>
<path d="M175.134 28.5128L174.704 29.0444C174.667 29.0895 174.623 29.1271 174.572 29.1548C174.521 29.1825 174.465 29.1999 174.408 29.2059C174.35 29.212 174.292 29.2066 174.237 29.19C174.181 29.1735 174.13 29.1461 174.085 29.1095L173.551 28.6771C173.379 28.5325 173.159 28.4584 172.935 28.4696C172.711 28.4809 172.5 28.5768 172.344 28.7379C172.267 28.8247 172.208 28.9261 172.171 29.0361C172.135 29.1461 172.12 29.2624 172.13 29.378C172.139 29.4936 172.171 29.6061 172.225 29.7089C172.279 29.8116 172.353 29.9025 172.443 29.976L173.013 30.4379C173.058 30.4741 173.096 30.5189 173.123 30.5697C173.151 30.6205 173.168 30.6763 173.174 30.7338C173.181 30.7913 173.175 30.8495 173.159 30.9049C173.142 30.9604 173.115 31.012 173.078 31.0568L172.642 31.5946C172.498 31.7661 172.424 31.9861 172.435 32.2102C172.446 32.4343 172.542 32.6457 172.703 32.8019C172.79 32.8787 172.892 32.9373 173.001 32.9741C173.111 33.0108 173.228 33.025 173.343 33.0158C173.459 33.0066 173.571 32.9741 173.674 32.9204C173.777 32.8666 173.868 32.7927 173.941 32.703L174.403 32.1326C174.44 32.0875 174.484 32.0499 174.535 32.0222C174.586 31.9945 174.642 31.9771 174.699 31.9711C174.757 31.965 174.815 31.9704 174.87 31.987C174.926 32.0035 174.977 32.0309 175.022 32.0675L175.554 32.4986C175.726 32.6432 175.946 32.7174 176.17 32.7061C176.394 32.6948 176.606 32.599 176.762 32.4379C176.839 32.351 176.897 32.2496 176.934 32.1396C176.971 32.0296 176.985 31.9134 176.976 31.7978C176.967 31.6822 176.934 31.5696 176.88 31.4669C176.827 31.3641 176.753 31.2732 176.663 31.1997L176.098 30.7422C176.053 30.706 176.015 30.6612 175.988 30.6104C175.96 30.5597 175.942 30.5039 175.936 30.4463C175.93 30.3888 175.936 30.3306 175.952 30.2752C175.969 30.2198 175.996 30.1682 176.033 30.1234L176.495 29.5529C176.567 29.4624 176.621 29.3581 176.652 29.2465C176.683 29.1348 176.691 29.0179 176.676 28.9029C176.661 28.7879 176.623 28.6772 176.565 28.5772C176.506 28.4773 176.427 28.3903 176.334 28.3213C176.146 28.1975 175.919 28.1486 175.697 28.184C175.475 28.2195 175.274 28.3368 175.134 28.5128Z" fill="#E8EEFF"/>
<path d="M137.14 2.29984L136.642 2.18467C136.599 2.17507 136.56 2.15723 136.524 2.13217C136.489 2.10711 136.459 2.07534 136.436 2.03866C136.413 2.00199 136.398 1.96115 136.391 1.91849C136.384 1.87583 136.385 1.8322 136.395 1.79009L136.51 1.29024C136.552 1.12766 136.531 0.955228 136.451 0.807744C136.371 0.66026 136.237 0.548712 136.078 0.495621C135.994 0.471855 135.907 0.465283 135.82 0.476303C135.734 0.487322 135.651 0.515704 135.576 0.559739C135.501 0.603775 135.435 0.662552 135.383 0.732531C135.332 0.802509 135.295 0.882242 135.274 0.966926L135.151 1.50185C135.141 1.54402 135.123 1.58387 135.098 1.61911C135.073 1.65435 135.042 1.68429 135.005 1.70721C134.968 1.73012 134.927 1.74556 134.885 1.75263C134.842 1.7597 134.798 1.75827 134.756 1.74841L134.254 1.63234C134.091 1.59039 133.919 1.61169 133.771 1.69193C133.624 1.77217 133.512 1.90538 133.459 2.06467C133.435 2.14841 133.429 2.23609 133.44 2.32243C133.451 2.40877 133.479 2.49199 133.523 2.56708C133.567 2.64216 133.626 2.70756 133.696 2.75932C133.766 2.81109 133.846 2.84815 133.93 2.86829L134.465 2.99178C134.507 3.00138 134.547 3.01922 134.582 3.04428C134.618 3.06934 134.648 3.10112 134.671 3.13779C134.693 3.17446 134.709 3.2153 134.716 3.25796C134.723 3.30062 134.722 3.34426 134.712 3.38636L134.597 3.88524C134.555 4.04781 134.576 4.22025 134.656 4.36773C134.736 4.51522 134.87 4.62677 135.029 4.67986C135.113 4.70362 135.2 4.7102 135.287 4.69918C135.373 4.68816 135.456 4.65977 135.531 4.61574C135.606 4.5717 135.672 4.51293 135.724 4.44295C135.775 4.37297 135.812 4.29324 135.833 4.20855L135.955 3.67752C135.965 3.63536 135.983 3.59551 136.008 3.56027C136.033 3.52502 136.064 3.49508 136.101 3.47217C136.138 3.44925 136.179 3.43382 136.221 3.42675C136.264 3.41967 136.308 3.42111 136.35 3.43096L136.885 3.55446C136.97 3.57349 137.057 3.57513 137.143 3.55928C137.229 3.54343 137.31 3.51042 137.383 3.46224C137.455 3.41405 137.517 3.3517 137.565 3.27892C137.613 3.20615 137.645 3.12446 137.661 3.03878C137.68 2.87318 137.638 2.7062 137.542 2.56984C137.446 2.43348 137.303 2.33734 137.14 2.29984Z" fill="#E8EEFF"/>
<path d="M99.1404 107.3L98.6415 107.185C98.5994 107.175 98.5595 107.157 98.5243 107.132C98.489 107.107 98.4591 107.075 98.4362 107.039C98.4133 107.002 98.3978 106.961 98.3908 106.918C98.3837 106.876 98.3851 106.832 98.395 106.79L98.5104 106.29C98.5523 106.128 98.531 105.955 98.4508 105.808C98.3705 105.66 98.2373 105.549 98.0781 105.496C97.9943 105.472 97.9066 105.465 97.8203 105.476C97.7339 105.487 97.6507 105.516 97.5756 105.56C97.5006 105.604 97.4352 105.663 97.3834 105.733C97.3316 105.803 97.2946 105.882 97.2744 105.967L97.1509 106.502C97.1413 106.544 97.1235 106.584 97.0984 106.619C97.0734 106.654 97.0416 106.684 97.0049 106.707C96.9683 106.73 96.9274 106.746 96.8848 106.753C96.8421 106.76 96.7985 106.758 96.7564 106.748L96.2536 106.632C96.091 106.59 95.9186 106.612 95.7711 106.692C95.6236 106.772 95.5121 106.905 95.459 107.065C95.4352 107.148 95.4286 107.236 95.4396 107.322C95.4507 107.409 95.479 107.492 95.5231 107.567C95.5671 107.642 95.6259 107.708 95.6959 107.759C95.7659 107.811 95.8456 107.848 95.9303 107.868L96.4652 107.992C96.5074 108.001 96.5472 108.019 96.5825 108.044C96.6177 108.069 96.6476 108.101 96.6706 108.138C96.6935 108.174 96.7089 108.215 96.716 108.258C96.723 108.301 96.7216 108.344 96.7118 108.386L96.5966 108.885C96.5546 109.048 96.5759 109.22 96.6562 109.368C96.7364 109.515 96.8696 109.627 97.0289 109.68C97.1126 109.704 97.2003 109.71 97.2867 109.699C97.373 109.688 97.4562 109.66 97.5313 109.616C97.6064 109.572 97.6718 109.513 97.7236 109.443C97.7753 109.373 97.8124 109.293 97.8325 109.209L97.9551 108.678C97.9647 108.635 97.9826 108.596 98.0076 108.56C98.0327 108.525 98.0645 108.495 98.1011 108.472C98.1378 108.449 98.1786 108.434 98.2213 108.427C98.264 108.42 98.3076 108.421 98.3497 108.431L98.8846 108.554C98.9696 108.573 99.0575 108.575 99.1431 108.559C99.2287 108.543 99.3102 108.51 99.3827 108.462C99.4551 108.414 99.5171 108.352 99.5649 108.279C99.6126 108.206 99.6452 108.124 99.6605 108.039C99.68 107.873 99.6378 107.706 99.5418 107.57C99.4458 107.433 99.3029 107.337 99.1404 107.3Z" fill="#D1DCFC"/>
<path d="M37.1404 67.2998L36.6415 67.1847C36.5994 67.1751 36.5595 67.1572 36.5243 67.1322C36.489 67.1071 36.4591 67.0753 36.4362 67.0387C36.4133 67.002 36.3978 66.9612 36.3908 66.9185C36.3837 66.8758 36.3851 66.8322 36.395 66.7901L36.5104 66.2902C36.5523 66.1277 36.531 65.9552 36.4508 65.8077C36.3705 65.6603 36.2373 65.5487 36.0781 65.4956C35.9943 65.4719 35.9066 65.4653 35.8203 65.4763C35.7339 65.4873 35.6507 65.5157 35.5756 65.5597C35.5006 65.6038 35.4352 65.6626 35.3834 65.7325C35.3316 65.8025 35.2946 65.8822 35.2744 65.9669L35.1509 66.5019C35.1413 66.544 35.1235 66.5839 35.0984 66.6191C35.0734 66.6544 35.0416 66.6843 35.0049 66.7072C34.9683 66.7301 34.9274 66.7456 34.8848 66.7526C34.8421 66.7597 34.7985 66.7583 34.7564 66.7484L34.2536 66.6323C34.091 66.5904 33.9186 66.6117 33.7711 66.6919C33.6236 66.7722 33.5121 66.9054 33.459 67.0647C33.4352 67.1484 33.4286 67.2361 33.4396 67.3224C33.4507 67.4088 33.479 67.492 33.5231 67.5671C33.5671 67.6422 33.6259 67.7076 33.6959 67.7593C33.7659 67.8111 33.8456 67.8482 33.9303 67.8683L34.4652 67.9918C34.5074 68.0014 34.5472 68.0192 34.5825 68.0443C34.6177 68.0693 34.6476 68.1011 34.6706 68.1378C34.6935 68.1745 34.7089 68.2153 34.716 68.258C34.723 68.3006 34.7216 68.3443 34.7118 68.3864L34.5966 68.8852C34.5546 69.0478 34.5759 69.2203 34.6562 69.3677C34.7364 69.5152 34.8696 69.6268 35.0289 69.6799C35.1126 69.7036 35.2003 69.7102 35.2867 69.6992C35.373 69.6882 35.4562 69.6598 35.5313 69.6157C35.6064 69.5717 35.6718 69.5129 35.7236 69.4429C35.7753 69.373 35.8124 69.2932 35.8325 69.2086L35.9551 68.6775C35.9647 68.6354 35.9826 68.5955 36.0076 68.5603C36.0327 68.525 36.0645 68.4951 36.1011 68.4722C36.1378 68.4493 36.1786 68.4338 36.2213 68.4267C36.264 68.4197 36.3076 68.4211 36.3497 68.431L36.8846 68.5545C36.9696 68.5735 37.0575 68.5751 37.1431 68.5593C37.2287 68.5434 37.3102 68.5104 37.3827 68.4622C37.4551 68.4141 37.5171 68.3517 37.5649 68.2789C37.6126 68.2061 37.6452 68.1245 37.6605 68.0388C37.68 67.8732 37.6378 67.7062 37.5418 67.5698C37.4458 67.4335 37.3029 67.3373 37.1404 67.2998Z" fill="#E8EEFF"/>
<path d="M72.1358 32.9252L71.5727 32.7952C71.5249 32.7844 71.4798 32.7643 71.4399 32.736C71.4 32.7077 71.3661 32.6718 71.3402 32.6303C71.3142 32.5888 71.2968 32.5426 71.2888 32.4943C71.2809 32.446 71.2826 32.3966 71.2939 32.349L71.4241 31.7849C71.4705 31.6009 71.4453 31.4063 71.3538 31.2402C71.2622 31.0741 71.111 30.9489 70.9308 30.8899C70.8364 30.8632 70.7376 30.8557 70.6403 30.868C70.543 30.8804 70.4492 30.9122 70.3645 30.9616C70.2797 31.0111 70.2059 31.0771 70.1473 31.1557C70.0887 31.2344 70.0466 31.3241 70.0234 31.4194L69.884 32.0235C69.8732 32.0712 69.8531 32.1164 69.8248 32.1563C69.7965 32.1962 69.7606 32.2301 69.7191 32.256C69.6776 32.2819 69.6313 32.2994 69.5831 32.3073C69.5348 32.3153 69.4854 32.3136 69.4378 32.3023L68.8736 32.172C68.6897 32.1257 68.4951 32.1508 68.329 32.2424C68.1629 32.334 68.0377 32.4851 67.9787 32.6654C67.9519 32.76 67.9445 32.859 67.957 32.9566C67.9694 33.0541 68.0015 33.1481 68.0512 33.233C68.1009 33.3178 68.1673 33.3917 68.2464 33.4502C68.3254 33.5087 68.4155 33.5506 68.5111 33.5734L69.1152 33.7129C69.163 33.7236 69.2081 33.7437 69.248 33.772C69.2879 33.8003 69.3218 33.8363 69.3477 33.8778C69.3737 33.9193 69.3911 33.9655 69.399 34.0138C69.407 34.062 69.4053 34.1114 69.394 34.159L69.2638 34.7232C69.2163 34.9075 69.2407 35.103 69.3322 35.27C69.4237 35.437 69.5753 35.5628 69.7562 35.622C69.8508 35.6488 69.9499 35.6562 70.0474 35.6438C70.1449 35.6313 70.239 35.5993 70.3238 35.5495C70.4086 35.4998 70.4825 35.4334 70.541 35.3544C70.5995 35.2753 70.6414 35.1853 70.6642 35.0896L70.8037 34.4855C70.8144 34.4378 70.8346 34.3926 70.8629 34.3527C70.8912 34.3128 70.9271 34.2789 70.9686 34.253C71.0101 34.2271 71.0563 34.2096 71.1046 34.2017C71.1529 34.1937 71.2022 34.1955 71.2498 34.2067L71.854 34.3462C71.9499 34.3676 72.0492 34.3694 72.1459 34.3515C72.2426 34.3336 72.3347 34.2963 72.4166 34.2418C72.4985 34.1874 72.5685 34.1169 72.6224 34.0347C72.6764 33.9525 72.7132 33.8602 72.7305 33.7634C72.7532 33.5748 72.7048 33.3845 72.5949 33.2296C72.485 33.0746 72.3213 32.9661 72.1358 32.9252Z" fill="#E8EEFF"/>
<path d="M51.7483 153.786C54.5097 153.786 56.7483 151.547 56.7483 148.786C56.7483 146.024 54.5097 143.786 51.7483 143.786C48.9869 143.786 46.7483 146.024 46.7483 148.786C46.7483 151.547 48.9869 153.786 51.7483 153.786Z" fill="white"/>
<path d="M51.7483 152.536C53.8194 152.536 55.4983 150.857 55.4983 148.786C55.4983 146.715 53.8194 145.036 51.7483 145.036C49.6772 145.036 47.9983 146.715 47.9983 148.786C47.9983 150.857 49.6772 152.536 51.7483 152.536Z" stroke="#E8EEFF" stroke-width="2.5"/>
<path d="M218.248 73.4107C218.87 73.4107 219.373 72.907 219.373 72.2857C219.373 71.6644 218.87 71.1607 218.248 71.1607C217.627 71.1607 217.123 71.6644 217.123 72.2857C217.123 72.907 217.627 73.4107 218.248 73.4107Z" stroke="#E8EEFF" stroke-width="0.75"/>
<path d="M210.248 92.4107C210.87 92.4107 211.373 91.907 211.373 91.2857C211.373 90.6644 210.87 90.1607 210.248 90.1607C209.627 90.1607 209.123 90.6644 209.123 91.2857C209.123 91.907 209.627 92.4107 210.248 92.4107Z" stroke="#D1DCFC" stroke-width="0.75"/>
<path d="M118.248 55.7857C121.286 55.7857 123.748 53.3233 123.748 50.2857C123.748 47.2481 121.286 44.7857 118.248 44.7857C115.211 44.7857 112.748 47.2481 112.748 50.2857C112.748 53.3233 115.211 55.7857 118.248 55.7857Z" fill="white"/>
<path d="M118.248 54.7857C120.734 54.7857 122.748 52.771 122.748 50.2857C122.748 47.8004 120.734 45.7857 118.248 45.7857C115.763 45.7857 113.748 47.8004 113.748 50.2857C113.748 52.771 115.763 54.7857 118.248 54.7857Z" stroke="#F98585" stroke-width="2"/>
<path d="M298.248 118.786C301.286 118.786 303.748 116.323 303.748 113.286C303.748 110.248 301.286 107.786 298.248 107.786C295.211 107.786 292.748 110.248 292.748 113.286C292.748 116.323 295.211 118.786 298.248 118.786Z" fill="white"/>
<path d="M298.248 117.786C300.734 117.786 302.748 115.771 302.748 113.286C302.748 110.8 300.734 108.786 298.248 108.786C295.763 108.786 293.748 110.8 293.748 113.286C293.748 115.771 295.763 117.786 298.248 117.786Z" stroke="#229FF2" stroke-width="2"/>
<path d="M255.248 182.036C256.767 182.036 257.998 180.804 257.998 179.286C257.998 177.767 256.767 176.536 255.248 176.536C253.73 176.536 252.498 177.767 252.498 179.286C252.498 180.804 253.73 182.036 255.248 182.036Z" stroke="#FEEB72" stroke-width="1.5"/>
<path d="M205.248 53.0357C206.767 53.0357 207.998 51.8045 207.998 50.2857C207.998 48.7669 206.767 47.5357 205.248 47.5357C203.73 47.5357 202.498 48.7669 202.498 50.2857C202.498 51.8045 203.73 53.0357 205.248 53.0357Z" stroke="#FEEB72" stroke-width="1.5"/>
<path d="M295.118 154.947L300.507 147.813L304.01 156.038L295.118 154.947Z" stroke="#F98585" stroke-width="2" stroke-miterlimit="10" stroke-linecap="round"/>
<path d="M251.505 97.7586L256.989 93.1673L258.24 100.209L251.505 97.7586Z" stroke="#2EE2B1" stroke-width="1.75049" stroke-miterlimit="10" stroke-linecap="round"/>
<path d="M239.556 93.6436L239.85 90.3366L242.571 92.2376L239.556 93.6436Z" stroke="#E8EDFC" stroke-width="0.75" stroke-miterlimit="10" stroke-linecap="round"/>
</g>
<defs>
<filter id="filter0_d_225:1545" x="0.655273" y="0" width="310.262" height="238.786" filterUnits="userSpaceOnUse" color-interpolation-filters="sRGB">
<feFlood flood-opacity="0" result="BackgroundImageFix"/>
<feColorMatrix in="SourceAlpha" type="matrix" values="0 0 0 0 0 0 0 0 0 0 0 0 0 0 0 0 0 0 127 0" result="hardAlpha"/>
<feOffset dy="4"/>
<feGaussianBlur stdDeviation="2"/>
<feComposite in2="hardAlpha" operator="out"/>
<feColorMatrix type="matrix" values="0 0 0 0 0 0 0 0 0 0 0 0 0 0 0 0 0 0 0.25 0"/>
<feBlend mode="normal" in2="BackgroundImageFix" result="effect1_dropShadow_225:1545"/>
<feBlend mode="normal" in="SourceGraphic" in2="effect1_dropShadow_225:1545" result="shape"/>
</filter>
</defs>
</svg>
