<svg width="331" height="287" viewBox="0 0 331 287" fill="none" xmlns="http://www.w3.org/2000/svg">
<g filter="url(#filter0_d)">
<path d="M275.494 163.132C275.501 178.131 272.552 192.985 266.816 206.843C261.079 220.702 252.667 233.294 242.061 243.9C231.456 254.506 218.863 262.917 205.005 268.654C191.146 274.39 176.293 277.339 161.294 277.332C160.958 277.332 160.607 277.332 160.27 277.318C138.298 277.118 116.849 270.583 98.4989 258.497C80.1485 246.41 65.6753 229.285 56.8158 209.177C47.9563 189.069 45.0867 166.832 48.5517 145.133C52.0166 123.435 61.6688 103.197 76.35 86.8481C78.157 84.8261 80.0307 82.884 81.9857 80.996L82.161 80.821C82.93 80.093 83.7111 79.3641 84.4931 78.6501C87.7146 75.7137 91.1046 72.9676 94.6459 70.426L94.9691 70.184C98.7104 67.5037 102.615 65.0583 106.659 62.862C106.983 62.674 107.32 62.4981 107.643 62.3361C124.162 53.5545 142.584 48.9618 161.292 48.9611C165.377 48.9563 169.46 49.1766 173.521 49.621C189.429 51.2885 204.802 56.3164 218.621 64.372C232.266 72.3042 244.123 82.9722 253.447 95.706C253.676 96.006 253.891 96.3002 254.107 96.6062C259.249 103.754 263.539 111.478 266.889 119.621C266.936 119.697 266.972 119.778 266.998 119.863C267.093 120.064 267.174 120.271 267.24 120.483C267.358 120.724 267.462 120.972 267.551 121.225C270.465 128.594 272.593 136.25 273.901 144.065C273.928 144.157 273.942 144.252 273.942 144.348C274.494 147.625 274.899 150.951 275.155 154.326V154.339C275.384 157.239 275.492 160.178 275.492 163.131L275.494 163.132Z" fill="white"/>
</g>
<path d="M267.79 163.146C267.79 184.208 261.545 204.796 249.843 222.308C238.142 239.82 221.511 253.469 202.052 261.528C182.594 269.588 161.182 271.697 140.526 267.588C119.869 263.479 100.895 253.337 86.0022 238.444C71.1095 223.551 60.9674 204.577 56.8586 183.92C52.7498 163.263 54.8587 141.851 62.9187 122.393C70.9786 102.935 84.6274 86.3038 102.139 74.6027C119.651 62.9015 140.24 56.6561 161.301 56.6561C175.286 56.6561 189.134 59.4104 202.053 64.7621C214.973 70.1137 226.712 77.9578 236.601 87.8463C246.489 97.7348 254.333 109.474 259.685 122.394C265.036 135.314 267.79 149.162 267.79 163.146Z" fill="url(#paint0_linear)"/>
<path d="M84.5493 149.326L82.0854 122.02C71.0859 115.137 59.7068 108.88 48.0024 103.278L45.2163 115.34L43.9541 101.36C29.4121 94.5771 19.3545 91.0061 19.3545 91.0061C19.3545 91.0061 24.8541 146.483 47.7241 191.873L80.9824 203.346L53.7881 202.935C56.7732 207.971 60.0729 212.814 63.6665 217.435C100.057 263.907 144.732 289.695 163.455 275.035C182.178 260.375 167.855 210.817 131.466 164.346C120.185 149.939 105.124 137.419 89.7114 126.996L84.5513 149.327L84.5493 149.326Z" fill="url(#paint1_linear)"/>
<path d="M15.1751 150.376C15.1751 151.877 14.73 153.343 13.8963 154.591C13.0626 155.839 11.8779 156.811 10.4915 157.385C9.10517 157.959 7.57946 158.11 6.10773 157.817C4.63599 157.525 3.28402 156.802 2.22296 155.741C1.1619 154.68 0.439535 153.328 0.146789 151.856C-0.145957 150.384 0.00418735 148.859 0.578429 147.473C1.15267 146.086 2.12519 144.901 3.37286 144.068C4.62054 143.234 6.08714 142.789 7.58771 142.789C9.59982 142.789 11.5297 143.589 12.9525 145.011C14.3752 146.434 15.1748 148.364 15.1751 150.376Z" fill="#E5F5FF"/>
<path d="M71.1413 32.1289C71.1413 33.6295 70.6962 35.0965 69.8625 36.3442C69.0288 37.5919 67.8436 38.5645 66.4572 39.1387C65.0708 39.7129 63.5452 39.8629 62.0734 39.5701C60.6016 39.2772 59.2501 38.5546 58.1891 37.4934C57.1281 36.4322 56.4056 35.0804 56.113 33.6086C55.8203 32.1368 55.9707 30.6112 56.5451 29.2249C57.1195 27.8385 58.0922 26.6536 59.34 25.8201C60.5878 24.9865 62.0547 24.5418 63.5553 24.542C65.5674 24.5423 67.4965 25.3418 68.9191 26.7646C70.3417 28.1875 71.1413 30.1169 71.1413 32.1289V32.1289Z" stroke="#E5F5FF" stroke-width="5" stroke-miterlimit="10"/>
<path d="M133.94 21.3569C133.94 22.476 133.608 23.5701 132.987 24.5007C132.365 25.4313 131.482 26.1566 130.448 26.585C129.414 27.0134 128.276 27.1257 127.179 26.9075C126.081 26.6893 125.073 26.1504 124.282 25.3591C123.49 24.5679 122.951 23.5597 122.733 22.4622C122.514 21.3646 122.626 20.227 123.055 19.1931C123.483 18.1592 124.208 17.2753 125.139 16.6536C126.069 16.0318 127.163 15.7 128.282 15.7C129.783 15.7 131.222 16.2961 132.283 17.3569C133.344 18.4178 133.94 19.8565 133.94 21.3569Z" fill="#E5F5FF" stroke="#E5F5FF"/>
<path d="M203.343 8.08801C203.342 9.58834 202.897 11.055 202.063 12.3024C201.23 13.5497 200.045 14.5218 198.659 15.0958C197.273 15.6698 195.748 15.82 194.276 15.5272C192.805 15.2344 191.453 14.5118 190.392 13.4508C189.332 12.3898 188.609 11.038 188.316 9.56653C188.024 8.09502 188.174 6.56982 188.748 5.18372C189.322 3.79761 190.294 2.61294 191.542 1.77942C192.789 0.945903 194.256 0.501099 195.757 0.501099C197.769 0.501364 199.698 1.3007 201.121 2.72351C202.543 4.14632 203.343 6.07599 203.343 8.08801Z" fill="#E5F5FF" stroke="#E5F5FF"/>
<path d="M328.318 130.146C328.318 131.647 327.872 133.114 327.038 134.361C326.205 135.609 325.02 136.581 323.634 137.156C322.248 137.73 320.722 137.88 319.25 137.587C317.779 137.294 316.427 136.572 315.366 135.51C314.305 134.449 313.582 133.097 313.289 131.626C312.997 130.154 313.147 128.628 313.721 127.242C314.295 125.855 315.268 124.671 316.516 123.837C317.764 123.004 319.231 122.559 320.732 122.559C322.744 122.559 324.673 123.359 326.096 124.782C327.519 126.204 328.318 128.134 328.318 130.146V130.146Z" stroke="#E5F5FF" stroke-width="5" stroke-miterlimit="10"/>
<path d="M40.5141 80.3839L35.1571 74.65L40.891 69.2931C41.0379 69.1558 41.1565 68.9908 41.2397 68.8077C41.3228 68.6247 41.3691 68.4271 41.3759 68.2262C41.3827 68.0253 41.3499 67.8248 41.2792 67.6366C41.2086 67.4484 41.1016 67.2759 40.9643 67.129C40.827 66.9821 40.662 66.8638 40.4789 66.7806C40.2959 66.6975 40.0983 66.6512 39.8974 66.6444C39.6964 66.6376 39.4958 66.6705 39.3075 66.7411C39.1193 66.8117 38.9471 66.9187 38.8002 67.056L33.0663 72.413L27.7099 66.6791C27.5738 66.5276 27.4091 66.4047 27.225 66.3178C27.041 66.2308 26.8415 66.1816 26.6381 66.1727C26.4347 66.1638 26.2314 66.1955 26.0404 66.266C25.8495 66.3365 25.6745 66.4444 25.5258 66.5834C25.377 66.7224 25.2576 66.8896 25.1742 67.0753C25.0909 67.261 25.0454 67.4617 25.0404 67.6652C25.0355 67.8687 25.0712 68.0711 25.1454 68.2606C25.2197 68.4502 25.3312 68.6229 25.4731 68.7689L30.829 74.5031L25.0951 79.86C24.7984 80.1371 24.6237 80.5208 24.6098 80.9266C24.5959 81.3325 24.7438 81.7273 25.0209 82.0241C25.2981 82.3208 25.682 82.4953 26.0878 82.5092C26.4936 82.523 26.8882 82.3752 27.185 82.098L32.9189 76.7411L38.2753 82.475C38.4114 82.6264 38.5761 82.7491 38.7602 82.8361C38.9442 82.923 39.1437 82.9724 39.3471 82.9813C39.5505 82.9902 39.7538 82.9586 39.9447 82.8881C40.1357 82.8175 40.3106 82.7097 40.4594 82.5707C40.6081 82.4317 40.7276 82.2645 40.811 82.0787C40.8943 81.893 40.9398 81.6924 40.9447 81.4889C40.9497 81.2854 40.9135 81.083 40.8393 80.8934C40.765 80.7039 40.654 80.5311 40.5121 80.3851L40.5141 80.3839Z" fill="#E5F5FF"/>
<path d="M300.702 78.6289L296.965 74.6289L300.965 70.8919C301.172 70.6984 301.294 70.431 301.303 70.1482C301.312 69.8654 301.209 69.5904 301.016 69.3836C300.823 69.1768 300.555 69.0551 300.273 69.0452C299.99 69.0353 299.714 69.138 299.507 69.3308L295.507 73.0679L291.773 69.0679C291.677 68.9652 291.562 68.8823 291.434 68.824C291.306 68.7657 291.168 68.7332 291.028 68.7283C290.887 68.7234 290.748 68.7462 290.616 68.7954C290.485 68.8447 290.365 68.9193 290.262 69.0152C290.159 69.111 290.077 69.2262 290.019 69.354C289.961 69.4819 289.928 69.62 289.923 69.7603C289.918 69.9006 289.942 70.0403 289.991 70.1717C290.041 70.3031 290.115 70.4235 290.211 70.5259L293.948 74.5259L289.948 78.262C289.75 78.4574 289.636 78.7224 289.63 79.0008C289.624 79.2791 289.727 79.5488 289.917 79.7522C290.107 79.9556 290.37 80.0766 290.648 80.0896C290.926 80.1027 291.198 80.0068 291.406 79.8221L295.406 76.085L299.143 80.085C299.239 80.1875 299.353 80.2701 299.481 80.3282C299.608 80.3862 299.747 80.4184 299.887 80.4231C300.027 80.4279 300.167 80.405 300.298 80.3558C300.429 80.3065 300.55 80.2318 300.653 80.136C300.755 80.0402 300.838 79.9251 300.896 79.7974C300.954 79.6697 300.986 79.5319 300.99 79.3916C300.995 79.2514 300.972 79.1116 300.923 78.9803C300.874 78.8489 300.799 78.7285 300.703 78.626L300.702 78.6289Z" fill="#E5F5FF" stroke="#E5F5FF"/>
<path d="M258.083 33.7381L271.882 21.3851C272.264 21.0406 272.495 20.5592 272.523 20.0457C272.551 19.5322 272.375 19.0284 272.034 18.6441L271.834 18.42C271.489 18.0377 271.008 17.8073 270.495 17.7789C269.981 17.7504 269.477 17.9263 269.092 18.2681L255.293 30.6212C254.91 30.9653 254.679 31.4467 254.651 31.9603C254.622 32.4738 254.798 32.9778 255.14 33.3621L255.34 33.586C255.685 33.9686 256.166 34.1994 256.68 34.2278C257.194 34.2563 257.698 34.0803 258.083 33.7381Z" fill="#E5F5FF" stroke="#E5F5FF"/>
<path d="M191.918 72.905H191.913H191.906H191.9H191.894H191.888H191.882H191.876H191.871H191.864H191.858H191.852H191.846H191.84H191.802H191.796H191.387H191.381H191.371H191.364H191.358H191.352H191.346H191.34H191.334H191.329H191.322V72.9111V72.917V72.9231V72.928V72.9341V72.9399V72.946V72.9521V72.958V72.9641V72.97V72.9761V72.9819V72.988V72.9932V72.999V73.0051V73.011V73.0171V73.022V73.0281V73.0339V73.04V73.0461V73.0571V73.063V73.074V73.0801V73.137V73.1431V73.165V73.1711V73.4021V73.408V73.4299V73.436V73.4941V73.5V73.51V73.5161V73.5261V73.531V73.5371H191.329H191.334H191.34H191.346H191.352H191.358H191.364H191.371H191.376H191.382H191.388L191.988 71.937L191.918 72.905ZM193.494 73.511H193.485H193.479L193.464 73.5051H193.458L193.444 73.5H193.437H193.431H193.425L193.411 73.4951H193.403L193.389 73.489H193.382L193.363 73.4819H193.37H193.363L193.348 73.4761H193.341H193.334L193.319 73.47H193.313L193.293 73.4631H193.3H193.293L193.278 73.457H193.272H193.266L193.239 73.447L193.262 73.457L193.249 73.4509H193.241L193.225 73.4451H193.218L193.2 73.437H193.207H193.2H193.193H193.186L193.171 73.4312L193.144 73.4211L193.167 73.4299L193.152 73.4241H193.146H193.14L193.113 73.4131L193.136 73.4231L193.123 73.417H193.116L193.1 73.4121H193.093L193.066 73.4021L193.083 73.407L193.067 73.4011H193.06L193.035 73.3911L193.049 73.397L193.036 73.3911H193.028L193.008 73.3831H193.015H193.008L192.982 73.373L192.998 73.3792L192.982 73.373H192.975L192.949 73.363L192.964 73.3691L192.928 73.355L192.944 73.3611H192.938H192.931L192.895 73.3469L192.912 73.353H192.905L192.878 73.343L192.901 73.3521L192.886 73.3459H192.88H192.875L192.847 73.3359L192.871 73.3459L192.856 73.3401L192.83 73.3301L192.845 73.3359H192.837L192.818 73.3281H192.826H192.818L192.792 73.3181L192.807 73.324L192.771 73.3101L192.787 73.3162H192.779L192.744 73.302L192.759 73.3081H192.753L192.726 73.2981L192.75 73.3081L192.735 73.302L192.708 73.292L192.723 73.2981H192.716L192.689 73.2881L192.706 73.2939L192.67 73.28H192.664L192.678 73.2861H192.672L192.652 73.2781H192.66H192.652L192.625 73.2681L192.641 73.2739H192.635L192.608 73.2642L192.631 73.2729L192.618 73.2671L192.59 73.2571L192.605 73.2629H192.598L192.58 73.2551L192.564 73.249L192.581 73.2551H192.575L192.547 73.2451L192.563 73.251H192.556L192.538 73.2441H192.543H192.538L192.51 73.2341H192.503L192.518 73.239H192.512L192.493 73.231H192.5H192.493L192.465 73.2209H192.458L192.474 73.2271H192.467L192.44 73.217L192.456 73.2231L192.42 73.209H192.414L192.428 73.2151H192.422L192.395 73.2051H192.388L192.412 73.2141L192.397 73.209L192.37 73.199L192.385 73.2051H192.378L192.351 73.1951H192.344L192.36 73.2009H192.353L192.334 73.1931L192.32 73.187L192.335 73.1931H192.33L192.302 73.1831H192.296L192.312 73.189H192.306L192.279 73.179H192.273L192.29 73.1851L192.253 73.1711H192.247L192.262 73.177H192.255L192.228 73.167H192.221H192.215L192.231 73.1721H192.225L192.199 73.1621H192.206H192.199L192.171 73.1521H192.165L192.18 73.158H192.173L192.146 73.1479H192.139H192.133L192.149 73.1531H192.143L192.117 73.1421L192.101 73.137L192.118 73.1421H192.111L192.084 73.1311H192.079L192.094 73.137H192.088L192.061 73.127H192.055H192.049L192.064 73.1331H192.057L192.03 73.123H192.024H192.03H192.024L191.997 73.113H191.991H191.984H191.977L191.993 73.1191H191.986L191.959 73.1091H191.953H191.946L191.962 73.115H191.957L191.929 73.105H191.923H191.917H191.912L191.926 73.1111H191.92L191.894 73.1011H191.888H191.881L191.896 73.106H191.89L191.863 73.0959H191.856L191.256 74.696L191.269 74.7021H191.276L191.261 74.697H191.268L191.295 74.707H191.301H191.307L191.292 74.7009H191.297L191.325 74.7109H191.331H191.337H191.343L191.328 74.7051H191.333L191.36 74.7151H191.367H191.374L191.357 74.709H191.364L191.391 74.719H191.397H191.404H191.411L191.395 74.7131H191.401L191.421 74.7209L191.435 74.7271H191.442L191.426 74.7209H191.434L191.46 74.731H191.467H191.473L191.458 74.7251H191.463L191.491 74.7351H191.497L191.481 74.73L191.508 74.74L191.523 74.7461L191.507 74.74H191.513L191.541 74.75H191.546H191.553L191.538 74.7441H191.544L191.571 74.7542H191.579L191.562 74.748H191.569L191.588 74.7561L191.603 74.761L191.588 74.7561L191.616 74.7671H191.622H191.628L191.612 74.762H191.62L191.646 74.772H191.653L191.63 74.762L191.644 74.7681L191.671 74.7781H191.677L191.662 74.772H191.667L191.694 74.782H191.701L191.684 74.7771H191.69L191.717 74.7871H191.711H191.717L191.745 74.7971H191.751L191.736 74.791H191.743L191.769 74.801L191.754 74.7949L191.79 74.8091H191.797L191.781 74.803H191.789L191.815 74.813H191.822L191.799 74.804L191.813 74.8101L191.84 74.8201L191.826 74.814H191.832L191.858 74.824H191.866L191.85 74.8181H191.856L191.876 74.8259H191.87H191.876L191.903 74.8359H191.911L191.894 74.8301H191.901L191.92 74.8372H191.914H191.92L191.947 74.8469L191.931 74.8411H191.937L191.964 74.8511H191.958H191.964L191.991 74.8611L191.975 74.856L192.011 74.8701L191.996 74.864H192.001L192.028 74.874L192.013 74.8691H192.019L192.04 74.877H192.033H192.04L192.066 74.887H192.072L192.049 74.8779L192.064 74.8831L192.091 74.8931L192.077 74.887H192.083L192.109 74.897L192.094 74.8911L192.13 74.905L192.114 74.8989L192.142 74.9089L192.119 74.8989L192.133 74.905H192.14H192.146L192.173 74.915L192.15 74.906L192.165 74.9111L192.191 74.9211L192.175 74.915H192.183L192.202 74.9221H192.195H192.202L192.228 74.9321L192.213 74.926L192.25 74.9399L192.234 74.9341H192.242L192.277 74.948L192.261 74.9421H192.267L192.294 74.9521L192.271 74.9421L192.286 74.948H192.292H192.298L192.326 74.958L192.302 74.948L192.316 74.9541L192.343 74.9641L192.329 74.958H192.334L192.348 74.9641L192.375 74.9741L192.36 74.968H192.368L192.386 74.9761H192.379H192.386L192.4 74.9819L192.428 74.9919L192.413 74.9861H192.419L192.433 74.9919L192.461 75.002L192.445 74.9961H192.453L192.466 75.002H192.473L192.509 75.0161L192.495 75.01H192.501L192.538 75.0239L192.521 75.0181L192.537 75.0239H192.543H192.55L192.569 75.032H192.563H192.569L192.583 75.0371H192.59L192.626 75.051L192.61 75.0461H192.617H192.624L192.638 75.052H192.645L192.665 75.0591H192.658H192.665L192.679 75.0649H192.686H192.692H192.699L192.712 75.071H192.718L192.738 75.0781H192.731H192.738L192.753 75.084H192.759L192.774 75.0901H192.78H192.787H192.793L192.808 75.0959H192.815L192.83 75.1021H192.836L193.494 73.511ZM193.494 73.511H193.5H193.505H193.511H193.517H193.523H193.529H193.536H193.542H193.547H193.553H193.559H193.565H193.571H193.578H193.583H193.589H193.601H194.011H194.017H194.027H194.034H194.04H194.045H194.051V73.5051V73.499V73.4932V73.4871V73.481V73.4751V73.47V73.4641V73.458V73.4521V73.446V73.4412V73.4351V73.4299V73.4241V73.418V73.4131V73.407V73.4021V73.396V73.3901V73.384V73.3779V73.3721V73.3611V73.355V73.3491V73.3381V73.332V73.292V73.2861V73.269V73.2629V72.9871V72.981V72.9651V72.959V72.917V72.9111V72.896V72.8901V72.884V72.8779V72.8721H194.045H194.04H194.034H194.027H194.021H194.015L193.384 74.4651L193.494 73.511Z" fill="url(#paint2_linear)"/>
<path d="M196.562 74.7682H196.556H196.55H196.544H196.538H196.532H196.526H196.52H196.514H196.508H196.502H196.496H196.49H196.484H196.478H196.472H196.466H196.46H196.449H196.443H196.437H196.017H196.006H196H195.994H195.988H195.982H195.976H195.97H195.964V74.774V74.7802V74.785V74.7911V74.797V74.8021V74.808V74.8141V74.819V74.8241V74.83V74.8361V74.8412V74.847V74.8522V74.858V74.8641V74.87V74.8761V74.882V74.8881V74.8942V74.9V74.9061V74.912V74.9181V74.9242V74.9352V74.941V75.0201V75.026V75.2682V75.3431V75.349V75.359V75.3651V75.371V75.3761V75.382H195.97H195.976H195.982H195.988L196.668 73.809L196.562 74.7682ZM201.262 76.941L200.994 76.809L200.628 76.631L200.263 76.455L199.897 76.2802L199.53 76.1061L199.161 75.933L198.793 75.7631L198.422 75.5941L198.053 75.4261L197.682 75.2601L197.31 75.0951L196.937 74.931L196.564 74.7692L195.884 76.3422L196.252 76.5011L196.618 76.662L196.983 76.8241L197.348 76.9882L197.712 77.1532L198.075 77.3202L198.437 77.4882L198.799 77.6581L199.159 77.828L199.52 78.0011L199.879 78.1742L200.238 78.348L200.506 78.4801L201.262 76.941ZM201.262 76.941H201.268H201.274H201.28H201.286H201.292H201.298H201.304H201.31H201.316H201.322H201.328H201.334H201.34H201.346H201.352H201.358H201.364H201.37H201.376H201.382H201.388H201.812H201.823H201.829H201.835H201.841H201.847H201.853H201.859V76.9352V76.9291V76.923V76.9171V76.911V76.9052V76.899V76.8932V76.8881V76.882V76.8761V76.87V76.8641V76.4291V76.423V76.4171V76.411V76.4052V76.4V76.3942V76.389V76.3781V76.3722V76.3661V76.36V76.298V76.2921V76.0011V75.995V75.932V75.9261V75.9061V75.9V75.89V75.8842H201.853H201.847L201.094 77.422L201.262 76.941ZM206.603 77.8102H206.597H206.591H206.585H206.579H206.573H206.567H206.561H206.555H206.549H206.543H206.537H206.531H206.525H206.519H206.513H206.503H206.497H206.074H206.063H206.057H206.051H206.045H206.039V77.816V77.8221V77.828V77.8341V77.84V77.8461V77.8522V77.858V77.8641V77.87V77.8761V77.882V77.8881V77.8932V77.899V77.9042V77.91V77.9161V77.922V77.9281V77.934V77.944V77.9501V77.9562V77.962V77.9681V77.974V78.3461V78.3522V78.368V78.3781V78.3842V78.3932V78.399V78.4052H206.045L206.875 76.9052L206.603 77.8102ZM211.065 80.444L210.965 80.3832L210.622 80.17L210.276 79.9572L209.93 79.7472L209.583 79.537L209.235 79.329L208.886 79.1222L208.536 78.9161L208.186 78.7162L207.834 78.516L207.482 78.316L207.128 78.1161L206.774 77.9161L206.598 77.816L205.768 79.316L205.937 79.41L206.286 79.61L206.632 79.8102L206.978 80.0101L207.324 80.2101L207.67 80.41L208.014 80.61L208.356 80.8102L208.698 81.0101L209.04 81.2162L209.38 81.423L209.72 81.632L210.059 81.8422L210.159 81.9032L211.065 80.444ZM211.065 80.444H211.071H211.077H211.083H211.089H211.095H211.101H211.107H211.113H211.119H211.125H211.132H211.138H211.144H211.15H211.58H211.586H211.592H211.598H211.604H211.61H211.616V80.4381V80.432V80.4261V80.42V80.4142V80.4081V80.402V80.3971V80.391V80.3861V80.38V80.3741V80.369V80.3632V80.3571V80.3512V80.3451V80.339V80.3002V80.2941V80.288V79.9672V79.9611V79.955V79.913V79.9071V79.901V79.8951V79.889V79.8832L210.711 81.337L211.065 80.444ZM216.294 81.8441H216.288H216.282H216.276H216.27H216.264H216.258H216.252H216.246H216.24H216.234H216.228H216.222H216.216H215.793H215.782H215.776H215.77H215.764H215.758H215.752V81.85V81.8561V81.8622V81.868V81.8732V81.8781V81.8842V81.89V81.8961V81.902V81.9081V81.9142V81.92V81.942V81.9481V81.9762V81.9811V82.3002V82.327V82.3331V82.3431V82.3531V82.359V82.3651V82.371V82.3771H215.758H215.764L216.743 80.972L216.294 81.8441ZM220.468 84.9081L220.188 84.692L219.867 84.4462L219.545 84.202L219.222 83.9581L218.898 83.7162L218.574 83.4762L218.248 83.236L217.921 82.9972L217.593 82.7611L217.264 82.525L216.934 82.2902L216.603 82.057L216.303 81.8451L215.324 83.245L215.624 83.454L215.95 83.683L216.274 83.913L216.598 84.1451L216.921 84.3781L217.242 84.6122L217.562 84.848L217.882 85.0851L218.201 85.3231L218.518 85.5631L218.836 85.8041L219.152 86.046L219.431 86.2621L220.468 84.9081ZM220.468 84.9081H220.474H220.48H220.486H220.492H220.498H220.504H220.51H220.516H220.522H220.528H220.97H220.976H220.982H220.988H220.994H221H221.006H221.012V84.902V84.8971V84.891V84.8851V84.879V84.8732V84.8671V84.861V84.8551V84.85V84.8441V84.8341V84.829V84.7911V84.785V84.7802V84.472V84.4662V84.4601V84.4081V84.402V84.392V84.3861V84.38V84.3741L219.969 85.733L220.468 84.9081ZM225.529 86.8212H225.523H225.517H225.511H225.505H225.499H225.488H225.482H225.476H225.47H225.045H225.039H225.028H225.022H225.016H225.01H225.004V86.826V86.8322V86.838V86.8441V86.85V86.8561V86.8622V86.868V86.8781V86.8842V86.932V87.2501V87.256V87.308V87.3141V87.3241V87.329V87.3351V87.3412V87.3461L226.116 86.046L225.529 86.8212ZM229.378 90.2902L229.241 90.161L228.946 89.8842L228.646 89.608L228.346 89.3322L228.046 89.058L227.746 88.786L227.446 88.514L227.146 88.244L226.846 87.974L226.546 87.7062L226.246 87.4391L225.94 87.173L225.633 86.9081L225.533 86.8212L224.421 88.121L224.521 88.203L224.821 88.463L225.121 88.724L225.421 88.9872L225.721 89.2511L226.021 89.516L226.321 89.7821L226.621 90.0502L226.916 90.319L227.209 90.589L227.501 90.86L227.792 91.132L228.083 91.4052L228.22 91.5341L229.378 90.2902ZM229.378 90.2902H229.384H229.39H229.396H229.402H229.408H229.414H229.42H229.426H229.432H229.851H229.857H229.868H229.874H229.88H229.886H229.892H229.898V90.2841V90.2792V90.2731V90.267V90.2611V90.255V90.245V90.2391V90.233V90.1801V90.1742V89.869V89.8632V89.8102V89.8041V89.4291V89.423V89.413V89.4081V89.402V89.3961L228.723 90.642L229.378 90.2902ZM234.224 92.702H234.218H234.212H234.206H234.2H234.19H233.764H233.758H233.752H233.746H233.74H233.734H233.728H233.722H233.716V92.7081V92.714V92.7201V92.7301V92.735V92.746V92.7782V92.7841V92.7902V93.1232V93.1281V93.1342V93.1661V93.172V93.1781V93.1881V93.194V93.2001V93.2062V93.212V93.2181L234.954 92.0341L234.224 92.702ZM237.706 96.538L237.439 96.2311L237.173 95.9252L236.903 95.62L236.633 95.3202L236.362 95.0201L236.09 94.7201L235.818 94.42L235.544 94.12L235.268 93.8202L234.993 93.5201L234.715 93.2201L234.436 92.9252L234.224 92.703L232.986 93.8861L233.194 94.1041L233.467 94.3951L233.74 94.6862L234.012 94.9781L234.283 95.2711L234.553 95.566L234.822 95.8661L235.09 96.1661L235.357 96.4662L235.622 96.766L235.887 97.066L236.15 97.3661L236.412 97.6661L237.706 96.538ZM237.706 96.538H237.712H237.718H237.724H237.73H237.736H237.742H238.174H238.18H238.186H238.192H238.198H238.204H238.21V96.5331V96.527V96.5211V96.515V96.5092V96.5031V96.4972V96.4911V96.4371V96.162V96.1561V96.1022V96.0961V96.09V96.0841V96.0741V96.068V96.0621V96.056V96.0502V96.0441V96.038V96.0321L236.91 97.151L237.706 96.538ZM242.286 99.4242H242.28H242.274H242.268H242.262H242.256H241.824H241.818H241.812H241.806H241.8H241.794H241.788H241.782H241.776H241.77H241.764H241.758H241.752V99.4301V99.4352V99.441V99.4462V99.451V99.472V99.4982V99.504V99.5741V99.58V99.7401V99.746V99.8221V99.828V99.8551V99.8771V99.8832V99.889V99.8951V99.901V99.9071V99.913V99.9191V99.9252V99.931V99.9371V99.943L243.101 98.8881L242.286 99.4242ZM245.365 103.592L245.265 103.451L245.03 103.117L244.793 102.784L244.554 102.452L244.315 102.121L244.076 101.791L243.833 101.462L243.59 101.134L243.346 100.808L243.101 100.482L242.853 100.158L242.606 99.8351L242.355 99.5131L242.287 99.4252L240.938 100.48L241.003 100.563L241.248 100.881L241.492 101.2L241.734 101.519L241.976 101.838L242.215 102.159L242.454 102.481L242.693 102.804L242.929 103.128L243.164 103.453L243.398 103.779L243.631 104.106L243.862 104.434L243.962 104.575L245.365 103.592ZM245.365 103.592H245.371H245.377H245.383H245.389H245.807H245.818H245.824H245.83H245.836H245.842H245.848H245.854H245.86H245.866H245.872H245.878H245.884H245.89H245.896H245.902V103.586V103.58V103.574V103.568V103.562V103.546V103.53V103.525V103.519V103.195V103.189V103.183V103.167V103.162V103.156V103.15V103.14V103.135V103.125V103.119V103.114V103.108V103.102V103.096V103.09V103.084V103.078V103.072V103.066V103.061L244.502 104.046L245.365 103.592ZM249.632 106.925H249.626H249.62H249.614H249.608H249.602H249.596H249.161H249.155H249.149H249.143H249.137H249.131H249.125H249.119H249.113H249.107H249.101H249.094H249.088H249.082H249.076H249.07V106.931V106.937V106.946V106.952V106.958V106.964V106.974V107.048V107.054V107.297V107.303V107.386V107.392V107.398V107.404V107.41V107.415V107.421V107.427V107.433V107.439V107.445V107.451V107.457V107.462V107.468V107.474V107.48V107.486V107.492L250.52 106.581L249.632 106.925ZM252.274 111.38L252.137 111.136L251.937 110.777L251.737 110.42L251.532 110.064L251.326 109.708L251.117 109.353L250.908 109L250.697 108.647L250.485 108.294L250.271 107.943L250.056 107.593L249.839 107.244L249.639 106.925L248.189 107.836L248.389 108.151L248.601 108.493L248.812 108.837L249.022 109.182L249.231 109.528L249.439 109.875L249.645 110.224L249.85 110.573L250.05 110.922L250.25 111.273L250.45 111.625L250.65 111.978L250.787 112.222L252.274 111.38ZM252.274 111.38H252.28H252.286H252.293H252.299H252.305H252.311H252.317H252.743H252.749H252.76H252.766H252.772H252.778H252.784H252.79H252.796H252.802H252.808H252.814H252.82H252.826H252.832H252.838H252.844H252.85H252.856H252.862V111.374V111.368V111.362V111.352V111.346V111.278V111.272V110.982V110.976V110.916V110.91V110.899V110.893V110.887V110.881V110.875V110.869V110.863V110.858V110.852V110.846V110.84V110.834V110.829V110.823V110.817V110.812V110.806V110.8V110.794V110.788V110.782L251.369 111.621L252.274 111.38ZM256.18 115.126V115.12H256.174H256.168H256.162H256.156H256.15H256.144H256.129H256.123H255.723H255.717H255.699H255.693H255.687H255.681H255.675H255.669H255.663H255.657H255.651H255.645H255.639H255.632H255.626H255.62H255.614H255.608H255.602H255.596H255.59H255.584V115.126V115.132V115.142V115.148V115.154V115.169V115.174V115.18V115.186V115.24V115.429V115.435V115.598V115.604V115.638V115.644V115.706V115.712V115.718V115.724V115.741V115.746V115.752V115.757V115.763V115.768V115.774V115.78V115.786V115.792V115.798V115.804V115.81V115.816V115.822V115.828V115.834V115.84V115.846V115.851V115.857V115.863V115.869V115.874V115.88L257.119 115.12L256.18 115.126ZM258.358 119.826L258.241 119.558L258.074 119.176L257.905 118.796L257.736 118.416L257.564 118.037L257.391 117.659L257.216 117.282L257.039 116.906L256.862 116.531L256.683 116.156L256.502 115.783L256.321 115.411L256.178 115.125L254.643 115.885L254.782 116.166L254.962 116.532L255.139 116.899L255.316 117.267L255.49 117.635L255.663 118.005L255.834 118.375L256.005 118.746L256.174 119.118L256.342 119.491L256.507 119.865L256.671 120.24L256.787 120.508L258.358 119.826ZM258.358 119.826V119.832V119.838V119.844V119.849H258.364H258.37H258.376H258.382H258.388H258.394H258.409H258.415H258.815H258.821H258.833H258.839H258.846H258.852H258.858H258.865H258.871H258.877H258.883H258.889H258.895H258.901H258.907H258.913H258.919H258.925H258.931H258.937H258.943H258.949H258.955H258.961H258.967V119.844V119.838V119.832V119.826V119.816V119.8V119.713V119.707V119.507V119.502V119.411V119.406V119.389V119.383V119.372V119.366V119.36V119.354V119.349V119.343V119.337V119.331V119.325V119.319V119.313V119.307V119.301V119.295V119.289V119.283V119.277V119.271V119.266V119.26V119.254V119.248V119.242L257.397 119.927L258.358 119.826ZM261.864 123.95V123.944V123.938V123.932V123.927V123.921V123.915V123.909V123.903V123.897H261.858H261.852H261.846H261.84H261.834H261.823H261.413H261.407H261.396H261.39H261.384H261.378H261.372H261.366H261.36H261.354H261.348H261.342H261.336H261.33H261.324H261.318H261.312H261.306H261.3H261.294H261.288H261.282H261.276H261.27H261.264V123.903V123.909V123.915V123.921V123.942V123.948V124.002V124.019V124.025V124.256V124.262V124.279V124.285V124.342V124.348V124.353V124.364V124.37V124.376V124.381V124.387V124.393V124.399V124.405V124.411V124.417V124.423V124.429V124.435V124.441V124.447V124.453V124.459V124.465V124.471L262.864 123.871L261.864 123.95ZM263.553 128.85L263.5 128.685L263.371 128.285L263.24 127.885L263.107 127.485L262.973 127.085L262.838 126.685L262.7 126.285L262.561 125.885L262.421 125.485L262.279 125.085L262.136 124.69L261.99 124.295L261.859 123.942L260.259 124.542L260.388 124.889L260.53 125.276L260.671 125.664L260.811 126.053L260.949 126.442L261.085 126.833L261.22 127.224L261.354 127.617L261.485 128.01L261.616 128.404L261.745 128.799L261.872 129.199L261.925 129.364L263.553 128.85ZM263.553 128.85V128.856V128.862V128.868V128.874V128.88V128.886V128.891V128.897V128.903V128.909V128.914V128.92V128.926V128.932H263.559H263.565H263.571H263.578H263.584H263.59H264.018H264.024H264.03H264.036H264.042H264.048H264.054H264.06H264.066H264.072H264.078H264.084H264.09H264.096H264.102H264.108H264.114H264.12H264.126V128.926V128.92V128.914V128.908V128.902V128.881V128.875V128.794V128.788V128.579V128.573V128.488V128.482V128.459V128.453V128.447V128.441V128.435V128.429V128.423V128.417V128.411V128.405V128.399L262.494 128.919L263.553 128.85ZM266.624 133.305V133.299V133.293V133.287V133.281V133.275V133.269V133.263V133.257V133.251V133.245V133.239V133.233V133.227V133.221V133.215V133.21V133.204V133.198V133.193V133.187H266.618H266.612H266.606H266.6H266.594H266.588H266.578H266.572H266.155H266.149H266.142H266.136H266.13H266.123H266.117H266.111H266.105H266.099H266.093H266.087H266.081H266.075H266.069H266.063H266.057H266.051H266.045V133.193V133.199V133.205V133.211V133.217V133.223V133.228V133.309V133.315V133.553V133.559V133.644V133.65V133.656V133.667V133.672L267.701 133.233L266.624 133.305ZM267.812 138.347L267.749 138.047L267.659 137.628L267.567 137.208L267.473 136.79L267.378 136.372L267.278 135.955L267.178 135.539L267.078 135.123L266.978 134.707L266.878 134.293L266.773 133.879L266.667 133.466L266.626 133.308L264.97 133.747L265.01 133.898L265.11 134.304L265.21 134.71L265.31 135.118L265.41 135.526L265.51 135.935L265.61 136.345L265.71 136.755L265.804 137.167L265.896 137.579L265.986 137.991L266.075 138.405L266.138 138.705L267.812 138.347ZM267.812 138.347V138.358V138.364V138.37V138.376V138.382V138.387V138.393V138.398V138.404V138.41V138.415V138.421V138.426V138.432V138.438V138.444V138.45V138.456V138.462V138.468V138.474V138.48V138.486V138.492V138.498H267.818H267.824H267.83H267.836H267.842H267.848H267.86H268.267H268.273H268.279H268.285H268.291H268.297H268.303H268.309H268.315H268.321H268.327H268.333H268.339H268.345H268.351H268.357H268.363H268.369H268.375H268.381H268.387V138.492V138.486V138.481V138.475V138.469V138.463V138.458V138.452V138.375V138.132V138.126V138.064L266.711 138.42L267.812 138.347ZM270.423 143.086V143.046V143.04V143.012V143.007V143.001V142.996V142.99V142.984V142.978V142.972V142.967V142.961V142.955V142.949V142.944V142.938V142.932V142.926V142.92V142.914V142.909H270.417H270.411H270.405H270.399H270.393H270.387H270.381H270.375H270.369H270.353H269.953H269.947H269.935H269.929H269.923H269.917H269.911H269.905H269.899H269.893H269.887H269.881H269.875H269.869H269.863H269.856V142.915V142.921V142.927V142.937V142.943V142.953V142.959V142.975V143.002V143.008V143.319L271.546 143.046L270.423 143.086ZM270.7 144.943L270.638 144.51L270.575 144.078L270.511 143.647L270.445 143.217L270.424 143.084L268.734 143.357L268.754 143.482L268.819 143.905L268.882 144.329L268.945 144.753L269.005 145.178L270.7 144.943ZM272.8 147.984L272.794 147.924L272.782 147.824L272.771 147.724L272.76 147.624L272.748 147.524L272.737 147.424L272.724 147.324L272.712 147.224L272.701 147.124L272.689 147.024L272.677 146.924L272.664 146.824L272.652 146.724L272.639 146.624L272.627 146.524L272.614 146.424L272.601 146.324L272.588 146.224L272.575 146.124L272.563 146.024L272.551 145.924L272.537 145.824L272.524 145.724L272.51 145.624L272.497 145.524L272.483 145.424L272.469 145.324L272.454 145.224L272.439 145.124L272.425 145.024L272.411 144.924L272.396 144.824L272.382 144.724L270.682 144.963L270.696 145.063L270.71 145.163L270.724 145.263L270.739 145.363L270.752 145.463L270.767 145.563L270.78 145.663L270.794 145.763L270.807 145.863L270.821 145.963L270.834 146.063L270.847 146.163L270.859 146.263L270.872 146.363L270.884 146.463L270.897 146.563L270.91 146.663L270.922 146.763L270.934 146.863L270.947 146.963L270.959 147.063L270.972 147.163L270.984 147.263L270.995 147.363L271.007 147.463L271.018 147.563L271.03 147.663L271.042 147.763L271.053 147.863L271.064 147.963L271.074 148.063L271.086 148.163L271.093 148.223L272.8 147.984ZM272.8 147.984V147.995V148.001V148.058V148.064V148.081V148.087V148.098V148.104V148.109V148.115V148.121V148.127V148.133V148.138V148.144V148.15V148.156V148.162V148.168V148.174V148.18V148.186V148.192V148.197H272.806H272.812H272.818H272.824H272.83H272.836H272.843H272.849H272.855H272.865H272.871H273.258H273.275H273.281H273.287H273.293H273.299H273.305H273.311H273.317H273.323H273.329H273.335H273.341H273.347H273.353H273.359H273.365V148.191V148.185V148.179V148.173V148.167V148.162V148.152V148.146V148.136V148.13V148.124V148.118V148.102V148.096V147.83L271.665 148.017L272.8 147.984ZM274.929 152.962V152.889V152.883V152.866V152.86V152.82V152.814V152.808V152.802V152.796V152.79V152.784V152.778V152.772V152.766V152.76V152.755V152.749V152.743V152.738V152.732V152.726V152.72H274.923H274.917H274.911H274.905H274.899H274.893H274.887H274.881H274.481H274.474H274.463H274.457H274.451H274.445H274.439H274.433H274.426H274.42H274.414H274.408H274.402H274.396V152.726V152.732V152.738V152.743V152.748V152.754V152.759V152.764V152.77V152.786V152.791V152.848V152.854V152.86V152.866V152.877V152.883V152.888V152.894V153.047L276.106 152.947L274.929 152.962ZM275.095 158.14V157.54V157.44V157.34V157.24V157.14V157.04V156.94V156.84V156.74V156.64V156.54V156.44V156.34V156.24V156.14V156.04V155.94V155.84V155.74V155.64V155.54V155.44V155.34V155.24V155.14V155.04V154.94V154.84V154.74V154.64V154.54V154.44V154.34V154.24V154.14V154.04V153.94V153.84V153.74V153.64L275.089 153.54L275.083 153.44L275.077 153.34L275.071 153.24V153.14L275.065 153.04V153.014L273.355 153.114V153.14L273.361 153.24V153.34L273.367 153.44V153.54L273.373 153.64L273.379 153.74V153.84V153.94V154.04V154.14V154.24V154.34V154.44V154.54V154.64V154.74V154.84V154.94V155.04V155.14V155.24V155.34V155.44V155.54V155.64V155.74V155.84V155.94V156.04V156.14V156.24V156.34V156.44V156.54V156.64V156.74V156.84V156.94V157.04V157.14V157.24V157.34V157.54V157.64V158.229L275.095 158.14ZM275.095 158.14V158.259V158.265V158.338V158.344V158.36V158.366V158.377V158.383V158.389V158.395V158.401V158.407V158.413V158.418H275.101H275.107H275.113H275.119H275.125H275.131H275.137H275.143H275.149H275.155H275.166H275.172H275.565H275.571H275.582H275.588H275.594H275.6H275.606H275.612H275.618H275.624H275.63H275.636H275.642H275.648H275.654V158.412V158.406V158.4V158.394V158.388V158.382V158.376V158.37V158.364V158.358V158.352V158.341V158.335V158.278V158.272V158.255V158.249V158.238V158.232V158.132L273.942 158.144L275.095 158.14ZM276.713 163.307V163.12V163.114V163.097V163.091V163.063V163.057V163.052V163.046V163.041V163.031V163.025V163.019V163.013V163.007V163.001V162.995H276.707H276.701H276.695H276.689H276.683H276.677H276.671H276.665H276.659H276.653H276.641H276.241H276.235H276.229H276.223H276.217H276.21H276.204H276.198H276.192H276.186H276.18H276.174H276.168V163V163.006V163.012V163.018V163.024V163.03V163.036V163.042V163.048V163.054V163.06V163.07V163.076V163.087V163.093V163.252L277.879 163.324L276.713 163.307ZM276.359 168.476V168.455L276.37 168.355L276.378 168.255L276.388 168.155L276.396 168.055L276.405 167.955L276.414 167.855L276.423 167.755L276.432 167.655L276.44 167.555L276.449 167.455L276.458 167.355L276.467 167.255L276.475 167.155L276.483 167.055L276.492 166.955L276.5 166.855L276.508 166.755L276.516 166.655L276.524 166.555L276.531 166.455L276.539 166.355L276.546 166.255L276.552 166.155L276.56 166.055L276.567 165.955L276.574 165.855L276.581 165.755L276.587 165.655L276.594 165.555L276.601 165.455L276.608 165.355L276.615 165.255L276.621 165.155L276.627 165.055L276.633 164.955L276.639 164.855L276.645 164.755L276.651 164.655L276.657 164.555L276.663 164.455V164.355L276.669 164.255L276.675 164.155L276.681 164.055L276.687 163.955V163.855V163.755V163.655V163.555V163.455V163.361L274.976 163.288V163.379V163.479V163.579V163.679V163.779V163.879V163.979L274.97 164.079V164.179L274.964 164.279L274.958 164.379V164.479L274.952 164.579L274.946 164.679L274.94 164.779L274.934 164.879V164.979L274.928 165.079L274.921 165.179L274.914 165.279L274.908 165.379L274.901 165.479L274.894 165.579L274.887 165.679L274.881 165.779L274.874 165.879L274.867 165.979L274.859 166.079L274.853 166.179L274.846 166.279L274.839 166.379L274.831 166.479L274.823 166.579L274.815 166.679L274.808 166.779L274.8 166.879L274.791 166.979L274.784 167.079L274.775 167.179L274.767 167.279L274.758 167.379L274.749 167.479L274.741 167.579L274.732 167.679L274.723 167.779L274.715 167.879L274.706 167.979L274.697 168.079L274.687 168.179L274.679 168.279L274.669 168.379V168.4L276.359 168.476ZM276.359 168.476V168.676V168.682V168.688V168.694V168.7V168.705V168.767V168.772V168.788V168.794V168.799V168.805V168.811V168.817V168.823V168.829H276.365H276.371H276.377H276.383H276.389H276.395H276.401H276.407H276.413H276.419H276.425H276.431H276.443H276.449H276.455H276.87H276.876H276.882H276.888H276.894H276.9H276.906H276.912H276.918H276.924H276.93V168.823V168.817V168.811V168.805V168.799V168.793V168.787V168.781V168.775V168.769V168.763V168.757V168.751V168.745V168.74V168.734V168.728V168.722V168.665V168.659V168.602L275.23 168.441L276.359 168.476Z" fill="url(#paint3_linear)"/>
<path d="M257.916 182.554V182.288V182.282V182.26V182.254V182.233V182.217V182.211V182.205V182.2V182.194V182.188V182.183V182.178H257.91H257.904H257.897H257.892H257.886H257.88H257.874H257.868H257.862H257.855H257.85H257.844H257.838H257.832H257.814H257.803H257.797H257.384H257.378H257.372H257.366H257.36H257.354H257.348V182.183V182.189V182.195V182.2V182.205V182.211V182.216V182.221V182.227V182.233V182.239V182.244V182.249V182.255V182.261V182.266V182.272V182.277V182.289V182.294V182.368V182.373L259.048 182.591L257.916 182.554ZM257.687 184.222V184.206V184.199V184.179V184.172V184.156V184.145V184.125V184.146L257.693 184.112V184.105V184.099V184.057V184.047V183.979V183.968V183.962V183.913V183.903V183.896V183.889V183.869V183.862V183.856V183.85V183.823V183.837V183.802V183.791V183.752V183.722V183.739V183.726V183.719V183.703V183.693V183.68V183.65V183.671V183.661V183.655V183.648V183.635V183.605V183.626V183.615V183.593V183.559V183.576V183.543V183.513V183.53V183.514V183.503V183.497V183.467V183.484V183.474V183.468V183.438V183.455V183.435V183.405V183.422V183.402V183.372V183.389V183.383V183.373V183.339V183.356V183.349V183.319V183.34V183.317V183.287V183.308V183.297V183.267V183.285V183.265V183.238V183.252V183.245V183.215V183.232V183.212V183.182V183.199V183.165V183.182V183.17V183.14V183.158V183.152V183.125V183.139V183.133V183.103V183.12V183.086V183.103V183.096V183.066V183.087V183.077V183.047V183.065V183.059V183.029V183.046V183.012V183.029V183.022V182.992V183.013V183.003V182.973V182.991V182.984V182.954V182.971V182.937V182.954V182.948V182.918V182.932V182.926V182.896V182.913V182.879V182.896V182.89V182.86V182.853V182.87V182.836V182.853V182.847V182.817V182.838V182.828V182.798V182.792V182.809V182.803V182.773V182.787V182.781V182.751V182.768V182.734V182.728V182.746V182.74V182.712V182.703V182.72V182.714V182.684V182.702V182.695V182.668V182.659V182.676V182.669V182.639V182.609V182.603V182.621V182.614V182.587V182.578V182.595V182.588V182.558V182.564L255.993 182.346V182.364V182.347V182.354V182.384V182.37V182.377V182.407V182.414V182.396V182.403V182.43V182.439V182.422V182.429V182.459V182.445V182.452V182.482V182.464V182.471V182.501V182.487V182.494V182.524V182.53V182.509V182.519V182.549V182.531V182.537V182.564V182.574V182.557V182.563V182.593V182.599V182.582V182.616V182.599V182.605V182.635V182.614V182.624V182.654V182.66V182.643V182.649V182.679V182.658V182.669V182.699V182.68V182.687V182.714V182.723V182.706V182.713V182.743V182.722V182.732V182.762V182.744V182.75V182.78V182.763V182.797V182.78V182.787V182.817V182.796V182.806V182.836V182.818V182.824V182.854V182.837V182.871V182.854V182.861V182.891V182.87V182.88V182.91V182.892V182.899V182.926V182.912V182.918V182.948V182.931V182.938V182.968V182.947V182.958V182.988V182.97V182.979V182.989V183.019V183.001V183.008V183.035V183.021V183.041V183.071V183.054V183.088V183.071V183.077V183.087V183.121V183.104V183.111V183.141V183.12V183.13V183.143V183.173V183.155V183.165V183.175V183.205V183.187V183.207V183.237V183.219V183.225V183.239V183.269V183.251V183.26V183.27V183.283V183.313V183.295V183.304V183.315V183.328V183.358V183.337V183.347V183.369V183.403V183.386V183.415V183.449V183.432V183.472V183.478V183.491V183.521V183.503V183.513V183.523V183.546V183.556V183.576V183.582V183.589V183.616V183.602V183.624V183.634V183.713V183.719V183.755V183.765V183.785V183.791V183.811V183.817V183.863V183.841L255.987 183.875V183.921V183.927V183.947V183.953V183.964L257.687 184.222ZM257.687 184.222V184.505V184.51V184.527V184.533V184.565V184.571V184.577V184.587V184.593V184.599V184.604V184.61V184.616H257.693H257.699H257.705H257.711H257.717H257.723H257.729H257.735H257.741H257.747H257.753H257.759H257.765H257.771H257.777H257.788H257.794H258.201H258.207H258.228H258.233H258.24H258.246H258.252H258.258H258.264V184.61V184.605V184.6V184.594V184.588V184.583V184.577V184.572V184.567V184.561V184.555V184.549V184.544V184.539V184.533V184.527V184.522V184.516V184.511V184.505V184.488V184.482V184.437L256.57 184.189L257.687 184.222Z" fill="url(#paint4_linear)"/>
<path d="M276.848 165.554L266.21 167.715L275.703 168.842C272.735 177.321 269.338 185.643 265.526 193.777C265.084 194.719 264.639 195.661 264.197 196.584L259.709 197.49L249.901 199.485L243.437 200.797L254.237 202.071L257.931 202.496L261.015 202.865C258.466 207.686 255.697 212.507 252.667 217.179C248.978 222.922 244.84 228.363 240.292 233.452C238.87 235.059 237.391 236.61 235.876 238.088C227.766 246.063 218.958 253.294 209.557 259.697C209.557 259.716 209.538 259.716 209.52 259.734C208.448 260.455 207.359 261.175 206.288 261.858C203.573 263.595 200.894 265.182 198.254 266.642C187.341 271.722 175.701 275.062 163.754 276.542C162.196 276.39 160.663 276.042 159.192 275.507C157.138 274.82 155.27 273.667 153.735 272.138C152.2 270.61 151.04 268.747 150.344 266.696C148.885 262.67 148.812 257.628 149.975 251.902C150.289 250.277 150.714 248.614 151.231 246.879C151.268 246.787 151.288 246.694 151.324 246.579C152.707 242.201 154.449 237.945 156.534 233.854C157.347 232.191 158.234 230.529 159.193 228.83C161.337 225.03 163.793 221.13 166.563 217.175C168.631 214.201 170.885 211.19 173.304 208.199C175.632 205.28 178.112 202.375 180.746 199.481C181.227 198.927 181.746 198.391 182.262 197.838C184.533 195.381 186.915 192.924 189.391 190.505C189.704 190.192 190.018 189.896 190.351 189.605C193.297 186.785 196.411 184.146 199.678 181.705L200.417 189.605L201.358 199.487L201.653 202.609L202.353 199.487L204.587 189.605L206.564 180.887L207.322 177.544L207.655 176.103C209.982 174.589 212.346 173.148 214.728 171.781C220.306 168.549 226.014 165.649 231.667 163.081C241.503 158.612 251.598 154.738 261.9 151.481H261.92C262.991 151.148 264.044 150.835 265.042 150.521C275.642 147.289 282.699 145.792 282.699 145.792C282.699 145.792 280.815 153.826 276.845 165.555L276.848 165.554Z" fill="url(#paint5_linear)"/>
<path d="M287.981 125.404L271.815 125.704L280.715 127.416L286.486 132.594L271.641 204.494L67.5894 162.346L61.8184 157.155L83.3911 85.8981L92.8564 86.5182L78.2563 78.7382L86.6021 37.1022L290.654 79.2511L296.454 84.451L287.981 125.404Z" fill="url(#paint6_linear)"/>
<path d="M182.018 58.7721C181.711 58.9162 181.39 59.0287 181.06 59.108L178.269 59.9442C177.015 60.3212 175.569 60.726 173.819 61.13C172.069 61.534 170.084 62.0742 167.846 62.4652C165.608 62.8562 163.207 63.3952 160.551 63.7062C157.895 64.0172 155.104 64.4611 152.124 64.7841C145.659 65.4172 139.163 65.674 132.668 65.5531C126.172 65.3774 119.69 64.8432 113.253 63.953C110.3 63.481 107.495 63.0632 104.88 62.4972C102.265 61.9312 99.904 61.432 97.666 60.879C95.428 60.326 93.4989 59.7742 91.7739 59.2792C90.0489 58.7842 88.565 58.3221 87.374 57.9171L84.6099 56.9601C84.2847 56.8624 83.969 56.7363 83.666 56.5831C84.0062 56.6257 84.3412 56.7025 84.666 56.8121L87.458 57.6351C88.699 58.0001 90.1419 58.4441 91.8799 58.8761C93.6179 59.3081 95.6142 59.9 97.7852 60.359C99.9562 60.818 102.395 61.4242 104.998 61.8832C107.601 62.3422 110.405 62.8132 113.357 63.2582C119.762 64.1076 126.207 64.6205 132.665 64.795C139.131 64.9059 145.599 64.6723 152.04 64.0951C154.992 63.7721 157.811 63.5161 160.44 63.0841C163.069 62.6521 165.497 62.3021 167.721 61.8431C169.945 61.3841 171.929 60.9802 173.68 60.6022C175.431 60.2242 176.944 59.8742 178.157 59.5502L180.975 58.8622C181.317 58.795 181.666 58.7677 182.014 58.7811L182.018 58.7721Z" fill="url(#paint7_linear)"/>
<path d="M194.759 144.779C194.81 148.106 193.753 151.355 191.752 154.014C189.531 156.561 186.617 158.407 183.365 159.327C180.164 160.394 176.875 161.175 173.536 161.66C160.036 163.669 145.721 161.269 132.359 156.037C118.997 150.805 107.066 143.282 95.9155 135.665C93.1515 133.75 90.2264 131.931 88.1084 129.234C86.9918 127.902 86.3266 126.249 86.2085 124.515C86.1852 123.649 86.3339 122.787 86.6465 121.979C86.9591 121.172 87.4292 120.434 88.0293 119.809C89.1797 118.574 90.6349 117.663 92.2485 117.167C93.8128 116.699 95.4299 116.43 97.0615 116.367C100.262 116.245 103.398 116.26 106.513 116.367C131.457 117.122 153.421 124.713 169.075 135.176C171.052 136.495 172.504 138.465 173.175 140.745C173.458 141.861 173.458 143.029 173.175 144.145C172.865 145.236 172.195 146.191 171.275 146.855C169.467 147.973 167.332 148.444 165.221 148.19C163.285 148.006 161.362 147.7 159.464 147.273C153.237 145.773 147.251 143.409 141.68 140.248C137.055 137.754 133.631 135.502 131.298 134.033C130.152 133.305 129.261 132.792 128.656 132.321C128.356 132.092 128.118 131.93 127.957 131.821C128.105 131.902 128.333 132.037 128.63 132.212L131.313 133.87C133.672 135.299 137.126 137.484 141.75 139.965C147.32 143.058 153.291 145.368 159.493 146.828C161.363 147.248 163.26 147.541 165.169 147.704C167.169 147.951 169.192 147.513 170.912 146.464C171.747 145.848 172.35 144.97 172.625 143.97C172.894 142.94 172.894 141.858 172.625 140.828C171.975 138.672 170.591 136.812 168.713 135.569C153.154 125.255 131.244 117.745 106.448 117.043C103.36 116.949 100.232 116.949 97.0645 117.043C93.8825 117.137 90.6461 117.893 88.5161 120.252C87.9803 120.808 87.5611 121.465 87.2832 122.185C87.0053 122.905 86.8747 123.674 86.8984 124.445C87.0035 126.028 87.6127 127.534 88.6372 128.745C90.6372 131.307 93.5182 133.086 96.2832 134.961C107.473 142.538 119.311 150.076 132.633 155.294C145.955 160.512 160.112 162.858 173.446 160.894C176.737 160.407 179.98 159.64 183.14 158.602C186.252 157.724 189.044 155.964 191.176 153.533C193.091 151.007 194.103 147.911 194.048 144.742C194.062 141.64 193.375 138.575 192.04 135.776C189.327 130.396 185.166 125.88 180.026 122.737C175.194 119.754 169.953 117.492 164.467 116.022C159.181 114.485 153.95 113.393 148.948 112.288L134.575 109.039L91.1865 99.1832L79.4165 96.4601L76.3555 95.7311C75.8295 95.6091 75.5053 95.5152 75.3843 95.4752L76.3672 95.6632L79.4551 96.3102L91.2661 98.8851L134.696 108.512L149.083 111.72C154.045 112.853 159.315 113.92 164.642 115.441C170.194 116.917 175.499 119.198 180.39 122.21C185.645 125.414 189.9 130.024 192.673 135.518C194.05 138.412 194.764 141.576 194.763 144.781L194.759 144.779Z" fill="url(#paint8_linear)"/>
<path d="M207.232 62.197C207.232 62.397 199.371 60.862 189.757 58.759C180.508 56.723 172.931 54.903 172.472 54.593L172.486 54.5661C173.147 54.4851 180.697 55.9821 189.92 58.0041C196.297 59.4041 201.826 60.7041 204.833 61.4831L204.818 61.5232L205.735 61.7121C206.253 61.8109 206.757 61.9737 207.235 62.197H207.232Z" fill="url(#paint9_linear)"/>
<path d="M270.399 120.093H269.914L268.484 119.985L262.984 119.54L259.02 119.189L254.314 118.636C250.943 118.218 247.086 117.813 242.867 117.126L236.22 116.115C233.914 115.751 231.527 115.279 229.048 114.874C224.086 114.024 218.827 112.919 213.286 111.8C202.217 109.454 190.095 106.609 177.448 103.386C152.154 96.8741 129.367 90.618 112.748 86.545C108.608 85.493 104.834 84.6301 101.558 83.8351C98.2821 83.0401 95.3421 82.3922 93.0581 81.8932L87.6924 80.639L86.292 80.316C86.198 80.289 86.117 80.263 86.022 80.235L85.9683 80.181C86.0821 80.185 86.1949 80.2031 86.3042 80.235L87.7202 80.4911L93.1133 81.5831C95.4733 82.0551 98.332 82.6621 101.647 83.4171C104.962 84.1721 108.739 84.994 112.906 86.017C129.557 89.941 152.385 96.1301 177.651 102.628C190.311 105.851 202.393 108.723 213.451 111.096C218.992 112.229 224.237 113.361 229.199 114.238C231.68 114.683 234.053 115.155 236.345 115.479L242.979 116.531C247.186 117.273 251.029 117.704 254.4 118.162L259.092 118.782L263.043 119.182L268.531 119.789L269.947 119.964L270.405 120.086L270.399 120.093Z" fill="url(#paint10_linear)"/>
<path d="M272.261 164.803C272.49 164.898 272.707 165.02 272.907 165.167C272.907 165.235 271.936 164.844 270.143 164.438C267.617 163.893 265.013 163.811 262.458 164.196C258.665 164.834 254.974 165.973 251.481 167.581C247.164 169.47 242.984 171.655 238.969 174.121C234.642 176.683 230.516 179.177 226.538 181.078C223.049 182.804 219.376 184.129 215.589 185.029C213.029 185.608 210.406 185.866 207.782 185.799C207.073 185.776 206.368 185.713 205.667 185.61C205.414 185.599 205.164 185.554 204.924 185.476C205.876 185.415 206.83 185.415 207.782 185.476C210.378 185.434 212.961 185.099 215.482 184.476C219.203 183.517 222.81 182.161 226.242 180.431C230.153 178.516 234.242 176.009 238.565 173.447C242.613 170.945 246.846 168.754 251.226 166.894C254.784 165.295 258.545 164.193 262.404 163.618C265.023 163.278 267.683 163.447 270.237 164.118C270.924 164.307 271.599 164.537 272.258 164.806L272.261 164.803Z" fill="url(#paint11_linear)"/>
<path d="M276.682 144.932C276.263 144.889 275.848 144.813 275.441 144.703C274.672 144.487 273.513 144.258 272.03 144.003C267.811 143.398 263.524 143.434 259.316 144.111C253.079 145.153 247.028 147.102 241.356 149.896C234.453 153.417 227.788 157.385 221.402 161.774C214.975 166.183 208.243 170.131 201.257 173.586C195.49 176.325 189.339 178.166 183.015 179.046C178.745 179.627 174.409 179.504 170.179 178.682C169.033 178.46 167.902 178.163 166.794 177.792C166.401 177.688 166.016 177.548 165.648 177.374C166.051 177.43 166.448 177.52 166.835 177.643C167.603 177.872 168.748 178.115 170.219 178.399C174.426 179.087 178.714 179.128 182.933 178.521C189.187 177.577 195.264 175.7 200.96 172.953C207.895 169.483 214.581 165.536 220.969 161.141C227.39 156.733 234.102 152.764 241.058 149.262C246.798 146.467 252.924 144.549 259.233 143.573C263.497 142.941 267.836 142.991 272.084 143.721C273.266 143.91 274.432 144.18 275.576 144.531C275.956 144.63 276.326 144.764 276.681 144.931L276.682 144.932Z" fill="url(#paint12_linear)"/>
<path d="M280.646 113.566C280.488 113.474 280.335 113.374 280.187 113.266L278.947 112.336C277.814 111.528 276.197 110.246 273.971 108.722C267.846 104.428 261.466 100.512 254.865 96.993C245.055 91.8198 234.792 87.5548 224.205 84.2511C211.227 80.2621 197.83 77.7915 184.282 76.889C169.855 75.837 156.075 77.2401 143.536 77.5231C137.593 77.7386 131.642 77.6168 125.712 77.1581C113.045 76.121 100.619 73.0999 88.8901 68.2052C86.4101 67.1672 84.5758 66.3052 83.3218 65.7242L81.9058 64.9962L81.4341 64.7401C81.6141 64.7807 81.7867 64.8481 81.9468 64.9401L83.4038 65.5731C84.6438 66.1531 86.5459 66.9891 89.0039 67.9601C100.749 72.6882 113.149 75.5934 125.772 76.5751C131.681 76.9933 137.609 77.0881 143.529 76.859C156.029 76.535 169.835 75.106 184.329 76.171C197.942 77.0761 211.401 79.5787 224.429 83.6271C235.043 86.9769 245.321 91.3101 255.129 96.5702C261.726 100.116 268.081 104.093 274.154 108.476C276.311 110.013 277.889 111.348 279.008 112.21L280.249 113.194C280.394 113.304 280.527 113.429 280.646 113.566Z" fill="url(#paint13_linear)"/>
<path d="M282.183 120.213L266.03 120.513L280.714 127.413L265.856 199.304L180.023 181.574L179.241 185.404L160.258 277.318C149.158 277.235 138.129 275.532 127.521 272.262L146.842 178.717L147.642 174.888L61.8232 157.158L77.6118 80.7101L87.0762 81.33L79.1763 73.119L86.605 37.1061L172.437 54.8361L172.478 54.5941L172.492 54.567L173.516 49.619L176.01 37.525L208.396 44.225L205.578 57.8561L204.837 61.483L204.823 61.524L290.655 79.254L282.188 120.216L282.183 120.213Z" fill="#006BC1"/>
<path d="M84.6162 56.952C84.2911 56.8543 83.9754 56.7282 83.6724 56.5751C84.0125 56.6178 84.3475 56.6945 84.6724 56.8041L87.4634 57.6271C88.7044 57.9921 90.1473 58.436 91.8853 58.868C93.6233 59.3 95.6195 59.8922 97.7905 60.3512C99.9615 60.8102 102.4 61.4161 105.003 61.8741C107.606 62.3321 110.41 62.8041 113.362 63.2491C119.767 64.0986 126.212 64.6115 132.67 64.786C139.137 64.8965 145.604 64.6629 152.045 64.0861C154.997 63.7631 157.816 63.5061 160.445 63.0751C163.074 62.6441 165.501 62.2931 167.726 61.8341C169.951 61.3751 171.934 60.9711 173.685 60.5931C175.436 60.2151 176.948 59.8651 178.162 59.5411L180.981 58.8531C181.323 58.7861 181.671 58.7588 182.019 58.7721C181.712 58.9159 181.392 59.0284 181.062 59.108L178.271 59.9442C177.017 60.3212 175.57 60.7262 173.82 61.1312C172.07 61.5362 170.085 62.0752 167.847 62.4662C165.609 62.8572 163.209 63.3962 160.552 63.7072C157.91 64.0172 155.105 64.462 152.125 64.785C145.661 65.4182 139.164 65.675 132.669 65.5541C126.173 65.3784 119.692 64.8444 113.254 63.9542C110.301 63.4822 107.496 63.0642 104.881 62.4982C102.266 61.9322 99.9055 61.4332 97.6685 60.8802C95.4315 60.3272 93.5014 59.7752 91.7764 59.2802C90.0514 58.7852 88.5675 58.3231 87.3765 57.9181L84.6123 56.9611L84.6162 56.952Z" fill="url(#paint14_linear)"/>
<path d="M173.536 161.66C160.036 163.669 145.721 161.269 132.359 156.037C118.997 150.805 107.066 143.282 95.9155 135.665C93.1515 133.75 90.2264 131.931 88.1084 129.234C86.9916 127.902 86.3264 126.249 86.2085 124.515C86.1852 123.649 86.3339 122.787 86.6465 121.979C86.9591 121.171 87.4292 120.434 88.0293 119.809C89.1797 118.574 90.6349 117.663 92.2485 117.167C93.8128 116.699 95.4299 116.43 97.0615 116.367C100.262 116.245 103.398 116.26 106.513 116.367C131.456 117.122 153.42 124.713 169.075 135.176C171.052 136.495 172.503 138.466 173.175 140.745C173.458 141.861 173.458 143.029 173.175 144.145C172.864 145.236 172.195 146.191 171.275 146.855C169.467 147.973 167.332 148.444 165.221 148.19C163.285 148.006 161.362 147.7 159.464 147.273C153.237 145.773 147.251 143.408 141.68 140.248C137.055 137.754 133.631 135.502 131.298 134.033C130.152 133.305 129.261 132.792 128.656 132.321C128.356 132.092 128.117 131.93 127.956 131.821C128.103 131.902 128.333 132.037 128.63 132.212L131.313 133.87C133.672 135.299 137.125 137.484 141.75 139.965C147.32 143.058 153.291 145.368 159.493 146.828C161.363 147.248 163.26 147.541 165.169 147.704C167.169 147.95 169.192 147.513 170.912 146.464C171.747 145.849 172.35 144.97 172.625 143.97C172.894 142.94 172.894 141.859 172.625 140.829C171.975 138.673 170.591 136.812 168.713 135.57C153.154 125.256 131.244 117.746 106.448 117.045C103.36 116.951 100.232 116.951 97.0645 117.045C93.8825 117.139 90.6461 117.895 88.5161 120.254C87.9803 120.809 87.5611 121.467 87.2832 122.187C87.0053 122.907 86.8747 123.676 86.8984 124.447C87.0036 126.029 87.6129 127.536 88.6372 128.747C90.6372 131.309 93.5182 133.088 96.2822 134.962C107.473 142.539 119.311 150.076 132.632 155.295C145.953 160.514 160.11 162.859 173.445 160.895C176.736 160.408 179.979 159.641 183.139 158.603C186.252 157.725 189.043 155.964 191.175 153.533C193.09 151.007 194.102 147.911 194.048 144.742C194.061 141.64 193.374 138.576 192.039 135.776C189.327 130.396 185.166 125.88 180.026 122.737C175.194 119.754 169.952 117.492 164.466 116.022C159.181 114.485 153.949 113.393 148.947 112.288L134.574 109.039L91.1851 99.1831L79.4155 96.46L76.3555 95.7319C75.8295 95.6099 75.5063 95.5161 75.3843 95.4761L76.3672 95.6641L79.4551 96.311L91.2661 98.886L134.696 108.513L149.083 111.721C154.045 112.854 159.315 113.921 164.642 115.442C170.194 116.918 175.499 119.198 180.39 122.211C185.645 125.415 189.9 130.024 192.673 135.519C194.05 138.413 194.764 141.577 194.763 144.782C194.814 148.109 193.757 151.359 191.756 154.018C189.535 156.565 186.621 158.411 183.369 159.331C180.168 160.398 176.879 161.178 173.541 161.664L173.536 161.66Z" fill="url(#paint15_linear)"/>
<path d="M172.472 54.592L172.445 54.5649C172.445 54.5519 172.458 54.5519 172.486 54.5649C173.146 54.4839 180.697 55.9819 189.919 58.0029C196.297 59.4029 201.825 60.7029 204.832 61.4819C205.168 61.5629 205.465 61.6439 205.732 61.7109C206.251 61.8096 206.755 61.9727 207.232 62.196C207.232 62.396 199.373 60.861 189.759 58.758C180.509 56.722 172.933 54.902 172.474 54.592H172.472Z" fill="url(#paint16_linear)"/>
<path d="M86.2881 80.3181C86.1941 80.2911 86.1135 80.264 86.0195 80.237C85.9525 80.21 85.8843 80.1962 85.8193 80.1692C85.869 80.1669 85.9187 80.1712 85.9673 80.1821C86.0811 80.1861 86.1939 80.2042 86.3032 80.236L87.7192 80.4921L93.1123 81.5842C95.4713 82.0562 98.3315 82.663 101.647 83.417C104.963 84.171 108.738 84.9951 112.905 86.0171C129.556 89.9411 152.384 96.1301 177.65 102.628C190.311 105.851 202.392 108.723 213.45 111.096C218.991 112.229 224.236 113.361 229.198 114.238C231.679 114.683 234.052 115.155 236.344 115.479L242.979 116.531C247.187 117.273 251.028 117.704 254.399 118.162L259.091 118.782L263.042 119.182L268.53 119.789L269.946 119.964L270.405 120.086H269.92L268.49 119.978L262.99 119.533L259.026 119.182L254.32 118.629C250.949 118.211 247.094 117.806 242.874 117.119L236.227 116.108C233.921 115.744 231.533 115.272 229.053 114.867C224.091 114.017 218.833 112.911 213.292 111.793C202.223 109.447 190.1 106.602 177.453 103.379C152.159 96.8671 129.373 90.611 112.753 86.539C108.613 85.487 104.839 84.6241 101.563 83.8291C98.2875 83.0341 95.3475 82.3862 93.0635 81.8872L87.6973 80.633L86.2974 80.31L86.2881 80.3181Z" fill="url(#paint17_linear)"/>
<path d="M272.26 164.803C272.489 164.898 272.706 165.02 272.906 165.167C272.906 165.235 271.935 164.844 270.142 164.438C267.616 163.893 265.012 163.811 262.457 164.196C258.664 164.834 254.973 165.973 251.48 167.581C247.163 169.47 242.983 171.655 238.968 174.121C234.641 176.683 230.515 179.177 226.537 181.078C223.048 182.804 219.375 184.129 215.588 185.029C213.028 185.608 210.405 185.866 207.781 185.799C207.072 185.776 206.367 185.713 205.666 185.61C205.413 185.599 205.163 185.554 204.923 185.476C205.875 185.415 206.829 185.415 207.781 185.476C210.377 185.434 212.96 185.099 215.481 184.476C219.202 183.517 222.809 182.161 226.241 180.431C230.152 178.516 234.241 176.009 238.564 173.447C242.612 170.945 246.845 168.754 251.225 166.894C254.783 165.295 258.544 164.193 262.403 163.618C265.022 163.278 267.682 163.447 270.236 164.118C270.923 164.307 271.598 164.537 272.257 164.806L272.26 164.803Z" fill="url(#paint18_linear)"/>
<path d="M275.576 144.524C275.954 144.623 276.323 144.757 276.676 144.924C276.257 144.881 275.843 144.805 275.436 144.695C274.668 144.479 273.508 144.25 272.025 143.995C267.806 143.39 263.519 143.426 259.311 144.103C253.074 145.145 247.023 147.093 241.351 149.888C234.448 153.409 227.783 157.377 221.397 161.766C214.97 166.175 208.239 170.122 201.252 173.578C195.485 176.317 189.334 178.158 183.01 179.038C178.74 179.619 174.404 179.496 170.174 178.674C169.028 178.452 167.897 178.154 166.79 177.784C166.396 177.68 166.012 177.54 165.643 177.366C166.046 177.421 166.443 177.512 166.831 177.635C167.599 177.864 168.744 178.107 170.214 178.391C174.421 179.078 178.709 179.12 182.928 178.513C189.182 177.569 195.259 175.692 200.956 172.945C207.89 169.475 214.576 165.528 220.964 161.133C227.385 156.725 234.097 152.756 241.053 149.254C246.793 146.459 252.92 144.541 259.229 143.565C263.493 142.933 267.831 142.983 272.08 143.713C273.261 143.902 274.427 144.172 275.571 144.523L275.576 144.524Z" fill="url(#paint19_linear)"/>
<path d="M280.646 113.566C280.488 113.474 280.335 113.374 280.188 113.266L278.947 112.336C277.814 111.528 276.198 110.246 273.972 108.722C267.847 104.428 261.466 100.511 254.866 96.9929C245.056 91.8197 234.793 87.5547 224.206 84.251C211.227 80.2619 197.83 77.7914 184.283 76.8889C169.856 75.8369 156.076 77.2399 143.537 77.5229C137.593 77.7385 131.642 77.6167 125.712 77.158C113.045 76.1208 100.62 73.0998 88.8906 68.2051C86.4106 67.1671 84.5763 66.3051 83.3223 65.7241L81.9062 64.9961L81.4346 64.74C81.6146 64.7806 81.7872 64.848 81.9473 64.9399L83.4043 65.573C84.6443 66.153 86.5464 66.989 89.0044 67.96C100.75 72.688 113.149 75.5932 125.772 76.575C131.682 76.9932 137.61 77.0879 143.529 76.8589C156.029 76.5349 169.836 75.1059 184.33 76.1709C197.942 77.076 211.401 79.5786 224.43 83.627C235.043 86.9768 245.321 91.31 255.129 96.5701C261.726 100.116 268.082 104.093 274.154 108.476C276.311 110.013 277.889 111.348 279.008 112.21L280.25 113.194C280.394 113.304 280.527 113.428 280.646 113.566Z" fill="url(#paint20_linear)"/>
<path d="M134.652 125.728L133.602 130.218L141.934 132.186L141.313 134.815L132.98 132.86L131.861 137.62L141.609 139.831L140.976 142.531L128.032 139.552L132.077 122.307L144.67 125.247L144.037 127.93L134.652 125.728Z" fill="white"/>
<path d="M132.443 105.368L109.724 100.393L111.45 92.4651L136.583 69.8281L149.189 72.551L126.201 93.8811L134.901 95.769L136.492 88.4609L147.98 90.9551L146.402 98.2629L152.779 99.6631L150.702 109.344L144.325 107.944L142.532 116.183L130.667 113.608L132.443 105.368Z" fill="white"/>
<path d="M160.904 130.933C160.613 130.505 160.274 130.111 159.893 129.76C159.123 129.088 158.237 128.562 157.277 128.21C156.824 128.038 156.36 127.893 155.888 127.778C155.823 127.754 155.757 127.735 155.688 127.724L152.857 127.05L148.596 126.05L144.942 141.623L144.874 141.933L144.55 143.308L147.76 144.063L147.922 143.375L148.004 143.038L148.934 139.087L152.834 139.987C153.055 140.052 153.28 140.097 153.508 140.122L154.371 142.293L155.786 145.839L155.854 146.001L158.739 146.634L159.292 146.756L156.649 140.163C157.859 140.033 158.994 139.517 159.888 138.691C160.781 137.866 161.386 136.774 161.611 135.579C161.825 134.798 161.873 133.98 161.753 133.179C161.632 132.378 161.346 131.611 160.911 130.927L160.904 130.933ZM158.383 134.844C158.266 135.568 157.9 136.229 157.349 136.714C156.798 137.198 156.096 137.476 155.363 137.5C154.671 137.556 153.974 137.497 153.3 137.325L149.566 136.449L151.184 129.573L154.906 130.449C155.525 130.586 156.124 130.803 156.686 131.096C157.377 131.407 157.931 131.96 158.244 132.65C158.557 133.34 158.607 134.12 158.386 134.845L158.383 134.844Z" fill="white"/>
<path d="M173.659 131.957L166.552 130.286L165.879 133.144L165.757 133.697L162.547 147.397L162.507 147.559L165.208 148.193L165.72 148.315L165.733 148.247L165.855 147.762L166.96 143.272L170.861 144.229C171.077 144.283 171.306 144.323 171.535 144.364L171.939 145.388L172.181 146.008L173.868 150.242L177.239 151.011L174.595 144.405C175.809 144.282 176.95 143.768 177.847 142.942C178.744 142.116 179.35 141.021 179.572 139.821C180.462 135.991 178.211 133.021 173.666 131.96L173.659 131.957ZM176.395 139.063C176.28 139.793 175.911 140.46 175.354 140.945C174.797 141.431 174.086 141.705 173.347 141.719C173.16 141.751 172.97 141.756 172.782 141.733C172.291 141.725 171.803 141.662 171.327 141.545L167.592 140.682L168.779 135.626L168.914 135.073L169.213 133.792L172.948 134.682C175.748 135.342 176.908 136.866 176.396 139.063H176.395Z" fill="white"/>
<path d="M179.888 78.3759C175.639 77.357 171.167 77.8828 167.27 79.859C161.97 82.609 157.869 88.2589 156.05 96.6049C156.023 96.7399 155.996 96.875 155.97 96.996C155.912 97.2451 155.867 97.497 155.835 97.7509C154.661 104.021 155.362 109.414 157.506 113.62C157.628 113.849 157.736 114.078 157.871 114.294C158.372 115.203 158.958 116.062 159.622 116.859C162.313 120.085 166.031 122.289 170.153 123.102C173.417 123.859 176.823 123.733 180.023 122.738C180.279 122.657 180.535 122.562 180.791 122.468C186.439 120.352 191.012 115.214 193.317 107.3C193.385 107.057 193.464 106.815 193.516 106.558C193.664 106.005 193.816 105.439 193.933 104.858C197.033 90.658 190.872 80.7638 179.885 78.3778L179.888 78.3759ZM181.722 102.187C181.614 102.672 181.508 103.131 181.399 103.576C181.333 103.832 181.263 104.089 181.211 104.331C179.174 111.679 175.939 113.944 172.338 113.149C168.658 112.349 166.538 108.78 167.93 100.92C167.97 100.678 168.025 100.42 168.079 100.165C168.132 99.8649 168.199 99.571 168.266 99.265C170.288 90.245 173.875 87.4809 177.746 88.3309C181.617 89.1809 183.691 93.1718 181.723 102.191L181.722 102.187Z" fill="white"/>
<path d="M192.993 136.272C192.919 136.242 192.843 136.219 192.764 136.205C192.564 136.151 192.364 136.111 192.158 136.07C191.263 135.912 190.353 135.866 189.447 135.935C187.5 136.097 185.657 136.884 184.195 138.18C182.733 139.476 181.729 141.21 181.335 143.124C180.94 145.037 181.176 147.027 182.007 148.795C182.837 150.564 184.217 152.016 185.941 152.935C186.781 153.391 187.679 153.732 188.611 153.946C189.232 154.092 189.863 154.186 190.5 154.229C190.85 154.242 191.2 154.242 191.538 154.229C193.525 154.183 195.438 153.468 196.969 152.201C198.501 150.934 199.561 149.188 199.978 147.245C201.178 142.216 198.198 137.591 192.994 136.269L192.993 136.272ZM196.754 146.492C196.728 146.613 196.7 146.721 196.673 146.842C196.462 147.653 196.083 148.41 195.56 149.064C195.038 149.719 194.384 150.257 193.64 150.642C193.323 150.817 192.988 150.957 192.64 151.06C192.057 151.249 191.447 151.344 190.834 151.343C189.281 151.319 187.785 150.757 186.601 149.751C185.775 149.029 185.154 148.099 184.804 147.059C184.455 146.018 184.387 144.904 184.609 143.828C184.831 142.753 185.335 141.756 186.069 140.94C186.803 140.123 187.74 139.516 188.785 139.18C189.857 138.832 191.004 138.781 192.102 139.032C192.539 139.136 192.963 139.285 193.369 139.477C193.667 139.617 193.952 139.784 194.219 139.977C195.249 140.68 196.043 141.679 196.495 142.841C196.947 144.003 197.037 145.274 196.754 146.489V146.492Z" fill="white"/>
<path d="M212.504 141.043L205.411 139.371L201.366 156.629L204.566 157.385L205.753 152.41L209.637 153.31L210.324 153.445L212.657 159.324L216.109 160.079L213.452 153.486C214.663 153.356 215.8 152.84 216.696 152.015C217.592 151.19 218.2 150.098 218.429 148.902C219.318 145.073 217.053 142.102 212.509 141.041L212.504 141.043ZM215.188 148.162C214.688 150.362 212.935 151.304 210.104 150.643L206.384 149.767L208.001 142.89L211.723 143.753C214.541 144.414 215.7 145.964 215.188 148.162H215.188Z" fill="white"/>
<path d="M237.878 118.165L235.815 127.873L229.424 126.484L227.631 134.723L215.753 132.094L217.559 123.855L194.828 118.88L196.554 110.951L221.686 88.313L234.28 91.0911L211.304 112.391L220.004 114.291L221.595 106.969L233.083 109.463L231.492 116.771L237.878 118.165Z" fill="white"/>
<defs>
<filter id="filter0_d" x="41.123" y="45.9611" width="240.371" height="240.371" filterUnits="userSpaceOnUse" color-interpolation-filters="sRGB">
<feFlood flood-opacity="0" result="BackgroundImageFix"/>
<feColorMatrix in="SourceAlpha" type="matrix" values="0 0 0 0 0 0 0 0 0 0 0 0 0 0 0 0 0 0 127 0" result="hardAlpha"/>
<feOffset dy="3"/>
<feGaussianBlur stdDeviation="3"/>
<feColorMatrix type="matrix" values="0 0 0 0 0 0 0 0 0 0 0 0 0 0 0 0 0 0 0.161 0"/>
<feBlend mode="normal" in2="BackgroundImageFix" result="effect1_dropShadow"/>
<feBlend mode="normal" in="SourceGraphic" in2="effect1_dropShadow" result="shape"/>
</filter>
<linearGradient id="paint0_linear" x1="54.8125" y1="163.145" x2="267.79" y2="163.145" gradientUnits="userSpaceOnUse">
<stop stop-color="#AFDEE9"/>
<stop offset="1" stop-color="#FBFBFE"/>
</linearGradient>
<linearGradient id="paint1_linear" x1="19.3545" y1="185.076" x2="171.68" y2="185.076" gradientUnits="userSpaceOnUse">
<stop stop-color="#006BC1"/>
<stop offset="1" stop-color="#006BC1" stop-opacity="0.42"/>
</linearGradient>
<linearGradient id="paint2_linear" x1="191.282" y1="74.0291" x2="193.582" y2="74.0291" gradientUnits="userSpaceOnUse">
<stop stop-color="#3E5A8E"/>
<stop offset="1" stop-color="#496A9E"/>
</linearGradient>
<linearGradient id="paint3_linear" x1="195.884" y1="126.545" x2="258.693" y2="126.545" gradientUnits="userSpaceOnUse">
<stop stop-color="#3E5A8E"/>
<stop offset="1" stop-color="#496A9E"/>
</linearGradient>
<linearGradient id="paint4_linear" x1="255.978" y1="183.314" x2="257.713" y2="183.314" gradientUnits="userSpaceOnUse">
<stop stop-color="#3E5A8E"/>
<stop offset="1" stop-color="#496A9E"/>
</linearGradient>
<linearGradient id="paint5_linear" x1="149.169" y1="211.167" x2="282.699" y2="211.167" gradientUnits="userSpaceOnUse">
<stop stop-color="#99C4E7"/>
<stop offset="1" stop-color="#006BC1"/>
</linearGradient>
<linearGradient id="paint6_linear" x1="61.8184" y1="120.798" x2="296.454" y2="120.798" gradientUnits="userSpaceOnUse">
<stop stop-color="#344E80"/>
<stop offset="1" stop-color="#2F4977"/>
</linearGradient>
<linearGradient id="paint7_linear" x1="83.666" y1="61.0826" x2="182.018" y2="61.0826" gradientUnits="userSpaceOnUse">
<stop stop-color="#3E5A8E"/>
<stop offset="1" stop-color="#496A9E"/>
</linearGradient>
<linearGradient id="paint8_linear" x1="75.3843" y1="128.921" x2="194.763" y2="128.921" gradientUnits="userSpaceOnUse">
<stop stop-color="#3E5A8E"/>
<stop offset="1" stop-color="#496A9E"/>
</linearGradient>
<linearGradient id="paint9_linear" x1="172.472" y1="58.3887" x2="207.235" y2="58.3887" gradientUnits="userSpaceOnUse">
<stop stop-color="#3E5A8E"/>
<stop offset="1" stop-color="#496A9E"/>
</linearGradient>
<linearGradient id="paint10_linear" x1="85.9683" y1="100.137" x2="270.405" y2="100.137" gradientUnits="userSpaceOnUse">
<stop stop-color="#3E5A8E"/>
<stop offset="1" stop-color="#496A9E"/>
</linearGradient>
<linearGradient id="paint11_linear" x1="204.924" y1="174.628" x2="272.907" y2="174.628" gradientUnits="userSpaceOnUse">
<stop stop-color="#3E5A8E"/>
<stop offset="1" stop-color="#496A9E"/>
</linearGradient>
<linearGradient id="paint12_linear" x1="165.648" y1="161.27" x2="276.682" y2="161.27" gradientUnits="userSpaceOnUse">
<stop stop-color="#3E5A8E"/>
<stop offset="1" stop-color="#496A9E"/>
</linearGradient>
<linearGradient id="paint13_linear" x1="81.4341" y1="89.1531" x2="280.646" y2="89.1531" gradientUnits="userSpaceOnUse">
<stop stop-color="#3E5A8E"/>
<stop offset="1" stop-color="#496A9E"/>
</linearGradient>
<linearGradient id="paint14_linear" x1="83.6724" y1="61.0791" x2="182.019" y2="61.0791" gradientUnits="userSpaceOnUse">
<stop stop-color="#344E80"/>
<stop offset="1" stop-color="#2F4977"/>
</linearGradient>
<linearGradient id="paint15_linear" x1="75.3843" y1="128.921" x2="194.765" y2="128.921" gradientUnits="userSpaceOnUse">
<stop stop-color="#344E80"/>
<stop offset="1" stop-color="#2F4977"/>
</linearGradient>
<linearGradient id="paint16_linear" x1="172.445" y1="58.3844" x2="207.232" y2="58.3844" gradientUnits="userSpaceOnUse">
<stop stop-color="#344E80"/>
<stop offset="1" stop-color="#2F4977"/>
</linearGradient>
<linearGradient id="paint17_linear" x1="85.8193" y1="100.127" x2="270.405" y2="100.127" gradientUnits="userSpaceOnUse">
<stop stop-color="#344E80"/>
<stop offset="1" stop-color="#2F4977"/>
</linearGradient>
<linearGradient id="paint18_linear" x1="204.923" y1="174.628" x2="272.906" y2="174.628" gradientUnits="userSpaceOnUse">
<stop stop-color="#344E80"/>
<stop offset="1" stop-color="#2F4977"/>
</linearGradient>
<linearGradient id="paint19_linear" x1="165.643" y1="161.262" x2="276.676" y2="161.262" gradientUnits="userSpaceOnUse">
<stop stop-color="#344E80"/>
<stop offset="1" stop-color="#2F4977"/>
</linearGradient>
<linearGradient id="paint20_linear" x1="81.4346" y1="89.153" x2="280.646" y2="89.153" gradientUnits="userSpaceOnUse">
<stop stop-color="#344E80"/>
<stop offset="1" stop-color="#2F4977"/>
</linearGradient>
</defs>
</svg>
