<svg width="331" height="290" viewBox="0 0 331 290" fill="none" xmlns="http://www.w3.org/2000/svg">
<g filter="url(#filter0_d)">
<g filter="url(#filter1_d)">
<path d="M275.494 163.132C275.501 178.131 272.552 192.985 266.816 206.843C261.079 220.702 252.667 233.294 242.061 243.9C231.456 254.506 218.863 262.917 205.005 268.654C191.146 274.39 176.293 277.339 161.294 277.332C160.958 277.332 160.607 277.332 160.27 277.318C138.298 277.118 116.849 270.583 98.4989 258.497C80.1485 246.41 65.6753 229.285 56.8158 209.177C47.9563 189.069 45.0867 166.832 48.5517 145.133C52.0166 123.435 61.6688 103.197 76.35 86.8481C78.157 84.8261 80.0307 82.884 81.9857 80.996L82.161 80.821C82.93 80.093 83.7111 79.3641 84.4931 78.6501C87.7146 75.7137 91.1046 72.9676 94.6459 70.426L94.9691 70.184C98.7104 67.5037 102.615 65.0583 106.659 62.862C106.983 62.674 107.32 62.4981 107.643 62.3361C124.162 53.5545 142.584 48.9618 161.292 48.9611C165.377 48.9563 169.46 49.1766 173.521 49.621C189.429 51.2885 204.802 56.3164 218.621 64.372C232.266 72.3042 244.123 82.9722 253.447 95.706C253.676 96.006 253.891 96.3002 254.107 96.6062C259.249 103.754 263.539 111.478 266.889 119.621C266.936 119.697 266.972 119.778 266.998 119.863C267.093 120.064 267.174 120.271 267.24 120.483C267.358 120.724 267.462 120.972 267.551 121.225C270.465 128.594 272.593 136.25 273.901 144.065C273.928 144.157 273.942 144.252 273.942 144.348C274.494 147.625 274.899 150.951 275.155 154.326V154.339C275.384 157.239 275.492 160.178 275.492 163.131L275.494 163.132Z" fill="white"/>
</g>
<path d="M267.79 163.146C267.79 184.208 261.545 204.796 249.843 222.308C238.142 239.82 221.511 253.469 202.052 261.528C182.594 269.588 161.182 271.697 140.526 267.588C119.869 263.479 100.895 253.337 86.0022 238.444C71.1095 223.551 60.9674 204.577 56.8586 183.92C52.7498 163.263 54.8587 141.851 62.9187 122.393C70.9786 102.935 84.6274 86.3038 102.139 74.6027C119.651 62.9015 140.24 56.6561 161.301 56.6561C175.286 56.6561 189.134 59.4104 202.053 64.7621C214.973 70.1137 226.712 77.9578 236.601 87.8463C246.489 97.7348 254.333 109.474 259.685 122.394C265.036 135.314 267.79 149.162 267.79 163.146Z" fill="url(#paint0_linear)"/>
<path d="M15.1751 150.376C15.1751 151.877 14.73 153.343 13.8963 154.591C13.0626 155.839 11.8779 156.811 10.4915 157.385C9.10517 157.959 7.57946 158.11 6.10773 157.817C4.63599 157.525 3.28402 156.802 2.22296 155.741C1.1619 154.68 0.439535 153.328 0.146789 151.856C-0.145957 150.384 0.00418735 148.859 0.578429 147.473C1.15267 146.086 2.12519 144.901 3.37286 144.068C4.62054 143.234 6.08714 142.789 7.58771 142.789C9.59982 142.789 11.5297 143.589 12.9525 145.011C14.3752 146.434 15.1748 148.364 15.1751 150.376Z" fill="#E5F5FF"/>
<path d="M71.1413 32.1289C71.1413 33.6295 70.6962 35.0965 69.8625 36.3442C69.0288 37.5919 67.8436 38.5645 66.4572 39.1387C65.0708 39.7129 63.5452 39.8629 62.0734 39.5701C60.6016 39.2772 59.2501 38.5546 58.1891 37.4934C57.1281 36.4322 56.4056 35.0804 56.113 33.6086C55.8203 32.1368 55.9707 30.6112 56.5451 29.2249C57.1195 27.8385 58.0922 26.6536 59.34 25.8201C60.5878 24.9865 62.0547 24.5418 63.5553 24.542C65.5674 24.5423 67.4965 25.3418 68.9191 26.7646C70.3417 28.1875 71.1413 30.1169 71.1413 32.1289V32.1289Z" stroke="#E5F5FF" stroke-width="5" stroke-miterlimit="10"/>
<path d="M133.94 21.3569C133.94 22.476 133.608 23.5701 132.987 24.5007C132.365 25.4313 131.482 26.1566 130.448 26.585C129.414 27.0134 128.276 27.1257 127.179 26.9075C126.081 26.6893 125.073 26.1504 124.282 25.3591C123.49 24.5679 122.951 23.5597 122.733 22.4622C122.514 21.3646 122.626 20.227 123.055 19.1931C123.483 18.1592 124.208 17.2753 125.139 16.6536C126.069 16.0318 127.163 15.7 128.282 15.7C129.783 15.7 131.222 16.2961 132.283 17.3569C133.344 18.4178 133.94 19.8565 133.94 21.3569Z" fill="#E5F5FF" stroke="#E5F5FF"/>
<path d="M203.343 8.08801C203.342 9.58834 202.897 11.055 202.063 12.3024C201.23 13.5497 200.045 14.5218 198.659 15.0958C197.273 15.6698 195.748 15.82 194.276 15.5272C192.805 15.2344 191.453 14.5118 190.392 13.4508C189.332 12.3898 188.609 11.038 188.316 9.56653C188.024 8.09502 188.174 6.56982 188.748 5.18372C189.322 3.79761 190.294 2.61294 191.542 1.77942C192.789 0.945903 194.256 0.501099 195.757 0.501099C197.769 0.501364 199.698 1.3007 201.121 2.72351C202.543 4.14632 203.343 6.07599 203.343 8.08801Z" fill="#E5F5FF" stroke="#E5F5FF"/>
<path d="M328.318 130.146C328.318 131.647 327.872 133.114 327.038 134.361C326.205 135.609 325.02 136.581 323.634 137.156C322.248 137.73 320.722 137.88 319.25 137.587C317.779 137.294 316.427 136.572 315.366 135.51C314.305 134.449 313.582 133.097 313.289 131.626C312.997 130.154 313.147 128.628 313.721 127.242C314.295 125.855 315.268 124.671 316.516 123.837C317.764 123.004 319.231 122.559 320.732 122.559C322.744 122.559 324.673 123.359 326.096 124.782C327.519 126.204 328.318 128.134 328.318 130.146V130.146Z" stroke="#E5F5FF" stroke-width="5" stroke-miterlimit="10"/>
<path d="M40.5141 80.3839L35.1571 74.65L40.891 69.2931C41.0379 69.1558 41.1565 68.9908 41.2397 68.8077C41.3228 68.6247 41.3691 68.4271 41.3759 68.2262C41.3827 68.0253 41.3499 67.8248 41.2792 67.6366C41.2086 67.4484 41.1016 67.2759 40.9643 67.129C40.827 66.9821 40.662 66.8638 40.4789 66.7806C40.2959 66.6975 40.0983 66.6512 39.8974 66.6444C39.6964 66.6376 39.4958 66.6705 39.3075 66.7411C39.1193 66.8117 38.9471 66.9187 38.8002 67.056L33.0663 72.413L27.7099 66.6791C27.5738 66.5276 27.4091 66.4047 27.225 66.3178C27.041 66.2308 26.8415 66.1816 26.6381 66.1727C26.4347 66.1638 26.2314 66.1955 26.0404 66.266C25.8495 66.3365 25.6745 66.4444 25.5258 66.5834C25.377 66.7224 25.2576 66.8896 25.1742 67.0753C25.0909 67.261 25.0454 67.4617 25.0404 67.6652C25.0355 67.8687 25.0712 68.0711 25.1454 68.2606C25.2197 68.4502 25.3312 68.6229 25.4731 68.7689L30.829 74.5031L25.0951 79.86C24.7984 80.1371 24.6237 80.5208 24.6098 80.9266C24.5959 81.3325 24.7438 81.7273 25.0209 82.0241C25.2981 82.3208 25.682 82.4953 26.0878 82.5092C26.4936 82.523 26.8882 82.3752 27.185 82.098L32.9189 76.7411L38.2753 82.475C38.4114 82.6264 38.5761 82.7491 38.7602 82.8361C38.9442 82.923 39.1437 82.9724 39.3471 82.9813C39.5505 82.9902 39.7538 82.9586 39.9447 82.8881C40.1357 82.8175 40.3106 82.7097 40.4594 82.5707C40.6081 82.4317 40.7276 82.2645 40.811 82.0787C40.8943 81.893 40.9398 81.6924 40.9447 81.4889C40.9497 81.2854 40.9135 81.083 40.8393 80.8934C40.765 80.7039 40.654 80.5311 40.5121 80.3851L40.5141 80.3839Z" fill="#E5F5FF"/>
<path d="M300.702 78.6289L296.965 74.6289L300.965 70.8919C301.172 70.6984 301.294 70.431 301.303 70.1482C301.312 69.8654 301.209 69.5904 301.016 69.3836C300.823 69.1768 300.555 69.0551 300.273 69.0452C299.99 69.0353 299.714 69.138 299.507 69.3308L295.507 73.0679L291.773 69.0679C291.677 68.9652 291.562 68.8823 291.434 68.824C291.306 68.7657 291.168 68.7332 291.028 68.7283C290.887 68.7234 290.748 68.7462 290.616 68.7954C290.485 68.8447 290.365 68.9193 290.262 69.0152C290.159 69.111 290.077 69.2262 290.019 69.354C289.961 69.4819 289.928 69.62 289.923 69.7603C289.918 69.9006 289.942 70.0403 289.991 70.1717C290.041 70.3031 290.115 70.4235 290.211 70.5259L293.948 74.5259L289.948 78.262C289.75 78.4574 289.636 78.7224 289.63 79.0008C289.624 79.2791 289.727 79.5488 289.917 79.7522C290.107 79.9556 290.37 80.0766 290.648 80.0896C290.926 80.1027 291.198 80.0068 291.406 79.8221L295.406 76.085L299.143 80.085C299.239 80.1875 299.353 80.2701 299.481 80.3282C299.608 80.3862 299.747 80.4184 299.887 80.4231C300.027 80.4279 300.167 80.405 300.298 80.3558C300.429 80.3065 300.55 80.2318 300.653 80.136C300.755 80.0402 300.838 79.9251 300.896 79.7974C300.954 79.6697 300.986 79.5319 300.99 79.3916C300.995 79.2514 300.972 79.1116 300.923 78.9803C300.874 78.8489 300.799 78.7285 300.703 78.626L300.702 78.6289Z" fill="#E5F5FF" stroke="#E5F5FF"/>
<path d="M258.083 33.7381L271.882 21.3851C272.264 21.0406 272.495 20.5592 272.523 20.0457C272.551 19.5322 272.375 19.0284 272.034 18.6441L271.834 18.42C271.489 18.0377 271.008 17.8073 270.495 17.7789C269.981 17.7504 269.477 17.9263 269.092 18.2681L255.293 30.6212C254.91 30.9653 254.679 31.4467 254.651 31.9603C254.622 32.4738 254.798 32.9778 255.14 33.3621L255.34 33.586C255.685 33.9686 256.166 34.1994 256.68 34.2278C257.194 34.2563 257.698 34.0803 258.083 33.7381Z" fill="#E5F5FF" stroke="#E5F5FF"/>
<path d="M257.916 182.554V182.288V182.282V182.26V182.254V182.233V182.217V182.211V182.205V182.2V182.194V182.188V182.183V182.178H257.91H257.904H257.897H257.892H257.886H257.88H257.874H257.868H257.862H257.855H257.85H257.844H257.838H257.832H257.814H257.803H257.797H257.384H257.378H257.372H257.366H257.36H257.354H257.348V182.183V182.189V182.195V182.2V182.205V182.211V182.216V182.221V182.227V182.233V182.239V182.244V182.249V182.255V182.261V182.266V182.272V182.277V182.289V182.294V182.368V182.373L259.048 182.591L257.916 182.554ZM257.687 184.222V184.206V184.199V184.179V184.172V184.156V184.145V184.125V184.146L257.693 184.112V184.105V184.099V184.057V184.047V183.979V183.968V183.962V183.913V183.903V183.896V183.889V183.869V183.862V183.856V183.85V183.823V183.837V183.802V183.791V183.752V183.722V183.739V183.726V183.719V183.703V183.693V183.68V183.65V183.671V183.661V183.655V183.648V183.635V183.605V183.626V183.615V183.593V183.559V183.576V183.543V183.513V183.53V183.514V183.503V183.497V183.467V183.484V183.474V183.468V183.438V183.455V183.435V183.405V183.422V183.402V183.372V183.389V183.383V183.373V183.339V183.356V183.349V183.319V183.34V183.317V183.287V183.308V183.297V183.267V183.285V183.265V183.238V183.252V183.245V183.215V183.232V183.212V183.182V183.199V183.165V183.182V183.17V183.14V183.158V183.152V183.125V183.139V183.133V183.103V183.12V183.086V183.103V183.096V183.066V183.087V183.077V183.047V183.065V183.059V183.029V183.046V183.012V183.029V183.022V182.992V183.013V183.003V182.973V182.991V182.984V182.954V182.971V182.937V182.954V182.948V182.918V182.932V182.926V182.896V182.913V182.879V182.896V182.89V182.86V182.853V182.87V182.836V182.853V182.847V182.817V182.838V182.828V182.798V182.792V182.809V182.803V182.773V182.787V182.781V182.751V182.768V182.734V182.728V182.746V182.74V182.712V182.703V182.72V182.714V182.684V182.702V182.695V182.668V182.659V182.676V182.669V182.639V182.609V182.603V182.621V182.614V182.587V182.578V182.595V182.588V182.558V182.564L255.993 182.346V182.364V182.347V182.354V182.384V182.37V182.377V182.407V182.414V182.396V182.403V182.43V182.439V182.422V182.429V182.459V182.445V182.452V182.482V182.464V182.471V182.501V182.487V182.494V182.524V182.53V182.509V182.519V182.549V182.531V182.537V182.564V182.574V182.557V182.563V182.593V182.599V182.582V182.616V182.599V182.605V182.635V182.614V182.624V182.654V182.66V182.643V182.649V182.679V182.658V182.669V182.699V182.68V182.687V182.714V182.723V182.706V182.713V182.743V182.722V182.732V182.762V182.744V182.75V182.78V182.763V182.797V182.78V182.787V182.817V182.796V182.806V182.836V182.818V182.824V182.854V182.837V182.871V182.854V182.861V182.891V182.87V182.88V182.91V182.892V182.899V182.926V182.912V182.918V182.948V182.931V182.938V182.968V182.947V182.958V182.988V182.97V182.979V182.989V183.019V183.001V183.008V183.035V183.021V183.041V183.071V183.054V183.088V183.071V183.077V183.087V183.121V183.104V183.111V183.141V183.12V183.13V183.143V183.173V183.155V183.165V183.175V183.205V183.187V183.207V183.237V183.219V183.225V183.239V183.269V183.251V183.26V183.27V183.283V183.313V183.295V183.304V183.315V183.328V183.358V183.337V183.347V183.369V183.403V183.386V183.415V183.449V183.432V183.472V183.478V183.491V183.521V183.503V183.513V183.523V183.546V183.556V183.576V183.582V183.589V183.616V183.602V183.624V183.634V183.713V183.719V183.755V183.765V183.785V183.791V183.811V183.817V183.863V183.841L255.987 183.875V183.921V183.927V183.947V183.953V183.964L257.687 184.222ZM257.687 184.222V184.505V184.51V184.527V184.533V184.565V184.571V184.577V184.587V184.593V184.599V184.604V184.61V184.616H257.693H257.699H257.705H257.711H257.717H257.723H257.729H257.735H257.741H257.747H257.753H257.759H257.765H257.771H257.777H257.788H257.794H258.201H258.207H258.228H258.233H258.24H258.246H258.252H258.258H258.264V184.61V184.605V184.6V184.594V184.588V184.583V184.577V184.572V184.567V184.561V184.555V184.549V184.544V184.539V184.533V184.527V184.522V184.516V184.511V184.505V184.488V184.482V184.437L256.57 184.189L257.687 184.222Z" fill="url(#paint1_linear)"/>
<path d="M283.545 171.04L272.907 173.201L282.399 174.328C279.432 182.806 276.035 191.129 272.223 199.263C271.781 200.205 271.336 201.146 270.894 202.069L266.406 202.976L256.598 204.971L250.134 206.283L260.934 207.557L264.628 207.981L267.712 208.351C265.163 213.172 262.393 217.993 259.363 222.665C255.675 228.407 251.537 233.849 246.988 238.938C245.566 240.545 244.088 242.096 242.573 243.574C234.463 251.548 225.655 258.78 216.254 265.183C216.254 265.202 216.235 265.202 216.217 265.22C215.145 265.941 214.055 266.661 212.984 267.344C210.269 269.081 207.591 270.667 204.951 272.127C194.038 277.207 182.397 280.548 170.451 282.027C168.893 281.875 167.36 281.528 165.889 280.993C163.834 280.306 161.967 279.153 160.432 277.624C158.897 276.096 157.737 274.233 157.041 272.182C155.582 268.156 155.509 263.114 156.672 257.388C156.986 255.763 157.411 254.1 157.928 252.365C157.965 252.273 157.985 252.179 158.021 252.064C159.403 247.686 161.146 243.43 163.23 239.339C164.043 237.676 164.931 236.014 165.89 234.315C168.034 230.515 170.49 226.616 173.26 222.661C175.328 219.687 177.582 216.676 180.001 213.685C182.328 210.766 184.808 207.86 187.442 204.967C187.923 204.413 188.443 203.877 188.959 203.324C191.23 200.867 193.612 198.41 196.088 195.991C196.401 195.678 196.715 195.382 197.048 195.091C199.993 192.27 203.108 189.632 206.375 187.19L207.113 195.091L208.055 204.973L208.35 208.095L209.05 204.973L211.284 195.091L213.261 186.373L214.019 183.03L214.352 181.588C216.679 180.074 219.043 178.634 221.425 177.267C227.003 174.035 232.71 171.134 238.363 168.566C248.2 164.097 258.295 160.224 268.597 156.967H268.617C269.688 156.634 270.74 156.32 271.738 156.006C282.338 152.774 289.396 151.277 289.396 151.277C289.396 151.277 287.512 159.312 283.542 171.041L283.545 171.04Z" fill="url(#paint2_linear)"/>
<path d="M264.487 108.281V184.754C264.475 188.805 262.863 192.687 260 195.553C257.137 198.42 253.257 200.037 249.206 200.054H195.253L171.245 224.064L147.234 200.054H93.2939C89.2399 200.043 85.3553 198.428 82.4893 195.561C79.6232 192.693 78.009 188.808 78 184.754V108.281C78.0127 104.23 79.6283 100.348 82.4941 97.4849C85.36 94.6215 89.2428 93.0092 93.2939 93H249.21C253.259 93.0121 257.138 94.626 260 97.4893C262.863 100.352 264.476 104.232 264.487 108.281Z" fill="#006BC1"/>
<path d="M239.782 119.502V173.547C239.8 175.642 238.988 177.66 237.523 179.159C236.059 180.658 234.06 181.516 231.965 181.547H111.686C109.589 181.518 107.59 180.661 106.124 179.161C104.659 177.662 103.847 175.643 103.866 173.547V119.502C103.866 118.476 104.063 117.459 104.448 116.508C105.015 115.046 106.008 113.787 107.299 112.894C108.589 112.002 110.117 111.517 111.686 111.502H231.964C233.533 111.52 235.061 112.006 236.353 112.898C237.644 113.79 238.641 115.047 239.214 116.508C239.589 117.462 239.782 118.477 239.782 119.502Z" fill="white"/>
<path d="M238.135 116.507L179.991 141.829C177.077 143.101 173.931 143.757 170.751 143.757C167.572 143.757 164.427 143.101 161.512 141.829L103.863 116.729C103.889 116.657 103.913 116.581 103.945 116.51C104.513 115.047 105.507 113.788 106.797 112.896C108.088 112.003 109.617 111.518 111.186 111.504H230.886C232.455 111.52 233.984 112.006 235.275 112.897C236.567 113.789 237.563 115.046 238.135 116.507Z" fill="url(#paint3_linear)"/>
<path d="M80.1948 152.32L77.731 125.014C66.7314 118.131 55.3523 111.873 43.6479 106.272L40.8618 118.334L39.5996 104.354C25.0576 97.571 15 94 15 94C15 94 20.4996 149.477 43.3696 194.867L76.6279 206.34L49.4336 205.929C52.4188 210.965 55.7184 215.808 59.312 220.429C95.702 266.901 140.378 292.689 159.101 278.029C177.824 263.369 163.501 213.811 127.112 167.34C115.831 152.933 100.77 140.413 85.3569 129.99L80.1968 152.321L80.1948 152.32Z" fill="url(#paint4_linear)"/>
<path d="M110.688 114.688C107.437 117.94 103.295 120.154 98.7847 121.051C94.2748 121.948 89.6003 121.488 85.3521 119.728C81.1038 117.968 77.4726 114.989 74.918 111.166C72.3633 107.342 71 102.847 71 98.249C71 93.6508 72.3633 89.1558 74.918 85.3325C77.4726 81.5093 81.1038 78.5292 85.3521 76.7696C89.6003 75.0099 94.2748 74.5497 98.7847 75.4468C103.295 76.3439 107.437 78.5582 110.688 81.8096C115.045 86.1716 117.492 92.0843 117.492 98.249C117.492 104.414 115.045 110.327 110.688 114.688Z" fill="#DE5652"/>
<path d="M96.7468 107.507C97.1543 107.912 97.4555 108.412 97.6238 108.961C97.792 109.511 97.8224 110.093 97.7117 110.657C97.601 111.221 97.3525 111.749 96.989 112.194C96.6255 112.639 96.1581 112.987 95.6277 113.208C95.0973 113.429 94.5204 113.517 93.9485 113.461C93.3765 113.406 92.8267 113.21 92.3484 112.892C91.87 112.574 91.478 112.142 91.2063 111.636C90.9346 111.13 90.7916 110.564 90.7908 109.99C90.7853 109.531 90.8727 109.075 91.0471 108.651C91.2215 108.226 91.4794 107.841 91.8059 107.518C92.1276 107.19 92.5116 106.929 92.9353 106.75C93.359 106.571 93.8138 106.479 94.2737 106.477C94.7335 106.476 95.1894 106.567 95.614 106.744C96.0386 106.92 96.4235 107.179 96.7468 107.506V107.507Z" fill="white"/>
<path d="M91.6808 92.7573C91.1351 90.778 90.7958 88.7479 90.6686 86.6987C90.6455 86.2106 90.7216 85.7225 90.8922 85.2646C91.0629 84.8067 91.3248 84.3885 91.6618 84.0346C91.9978 83.6958 92.4006 83.4305 92.8449 83.2563C93.2891 83.082 93.7651 83.0025 94.2418 83.0224C94.7183 83.0085 95.1926 83.0916 95.6359 83.2666C96.0792 83.4415 96.4824 83.7049 96.8209 84.0405C97.1567 84.3819 97.4199 84.7876 97.5949 85.2333C97.7698 85.6791 97.8529 86.1556 97.839 86.6342C97.6787 88.7049 97.3191 90.7554 96.7658 92.7573L95.6188 97.4453C95.1758 99.4024 94.883 101.391 94.7428 103.393H93.7926C93.6304 101.386 93.2991 99.3962 92.8019 97.4453L91.6789 92.7583L91.6808 92.7573Z" fill="white"/>
</g>
<defs>
<filter id="filter0_d" x="-3.99902" y="0.00109863" width="338.817" height="290.139" filterUnits="userSpaceOnUse" color-interpolation-filters="sRGB">
<feFlood flood-opacity="0" result="BackgroundImageFix"/>
<feColorMatrix in="SourceAlpha" type="matrix" values="0 0 0 0 0 0 0 0 0 0 0 0 0 0 0 0 0 0 127 0" result="hardAlpha"/>
<feOffset dy="4"/>
<feGaussianBlur stdDeviation="2"/>
<feComposite in2="hardAlpha" operator="out"/>
<feColorMatrix type="matrix" values="0 0 0 0 0 0 0 0 0 0 0 0 0 0 0 0 0 0 0.25 0"/>
<feBlend mode="normal" in2="BackgroundImageFix" result="effect1_dropShadow"/>
<feBlend mode="normal" in="SourceGraphic" in2="effect1_dropShadow" result="shape"/>
</filter>
<filter id="filter1_d" x="41.123" y="45.9611" width="240.371" height="240.371" filterUnits="userSpaceOnUse" color-interpolation-filters="sRGB">
<feFlood flood-opacity="0" result="BackgroundImageFix"/>
<feColorMatrix in="SourceAlpha" type="matrix" values="0 0 0 0 0 0 0 0 0 0 0 0 0 0 0 0 0 0 127 0" result="hardAlpha"/>
<feOffset dy="3"/>
<feGaussianBlur stdDeviation="3"/>
<feColorMatrix type="matrix" values="0 0 0 0 0 0 0 0 0 0 0 0 0 0 0 0 0 0 0.161 0"/>
<feBlend mode="normal" in2="BackgroundImageFix" result="effect1_dropShadow"/>
<feBlend mode="normal" in="SourceGraphic" in2="effect1_dropShadow" result="shape"/>
</filter>
<linearGradient id="paint0_linear" x1="54.8125" y1="163.145" x2="267.79" y2="163.145" gradientUnits="userSpaceOnUse">
<stop stop-color="#AFDEE9"/>
<stop offset="1" stop-color="#FBFBFE"/>
</linearGradient>
<linearGradient id="paint1_linear" x1="255.978" y1="183.314" x2="257.713" y2="183.314" gradientUnits="userSpaceOnUse">
<stop stop-color="#3E5A8E"/>
<stop offset="1" stop-color="#496A9E"/>
</linearGradient>
<linearGradient id="paint2_linear" x1="155.866" y1="216.652" x2="289.396" y2="216.652" gradientUnits="userSpaceOnUse">
<stop stop-color="#99C4E7"/>
<stop offset="1" stop-color="#006BC1"/>
</linearGradient>
<linearGradient id="paint3_linear" x1="103.863" y1="127.63" x2="238.135" y2="127.63" gradientUnits="userSpaceOnUse">
<stop stop-color="#006BC1"/>
<stop offset="1" stop-color="#FBFBFE"/>
</linearGradient>
<linearGradient id="paint4_linear" x1="15" y1="188.07" x2="167.326" y2="188.07" gradientUnits="userSpaceOnUse">
<stop stop-color="#006BC1"/>
<stop offset="1" stop-color="#006BC1" stop-opacity="0.42"/>
</linearGradient>
</defs>
</svg>
