<svg width="210" height="170" viewBox="0 0 210 170" fill="none" xmlns="http://www.w3.org/2000/svg">
<g filter="url(#filter0_d)">
<g opacity="0.2">
<path opacity="0.2" d="M46.7643 68.5867C46.7643 68.5867 47.3309 65.9428 46.5077 63.893C45.6845 61.8432 41.1488 50.1166 41.9098 40.7111C42.6707 31.3055 40.7735 28.4162 40.7735 28.4162" stroke="#40B371"/>
<path opacity="0.2" d="M43.0538 57.4048C42.6985 57.1128 44.7778 57.5882 44.3241 57.9638C44.1609 58.1369 43.9798 58.2923 43.7839 58.4273C43.3518 58.6427 42.8955 58.558 42.9319 58.1636C42.9796 57.6378 43.4098 57.6967 43.0538 57.4048Z" fill="white"/>
<g opacity="0.2">
<path opacity="0.2" d="M41.3338 30.4401C41.6239 30.5356 40.7008 29.5451 40.6006 29.9302C40.5426 30.0795 40.5006 30.2346 40.4753 30.3928C40.4717 30.7087 40.6645 30.9312 40.8975 30.7739C41.2108 30.5626 41.0437 30.3446 41.3338 30.4401Z" fill="url(#paint0_linear)"/>
<path opacity="0.2" d="M42.0159 34.1832C42.2714 34.3506 41.6341 33.1561 41.44 33.5014C41.3453 33.6305 41.2645 33.7692 41.1989 33.9152C41.1136 34.2194 41.2423 34.4843 41.508 34.3926C41.8656 34.2703 41.7608 34.017 42.0159 34.1832Z" fill="url(#paint1_linear)"/>
<path opacity="0.2" d="M41.762 32.2125C42.0521 32.308 41.129 31.3175 41.0288 31.7026C40.9708 31.852 40.9288 32.0071 40.9035 32.1653C40.8999 32.4811 41.0928 32.7037 41.3257 32.5463C41.6391 32.335 41.4719 32.117 41.762 32.2125Z" fill="url(#paint2_linear)"/>
<path opacity="0.2" d="M41.9705 36.006C42.226 36.1733 41.5887 34.9789 41.3945 35.3242C41.2999 35.4533 41.2191 35.592 41.1535 35.738C41.0682 36.0422 41.1969 36.3071 41.4626 36.2154C41.8202 36.093 41.7154 35.8398 41.9705 36.006Z" fill="url(#paint3_linear)"/>
<path opacity="0.2" d="M41.831 31.3244C41.5583 31.462 42.9114 31.5071 42.7094 31.1664C42.6449 31.0199 42.5652 30.8805 42.4715 30.7507C42.2506 30.5249 41.9569 30.5038 41.9035 30.7798C41.8307 31.1507 42.1024 31.1865 41.831 31.3244Z" fill="url(#paint4_linear)"/>
<path opacity="0.2" d="M42.2673 35.1668C41.9683 35.2292 43.2636 35.6229 43.1567 35.2415C43.1323 35.0833 43.0913 34.9281 43.0344 34.7785C42.8796 34.5031 42.6013 34.4068 42.4782 34.6596C42.312 34.9989 42.5652 35.1039 42.2673 35.1668Z" fill="url(#paint5_linear)"/>
<path opacity="0.2" d="M42.0146 33.2499C41.7419 33.3876 43.095 33.4326 42.893 33.0919C42.8285 32.9454 42.7488 32.8061 42.6551 32.6763C42.4342 32.4504 42.1405 32.4294 42.0871 32.7054C42.0143 33.0762 42.286 33.112 42.0146 33.2499Z" fill="url(#paint6_linear)"/>
<path opacity="0.2" d="M41.946 37.0743C41.647 37.1366 42.9423 37.5304 42.8354 37.149C42.811 36.9908 42.77 36.8356 42.7131 36.6859C42.5583 36.4106 42.28 36.3143 42.157 36.567C41.9907 36.9064 42.2439 37.0113 41.946 37.0743Z" fill="url(#paint7_linear)"/>
<path opacity="0.2" d="M44.302 57.2785C43.916 57.5676 46.0363 57.2668 45.6274 56.792C45.4867 56.5813 45.3241 56.386 45.1424 56.2094C44.7369 55.9185 44.2739 55.9622 44.2657 56.4132C44.2543 57.0078 44.6886 56.9894 44.302 57.2785Z" fill="url(#paint8_linear)"/>
<path opacity="0.2" d="M43.676 55.4599C43.29 55.749 45.4103 55.4482 45.0014 54.9734C44.8607 54.7627 44.6981 54.5674 44.5164 54.3908C44.111 54.0999 43.6479 54.1436 43.6397 54.5946C43.6284 55.1892 44.0626 55.1708 43.676 55.4599Z" fill="url(#paint9_linear)"/>
<path opacity="0.2" d="M43.2175 53.3659C42.8315 53.655 44.9518 53.3542 44.5429 52.8794C44.4022 52.6687 44.2396 52.4734 44.0579 52.2968C43.6525 52.0059 43.1894 52.0496 43.1812 52.5006C43.1699 53.0952 43.6041 53.0768 43.2175 53.3659Z" fill="url(#paint10_linear)"/>
<path opacity="0.2" d="M42.7747 51.1106C42.521 51.2979 43.8992 51.103 43.6348 50.7946C43.5427 50.6578 43.4365 50.531 43.3177 50.4165C43.0545 50.2276 42.7541 50.2561 42.7482 50.5472C42.744 50.9346 43.0253 50.9231 42.7747 51.1106Z" fill="url(#paint11_linear)"/>
<path opacity="0.2" d="M42.3919 49.1389C42.1382 49.3262 43.5164 49.1314 43.252 48.8229C43.1599 48.6861 43.0536 48.5593 42.9349 48.4448C42.6717 48.2559 42.3713 48.2845 42.3654 48.5755C42.3612 48.9629 42.6425 48.9515 42.3919 49.1389Z" fill="url(#paint12_linear)"/>
<path opacity="0.2" d="M42.0101 47.1677C41.7564 47.3551 43.1346 47.1602 42.8701 46.8517C42.7781 46.7149 42.6718 46.5881 42.5531 46.4737C42.2898 46.2847 41.9895 46.3133 41.9835 46.6043C41.9793 46.9917 42.2607 46.9803 42.0101 47.1677Z" fill="url(#paint13_linear)"/>
<path opacity="0.2" d="M41.9647 44.6458C41.7109 44.8331 43.0892 44.6382 42.8247 44.3298C42.7327 44.1929 42.6264 44.0662 42.5077 43.9517C42.2444 43.7627 41.9441 43.7913 41.9381 44.0823C41.9339 44.4697 42.2152 44.4583 41.9647 44.6458Z" fill="url(#paint14_linear)"/>
<path opacity="0.2" d="M41.8983 41.2402C41.5959 41.1504 42.5814 42.1334 42.6684 41.7366C42.7223 41.5807 42.7595 41.4195 42.7794 41.2558C42.7717 40.9318 42.5681 40.7092 42.3321 40.8797C42.0203 41.1097 42.1988 41.3274 41.8983 41.2402Z" fill="url(#paint15_linear)"/>
<path opacity="0.2" d="M42.036 39.2841C41.7336 39.1944 42.7191 40.1774 42.8061 39.7805C42.86 39.6246 42.8972 39.4635 42.9171 39.2997C42.9094 38.9758 42.7058 38.7532 42.4698 38.9237C42.158 39.1536 42.3365 39.3713 42.036 39.2841Z" fill="url(#paint16_linear)"/>
<path opacity="0.2" d="M40.8948 42.9343C40.6411 43.1217 42.0193 42.9268 41.7549 42.6183C41.6628 42.4815 41.5566 42.3547 41.4379 42.2403C41.1746 42.0513 40.8743 42.0799 40.8683 42.3709C40.8641 42.7583 41.1454 42.7469 40.8948 42.9343Z" fill="url(#paint17_linear)"/>
<path opacity="0.2" d="M42.5014 42.59C42.6016 42.291 41.5848 43.2416 41.9784 43.3424C42.1323 43.4016 42.2921 43.4444 42.455 43.47C42.7791 43.4737 43.0086 43.2779 42.8465 43.0362C42.6276 42.7165 42.4037 42.8873 42.5014 42.59Z" fill="url(#paint18_linear)"/>
<path opacity="0.2" d="M41.0159 45.5779C40.7622 45.7652 42.1404 45.5703 41.876 45.2619C41.7839 45.125 41.6777 44.9983 41.5589 44.8838C41.2957 44.6949 40.9953 44.7234 40.9894 45.0144C40.9852 45.4018 41.2665 45.3904 41.0159 45.5779Z" fill="url(#paint19_linear)"/>
<path opacity="0.2" d="M41.0472 40.4585C40.7935 40.6458 42.1717 40.4509 41.9072 40.1425C41.8152 40.0057 41.7089 39.8789 41.5902 39.7644C41.3269 39.5755 41.0266 39.604 41.0206 39.8951C41.0164 40.2825 41.2978 40.271 41.0472 40.4585Z" fill="url(#paint20_linear)"/>
<path opacity="0.2" d="M41.0623 38.5786C40.8086 38.7659 42.1868 38.5711 41.9224 38.2626C41.8303 38.1258 41.7241 37.999 41.6053 37.8845C41.3421 37.6956 41.0417 37.7241 41.0358 38.0152C41.0316 38.4026 41.3129 38.3912 41.0623 38.5786Z" fill="url(#paint21_linear)"/>
<path opacity="0.2" d="M42.54 37.6944C42.5594 37.3796 41.8235 38.5611 42.2297 38.5565C42.3937 38.5739 42.5591 38.5739 42.7231 38.5564C43.037 38.476 43.2081 38.2275 42.9889 38.036C42.6946 37.7839 42.5227 38.0069 42.54 37.6944Z" fill="url(#paint22_linear)"/>
<path opacity="0.2" d="M42.4278 55.5852C42.0725 55.2932 44.1519 55.7686 43.6982 56.1442C43.5349 56.3174 43.3538 56.4727 43.1579 56.6078C42.7258 56.8232 42.2695 56.7384 42.3059 56.344C42.3537 55.8182 42.7838 55.8772 42.4278 55.5852Z" fill="url(#paint23_linear)"/>
<path opacity="0.2" d="M42.0455 53.614C41.6902 53.322 43.7695 53.7975 43.3158 54.173C43.1526 54.3462 42.9715 54.5015 42.7756 54.6366C42.3435 54.852 41.8872 54.7673 41.9236 54.3728C41.9713 53.847 42.4015 53.906 42.0455 53.614Z" fill="url(#paint24_linear)"/>
<path opacity="0.2" d="M41.5546 49.5249C41.3335 49.3438 42.6259 49.6383 42.344 49.8729C42.2425 49.9805 42.1299 50.077 42.0081 50.1609C41.7397 50.2949 41.4555 50.2424 41.4784 49.9973C41.5088 49.67 41.7757 49.7066 41.5546 49.5249Z" fill="url(#paint25_linear)"/>
<path opacity="0.2" d="M41.3559 48.1189C41.1348 47.9378 42.4271 48.2323 42.1453 48.4669C42.0438 48.5745 41.9312 48.671 41.8094 48.7549C41.541 48.8889 41.2568 48.8364 41.2797 48.5913C41.3101 48.264 41.577 48.3006 41.3559 48.1189Z" fill="url(#paint26_linear)"/>
<path opacity="0.2" d="M40.9746 46.1475C40.7534 45.9664 42.0458 46.2609 41.764 46.4955C41.6625 46.603 41.5499 46.6996 41.428 46.7835C41.1596 46.9175 40.8754 46.865 40.8984 46.6199C40.9288 46.2926 41.1957 46.3292 40.9746 46.1475Z" fill="url(#paint27_linear)"/>
<path opacity="0.2" d="M41.7185 51.4003C41.4386 51.1711 43.0738 51.5437 42.7175 51.84C42.5891 51.9762 42.4466 52.0984 42.2925 52.2046C41.9528 52.3742 41.5937 52.3078 41.622 51.9973C41.66 51.5835 41.9983 51.6301 41.7185 51.4003Z" fill="url(#paint28_linear)"/>
</g>
</g>
<path d="M127.057 130.092L124.351 136.172L125.943 137.507L128.172 133.799L127.057 130.092Z" fill="url(#paint29_linear)"/>
<path opacity="0.55" d="M125.624 137.507L131.373 160.567H134.131L127.463 134.983" fill="url(#paint30_linear)"/>
<path d="M92.5583 129.468L95.0794 135.548L93.5967 136.883L91.52 133.175L92.5583 129.468Z" fill="url(#paint31_linear)"/>
<path opacity="0.55" d="M93.8931 136.882L88.5375 159.943H85.9722L92.1824 134.359" fill="url(#paint32_linear)"/>
<path d="M105.076 132.367L99.6752 135.067L97.9895 133.515L97.2472 135.067L93.8046 134.122L90.6318 128.789H98.3947" fill="url(#paint33_linear)"/>
<path d="M112.995 132.367L118.792 135.067L120.603 133.515L121.4 135.067L125.096 134.122L128.502 128.789H120.168" fill="url(#paint34_linear)"/>
<g opacity="0.5">
<path opacity="0.5" d="M40.9638 65.8715C42.1833 65.1499 43.199 64.1298 43.9155 62.9073C44.7809 61.1421 49.8358 51.1605 56.5099 46.0643C63.184 40.9681 63.9651 37.9926 63.9651 37.9926" stroke="#40B371"/>
<path opacity="0.5" d="M46.1499 56.7607C46.1314 56.3517 47.0552 58.0087 46.5362 57.933C46.3246 57.9281 46.1141 57.9009 45.9083 57.8517C45.5081 57.6936 45.2926 57.3419 45.575 57.1311C45.9514 56.8499 46.1684 57.1697 46.1499 56.7607Z" fill="white"/>
<g opacity="0.5">
<path opacity="0.5" d="M62.9598 39.5675C63.0698 39.816 63.1725 38.6153 62.8611 38.7793C62.728 38.8299 62.6007 38.8944 62.4812 38.9717C62.2701 39.1574 62.2359 39.4171 62.4808 39.4782C62.8055 39.5596 62.8498 39.319 62.9598 39.5675Z" fill="url(#paint35_linear)"/>
<path opacity="0.5" d="M60.8893 42.2482C60.9312 42.5167 61.3413 41.3836 60.9981 41.4613C60.8565 41.4758 60.7168 41.5051 60.5813 41.5488C60.3265 41.6746 60.2275 41.9145 60.4472 42.0386C60.7397 42.1991 60.8475 41.9798 60.8893 42.2482Z" fill="url(#paint36_linear)"/>
<path opacity="0.5" d="M62.0423 40.9061C62.1523 41.1546 62.255 39.9539 61.9436 40.1179C61.8105 40.1685 61.6832 40.233 61.5637 40.3103C61.3526 40.496 61.3184 40.7557 61.5633 40.8168C61.8881 40.8983 61.9324 40.6577 62.0423 40.9061Z" fill="url(#paint37_linear)"/>
<path opacity="0.5" d="M59.6569 43.3034C59.6988 43.5719 60.1089 42.4387 59.7657 42.5165C59.6241 42.531 59.4844 42.5603 59.3489 42.604C59.0941 42.7298 58.995 42.9697 59.2148 43.0937C59.5073 43.2543 59.615 43.0349 59.6569 43.3034Z" fill="url(#paint38_linear)"/>
<path opacity="0.5" d="M62.6694 40.4234C62.416 40.3254 63.1924 41.247 63.2966 40.9109C63.3549 40.781 63.3993 40.6454 63.4292 40.5062C63.4476 40.2226 63.2893 40.0169 63.072 40.1452C62.7868 40.3183 62.9229 40.5213 62.6694 40.4234Z" fill="url(#paint39_linear)"/>
<path opacity="0.5" d="M60.3876 42.9996C60.1681 42.8394 60.6795 43.9306 60.8672 43.6329C60.9571 43.5225 61.0351 43.403 61.1 43.2763C61.1912 43.0071 61.0915 42.7675 60.8485 42.8352C60.5281 42.9285 60.607 43.1598 60.3876 42.9996Z" fill="url(#paint40_linear)"/>
<path opacity="0.5" d="M61.5054 41.6909C61.2519 41.593 62.0283 42.5146 62.1325 42.1785C62.1908 42.0486 62.2352 41.9129 62.2651 41.7738C62.2835 41.4902 62.1253 41.2845 61.908 41.4128C61.6227 41.5859 61.7588 41.7889 61.5054 41.6909Z" fill="url(#paint41_linear)"/>
<path opacity="0.5" d="M58.9349 43.9225C58.7155 43.7623 59.2269 44.8535 59.4146 44.5557C59.5045 44.4454 59.5825 44.3258 59.6474 44.1991C59.7385 43.9299 59.6389 43.6903 59.3958 43.758C59.0755 43.8514 59.1544 44.0827 58.9349 43.9225Z" fill="url(#paint42_linear)"/>
<path opacity="0.5" d="M46.9766 57.5113C46.5557 57.4279 48.0164 58.6505 48.0876 58.0974C48.1431 57.879 48.1753 57.6553 48.1838 57.4301C48.1346 56.9881 47.8298 56.7087 47.5288 56.9699C47.1266 57.3185 47.3975 57.5948 46.9766 57.5113Z" fill="url(#paint43_linear)"/>
<path opacity="0.5" d="M47.8062 56.0138C47.3853 55.9303 48.846 57.153 48.9172 56.5998C48.9726 56.3814 49.0049 56.1577 49.0134 55.9326C48.9642 55.4905 48.6594 55.2111 48.3583 55.4723C47.9562 55.821 48.2271 56.0973 47.8062 56.0138Z" fill="url(#paint44_linear)"/>
<path opacity="0.5" d="M48.9176 54.464C48.4967 54.3805 49.9573 55.6032 50.0285 55.05C50.084 54.8316 50.1162 54.6079 50.1247 54.3827C50.0755 53.9407 49.7707 53.6613 49.4697 53.9225C49.0675 54.2712 49.3385 54.5475 48.9176 54.464Z" fill="url(#paint45_linear)"/>
<path opacity="0.5" d="M50.1462 52.827C49.8727 52.7728 50.8231 53.5643 50.8669 53.2075C50.9029 53.0659 50.9239 52.9208 50.9295 52.7747C50.898 52.4886 50.7001 52.3065 50.5042 52.4763C50.2437 52.7023 50.4197 52.8811 50.1462 52.827Z" fill="url(#paint46_linear)"/>
<path opacity="0.5" d="M51.2219 51.4007C50.9484 51.3465 51.8988 52.138 51.9426 51.7813C51.9786 51.6396 51.9996 51.4945 52.0052 51.3484C51.9737 51.0623 51.7758 50.8803 51.5799 51.05C51.3194 51.276 51.4954 51.4549 51.2219 51.4007Z" fill="url(#paint47_linear)"/>
<path opacity="0.5" d="M52.2986 49.9739C52.0251 49.9198 52.9754 50.7112 53.0193 50.3545C53.0553 50.2128 53.0763 50.0677 53.0818 49.9216C53.0503 49.6355 52.8525 49.4535 52.6565 49.6233C52.3961 49.8493 52.5721 50.0281 52.2986 49.9739Z" fill="url(#paint48_linear)"/>
<path opacity="0.5" d="M53.9387 48.4424C53.6652 48.3883 54.6156 49.1798 54.6594 48.823C54.6954 48.6813 54.7164 48.5362 54.722 48.3901C54.6905 48.104 54.4926 47.922 54.2967 48.0918C54.0362 48.3178 54.2122 48.4966 53.9387 48.4424Z" fill="url(#paint49_linear)"/>
<path opacity="0.5" d="M56.1527 46.3712C56.0313 46.1202 55.9717 47.3556 56.2829 47.1758C56.4177 47.1192 56.5461 47.0486 56.6661 46.9651C56.8756 46.7676 56.9018 46.5 56.6482 46.4458C56.311 46.374 56.2742 46.6222 56.1527 46.3712Z" fill="url(#paint50_linear)"/>
<path opacity="0.5" d="M57.5282 45.298C57.4068 45.047 57.3471 46.2823 57.6584 46.1025C57.7932 46.046 57.9216 45.9753 58.0416 45.8918C58.2511 45.6944 58.2772 45.4268 58.0237 45.3726C57.6865 45.3007 57.6497 45.5489 57.5282 45.298Z" fill="url(#paint51_linear)"/>
<path opacity="0.5" d="M54.4343 46.7159C54.1608 46.6617 55.1112 47.4532 55.155 47.0965C55.191 46.9548 55.212 46.8097 55.2176 46.6636C55.1861 46.3775 54.9882 46.1955 54.7923 46.3652C54.5318 46.5912 54.7078 46.77 54.4343 46.7159Z" fill="url(#paint52_linear)"/>
<path opacity="0.5" d="M55.6181 47.5744C55.8732 47.4618 54.6407 47.3591 54.8095 47.6764C54.8613 47.8131 54.9274 47.944 55.0067 48.0668C55.1967 48.283 55.4632 48.3185 55.5262 48.067C55.6098 47.7325 55.3631 47.6871 55.6181 47.5744Z" fill="url(#paint53_linear)"/>
<path opacity="0.5" d="M52.759 48.3709C52.4855 48.3167 53.4359 49.1082 53.4797 48.7515C53.5157 48.6098 53.5367 48.4647 53.5423 48.3186C53.5108 48.0325 53.3129 47.8505 53.117 48.0202C52.8565 48.2462 53.0325 48.4251 52.759 48.3709Z" fill="url(#paint54_linear)"/>
<path opacity="0.5" d="M56.1623 45.3428C55.8888 45.2887 56.8392 46.0801 56.8831 45.7234C56.9191 45.5817 56.94 45.4366 56.9456 45.2905C56.9141 45.0044 56.7162 44.8224 56.5203 44.9922C56.2598 45.2182 56.4358 45.397 56.1623 45.3428Z" fill="url(#paint55_linear)"/>
<path opacity="0.5" d="M57.4148 44.2337C57.1413 44.1795 58.0916 44.971 58.1355 44.6143C58.1715 44.4726 58.1925 44.3275 58.198 44.1814C58.1665 43.8953 57.9687 43.7133 57.7727 43.883C57.5123 44.109 57.6883 44.2879 57.4148 44.2337Z" fill="url(#paint56_linear)"/>
<path opacity="0.5" d="M58.8793 44.6849C59.0965 44.51 57.8794 44.73 58.1247 44.9928C58.2101 45.1114 58.3079 45.2206 58.4163 45.3188C58.6558 45.4784 58.9224 45.4437 58.9181 45.1845C58.9122 44.8397 58.6621 44.8597 58.8793 44.6849Z" fill="url(#paint57_linear)"/>
<path opacity="0.5" d="M46.9805 55.2629C46.9619 54.8539 47.8858 56.5109 47.3668 56.4352C47.1552 56.4303 46.9447 56.4031 46.7388 56.3539C46.3387 56.1958 46.1232 55.8441 46.4056 55.6333C46.782 55.352 46.999 55.6719 46.9805 55.2629Z" fill="url(#paint58_linear)"/>
<path opacity="0.5" d="M48.0562 53.8366C48.0376 53.4276 48.9614 55.0846 48.4425 55.009C48.2309 55.0041 48.0204 54.9768 47.8145 54.9276C47.4143 54.7695 47.1989 54.4178 47.4813 54.207C47.8576 53.9258 48.0747 54.2457 48.0562 53.8366Z" fill="url(#paint59_linear)"/>
<path opacity="0.5" d="M50.4689 51.0784C50.4564 50.8227 51.0308 51.8533 50.7086 51.8064C50.5769 51.8035 50.446 51.7867 50.3179 51.7563C50.0694 51.6586 49.9354 51.4394 50.1108 51.3078C50.3446 51.1332 50.4794 51.3316 50.4689 51.0784Z" fill="url(#paint60_linear)"/>
<path opacity="0.5" d="M51.2799 50.1101C51.2674 49.8544 51.8418 50.885 51.5196 50.8381C51.388 50.8353 51.257 50.8185 51.1289 50.788C50.8804 50.6903 50.7464 50.4711 50.9219 50.3396C51.1556 50.1649 51.2905 50.3634 51.2799 50.1101Z" fill="url(#paint61_linear)"/>
<path opacity="0.5" d="M52.3571 48.6831C52.3445 48.4274 52.919 49.458 52.5967 49.4111C52.4651 49.4083 52.3342 49.3915 52.2061 49.361C51.9576 49.2633 51.8236 49.0441 51.999 48.9126C52.2328 48.7379 52.3676 48.9364 52.3571 48.6831Z" fill="url(#paint62_linear)"/>
<path opacity="0.5" d="M49.3257 52.3012C49.3109 51.9791 50.038 53.2829 49.6296 53.2238C49.4632 53.2201 49.2976 53.1987 49.1356 53.1601C48.8211 53.0364 48.651 52.7596 48.8736 52.5931C49.17 52.3718 49.3405 52.6233 49.3257 52.3012Z" fill="url(#paint63_linear)"/>
</g>
</g>
<path opacity="0.22" d="M34.388 53.3701C34.388 53.3701 32.9939 51.2228 34.3454 49.6365C34.7262 49.1689 34.9563 48.5969 35.0055 47.9959C35.0547 47.3949 34.9207 46.7931 34.6211 46.2698C34.6211 46.2698 36.7822 49.5612 35.5865 50.6311C34.8508 51.3568 34.4218 52.3373 34.388 53.3701Z" fill="url(#paint64_linear)"/>
<path d="M33.845 59.1885H36.3511V51.4124H33.845V59.1885Z" fill="url(#paint65_linear)"/>
<path d="M27.7142 71.3345L4.90674 78.9513H202.157L185.113 71.3345H27.7142Z" fill="url(#paint66_linear)"/>
<path d="M39.9009 69.9212C39.9009 69.9212 42.417 67.3252 42.9364 64.4171C43.4559 61.509 46.62 44.9966 54.1525 34.8712C61.6851 24.7458 61.5777 20.1245 61.5777 20.1245" stroke="#40B371"/>
<path d="M43.6208 54.61C43.4229 54.0275 45.4434 56.0398 44.6636 56.1451C44.3564 56.226 44.0415 56.2741 43.7242 56.2888C43.0813 56.2271 42.6238 55.8073 42.9445 55.3856C43.3701 54.823 43.816 55.1951 43.6208 54.61Z" fill="white"/>
<path d="M60.778 22.815C61.0396 23.1271 60.6912 21.3515 60.3078 21.7174C60.1362 21.8461 59.9785 21.9926 59.8377 22.1544C59.6098 22.5097 59.6679 22.8993 60.0469 22.8862C60.5513 22.8674 60.5164 22.5016 60.778 22.815Z" fill="url(#paint67_linear)"/>
<path d="M58.8977 27.5442C59.0692 27.9147 59.1929 26.1083 58.7279 26.3624C58.5288 26.4422 58.3386 26.5429 58.1606 26.6627C57.849 26.945 57.8042 27.3364 58.1736 27.4219C58.666 27.5358 58.725 27.1735 58.8977 27.5442Z" fill="url(#paint68_linear)"/>
<path d="M60.0075 25.1287C60.2691 25.4409 59.9207 23.6653 59.5373 24.0311C59.3657 24.1598 59.208 24.3063 59.0672 24.4681C58.8393 24.8234 58.8974 25.213 59.2764 25.1999C59.7808 25.1811 59.7459 24.8153 60.0075 25.1287Z" fill="url(#paint69_linear)"/>
<path d="M57.554 29.5796C57.7255 29.9501 57.8491 28.1437 57.3841 28.3978C57.185 28.4776 56.9949 28.5783 56.8169 28.6981C56.5053 28.9804 56.4604 29.3718 56.8299 29.4573C57.3223 29.5712 57.3813 29.2089 57.554 29.5796Z" fill="url(#paint70_linear)"/>
<path d="M60.7136 24.1712C60.307 24.1345 61.8098 25.1446 61.8222 24.6149C61.8525 24.4025 61.8604 24.1874 61.8456 23.9734C61.7568 23.5624 61.4403 23.328 61.1816 23.6052C60.8368 23.9747 61.1211 24.2069 60.7136 24.1712Z" fill="url(#paint71_linear)"/>
<path d="M58.4856 28.8371C58.1024 28.6965 59.2925 30.0611 59.4416 29.5526C59.5259 29.3553 59.5891 29.1496 59.6302 28.9391C59.6508 28.5191 59.4058 28.2107 59.0841 28.4116C58.6554 28.6792 58.87 28.9771 58.4856 28.8371Z" fill="url(#paint72_linear)"/>
<path d="M59.5564 26.4844C59.1498 26.4478 60.6526 27.4578 60.6649 26.9281C60.6953 26.7157 60.7031 26.5007 60.6883 26.2866C60.5996 25.8756 60.2831 25.6412 60.0244 25.9184C59.6796 26.288 59.9639 26.5202 59.5564 26.4844Z" fill="url(#paint73_linear)"/>
<path d="M56.7698 30.7724C56.3866 30.6318 57.5767 31.9964 57.7257 31.4879C57.81 31.2906 57.8733 31.0849 57.9144 30.8744C57.935 30.4544 57.6899 30.146 57.3683 30.3469C56.9396 30.6145 57.1541 30.9124 56.7698 30.7724Z" fill="url(#paint74_linear)"/>
<path d="M45.123 55.3546C44.4797 55.4076 47.0968 56.5687 46.9706 55.7414C46.9603 55.4028 46.9143 55.0662 46.8334 54.7373C46.58 54.1198 46.0232 53.8416 45.6965 54.3438C45.2607 55.0134 45.7661 55.3006 45.123 55.3546Z" fill="url(#paint75_linear)"/>
<path d="M45.7006 52.8475C45.0573 52.9006 47.6744 54.0616 47.5482 53.2343C47.5379 52.8957 47.4919 52.5592 47.411 52.2302C47.1576 51.6127 46.6009 51.3346 46.2741 51.8367C45.8383 52.5064 46.3438 52.7935 45.7006 52.8475Z" fill="url(#paint76_linear)"/>
<path d="M46.6645 50.1488C46.0212 50.2018 48.6383 51.3628 48.5121 50.5356C48.5018 50.197 48.4558 49.8604 48.3749 49.5315C48.1215 48.914 47.5647 48.6358 47.238 49.138C46.8022 49.8076 47.3076 50.0948 46.6645 50.1488Z" fill="url(#paint77_linear)"/>
<path d="M47.7609 47.2759C47.3421 47.3132 49.0412 48.0642 48.9597 47.5267C48.9527 47.3066 48.9225 47.0879 48.8696 46.8742C48.7065 46.4748 48.3453 46.2941 48.1328 46.6201C47.8502 47.0548 48.1779 47.2411 47.7609 47.2759Z" fill="url(#paint78_linear)"/>
<path d="M48.7247 44.7698C48.3059 44.8071 50.0051 45.5581 49.9235 45.0206C49.9166 44.8005 49.8864 44.5818 49.8334 44.3681C49.6704 43.9687 49.3092 43.788 49.0967 44.114C48.8141 44.5487 49.1418 44.735 48.7247 44.7698Z" fill="url(#paint79_linear)"/>
<path d="M49.6886 42.2632C49.2698 42.3005 50.9689 43.0515 50.8874 42.514C50.8804 42.2939 50.8502 42.0752 50.7973 41.8615C50.6343 41.4621 50.273 41.2814 50.0605 41.6074C49.7779 42.0422 50.1056 42.2284 49.6886 42.2632Z" fill="url(#paint80_linear)"/>
<path d="M51.4245 39.3713C51.0056 39.4087 52.7048 40.1596 52.6233 39.6222C52.6163 39.4021 52.5861 39.1834 52.5331 38.9697C52.3701 38.5703 52.0089 38.3895 51.7964 38.7156C51.5138 39.1503 51.8415 39.3365 51.4245 39.3713Z" fill="url(#paint81_linear)"/>
<path d="M53.7637 35.4632C53.4817 35.1513 53.9053 36.9601 54.2853 36.5713C54.4568 36.4333 54.6132 36.2774 54.752 36.1065C54.9727 35.7358 54.8995 35.3386 54.5112 35.3652C53.994 35.4014 54.0426 35.7752 53.7637 35.4632Z" fill="url(#paint82_linear)"/>
<path d="M55.3057 33.3423C55.0237 33.0305 55.4473 34.8392 55.8273 34.4505C55.9988 34.3124 56.1552 34.1566 56.294 33.9856C56.5147 33.615 56.4415 33.2177 56.0532 33.2444C55.5359 33.2806 55.5846 33.6543 55.3057 33.3423Z" fill="url(#paint83_linear)"/>
<path d="M51.4245 36.6723C51.0056 36.7097 52.7048 37.4606 52.6233 36.9232C52.6163 36.7031 52.5861 36.4844 52.5331 36.2707C52.3701 35.8713 52.0089 35.6905 51.7964 36.0166C51.5138 36.4513 51.8415 36.6375 51.4245 36.6723Z" fill="url(#paint84_linear)"/>
<path d="M53.4903 37.4211C53.8118 37.1501 51.9894 37.5103 52.3646 37.9037C52.4966 38.0799 52.6469 38.2417 52.8129 38.3863C53.1756 38.6198 53.5752 38.5605 53.5621 38.1715C53.544 37.6533 53.1688 37.6889 53.4903 37.4211Z" fill="url(#paint85_linear)"/>
<path d="M49.6886 39.7571C49.2698 39.7944 50.9689 40.5454 50.8874 40.0079C50.8804 39.7878 50.8502 39.5691 50.7973 39.3554C50.6343 38.956 50.273 38.7753 50.0605 39.1013C49.7779 39.536 50.1056 39.7223 49.6886 39.7571Z" fill="url(#paint86_linear)"/>
<path d="M53.3527 33.9734C52.9339 34.0107 54.633 34.7617 54.5515 34.2242C54.5445 34.0042 54.5143 33.7854 54.4614 33.5717C54.2983 33.1723 53.9371 32.9916 53.7246 33.3176C53.442 33.7524 53.7697 33.9386 53.3527 33.9734Z" fill="url(#paint87_linear)"/>
<path d="M54.7018 31.8525C54.283 31.8899 55.9821 32.6408 55.9006 32.1034C55.8936 31.8833 55.8634 31.6646 55.8105 31.4509C55.6475 31.0515 55.2862 30.8707 55.0737 31.1968C54.7911 31.6315 55.1188 31.8177 54.7018 31.8525Z" fill="url(#paint88_linear)"/>
<path d="M57.004 31.8966C57.2444 31.5516 55.5774 32.3715 56.0417 32.6542C56.2148 32.7903 56.4018 32.9076 56.5996 33.0043C57.0105 33.1359 57.3811 32.9751 57.2677 32.6028C57.116 32.107 56.7628 32.2386 57.004 31.8966Z" fill="url(#paint89_linear)"/>
<path d="M44.1984 52.1041C44.0005 51.5217 46.021 53.5339 45.2412 53.6393C44.934 53.7201 44.6192 53.7683 44.3019 53.783C43.659 53.7212 43.2014 53.3014 43.5222 52.8797C43.9477 52.3172 44.3937 52.6892 44.1984 52.1041Z" fill="url(#paint90_linear)"/>
<path d="M45.1623 49.5973C44.9644 49.0148 46.9849 51.0271 46.2051 51.1324C45.8979 51.2133 45.583 51.2614 45.2657 51.2761C44.6228 51.2144 44.1653 50.7946 44.486 50.3729C44.9116 49.8103 45.3576 50.1824 45.1623 49.5973Z" fill="url(#paint91_linear)"/>
<path d="M47.5016 44.6145C47.3791 44.2519 48.6372 45.5026 48.1502 45.5677C47.9588 45.6177 47.7627 45.6474 47.5651 45.6562C47.1657 45.618 46.8813 45.3569 47.0804 45.0947C47.3463 44.7458 47.6232 44.9772 47.5016 44.6145Z" fill="url(#paint92_linear)"/>
<path d="M48.2731 42.8796C48.1506 42.517 49.4087 43.7678 48.9217 43.8328C48.7303 43.8829 48.5342 43.9126 48.3366 43.9214C47.9372 43.8831 47.6528 43.6221 47.8519 43.3598C48.1178 43.0109 48.3947 43.2424 48.2731 42.8796Z" fill="url(#paint93_linear)"/>
<path d="M49.2374 40.3728C49.1149 40.0102 50.373 41.2609 49.886 41.326C49.6947 41.376 49.4986 41.4057 49.301 41.4145C48.9016 41.3763 48.6172 41.1152 48.8162 40.853C49.0821 40.5041 49.359 40.7355 49.2374 40.3728Z" fill="url(#paint94_linear)"/>
<path d="M46.3578 46.856C46.2036 46.3972 47.7933 47.9788 47.1791 48.0621C46.9369 48.1256 46.6887 48.1632 46.4386 48.1744C45.9333 48.1253 45.5724 47.7961 45.825 47.4639C46.162 47.0222 46.5125 47.3152 46.3578 46.856Z" fill="url(#paint95_linear)"/>
<path d="M30.8906 59.1731L34.2658 68.7254C34.2658 68.7254 34.4219 69.6619 33.2275 69.7637C32.0332 69.8654 31.2921 71.2789 31.4794 72.4133C31.6667 73.5477 31.9994 74.9425 34.6697 74.8713C37.34 74.8001 38.8297 74.257 38.7585 72.6025C38.6873 70.948 37.1515 70.0028 36.0401 69.5064C34.9288 69.0101 38.9707 59.0364 38.9707 59.0364H31.1472" fill="url(#paint96_linear)"/>
<path d="M202.157 78.8538H4.92578V85.1152H202.157V78.8538Z" fill="url(#paint97_linear)"/>
<path d="M35.0315 52.0181C35.0315 52.0181 35.9342 51.1441 35.4398 50.265C35.303 50.0074 35.2502 49.7134 35.2887 49.4242C35.3272 49.1351 35.4551 48.8652 35.6545 48.6523C35.6545 48.6523 34.2573 49.9853 34.7299 50.6084C34.8705 50.812 34.9694 51.0413 35.0211 51.2832C35.0729 51.5251 35.0764 51.7748 35.0315 52.0181Z" fill="url(#paint98_linear)"/>
<path opacity="0.22" d="M34.8579 52.1958C34.8579 52.1958 35.4898 49.6657 33.6468 48.656C33.1222 48.3525 32.7055 47.8926 32.4551 47.3406C32.2046 46.7887 32.1329 46.1723 32.25 45.5776C32.25 45.5776 31.2558 49.4657 32.7757 50.0434C33.2472 50.2477 33.6738 50.5429 34.0311 50.9122C34.3884 51.2816 34.6694 51.7177 34.8579 52.1958Z" fill="url(#paint99_linear)"/>
<path d="M44.5583 74.9584H42.2115C39.9745 74.9584 40.0263 73.972 40.0263 73.972V61.3018C40.0263 60.1074 41.4804 59.6922 40.5976 59.6922C39.7148 59.6922 39.7173 58.6015 40.3385 58.5497C40.9597 58.4979 40.9116 58.1888 40.3385 57.6675C39.7653 57.1462 41.1195 56.9402 41.1195 56.9402H49.1796C49.1796 56.9402 50.3578 57.1481 49.8589 57.6675C49.3601 58.187 49.3151 58.4985 49.8589 58.5503C50.4027 58.6022 50.4027 59.6929 49.6323 59.6929C48.8619 59.6929 50.1318 60.1087 50.1318 61.3024V73.972C50.1318 73.972 50.1792 74.9584 48.2294 74.9584H44.5583Z" fill="url(#paint100_linear)"/>
<path d="M81.2871 161.178L90.1851 129.232L92.5575 130.122L83.9555 161.178H81.2871Z" fill="url(#paint101_linear)"/>
<path d="M138.534 161.178L128.981 129.232L126.434 130.122L135.669 161.178H138.534Z" fill="url(#paint102_linear)"/>
<path d="M72.9839 122.411L84.2549 80.2923C84.2549 80.2923 86.3315 69.7629 97.1574 69.6162C107.983 69.4695 120.441 69.6162 120.441 69.6162C120.441 69.6162 132.603 67.2437 136.31 82.0735C140.017 96.9033 146.691 123.302 146.691 123.302C146.691 123.302 144.763 119.298 140.907 123.302C137.052 127.307 127.24 133.786 109.558 132.646C91.8756 131.505 85.2588 127.626 79.2153 124.092C73.1718 120.559 72.9839 122.411 72.9839 122.411Z" fill="url(#paint103_linear)"/>
<path d="M171.79 84.8311C171.79 84.8311 172.857 95.0496 174.779 105.074C176.7 115.099 186.516 161.178 186.516 161.178H182.674L170.298 100.061C170.298 100.061 168.164 88.1076 168.377 84.8274" fill="#E1E8F6"/>
<path d="M171.166 84.8311C171.166 84.8311 172.233 95.0496 174.154 105.074C176.075 115.099 185.892 161.178 185.892 161.178H182.05L169.673 100.061C169.673 100.061 167.539 88.1076 167.753 84.8274" fill="url(#paint104_linear)"/>
<path d="M179.901 83.8665L151.516 161.37H148.103L177.34 83.8665" fill="#E1E8F6"/>
<path d="M148.1 161.177L147.595 160.023L176.135 83.7029H178.282L148.1 161.177Z" fill="url(#paint105_linear)"/>
<path d="M187.418 83.8665C187.418 83.8665 187.632 101.218 192.754 116.834C197.876 132.451 205.559 160.792 205.559 160.792H200.223L185.926 108.93C185.926 108.93 181.868 92.928 183.366 83.8665" fill="#E1E8F6"/>
<path d="M186.169 83.8665C186.169 83.8665 186.383 101.218 191.505 116.834C196.627 132.451 204.31 160.792 204.31 160.792H198.974L184.677 108.93C184.677 108.93 180.619 92.928 182.117 83.8665" fill="url(#paint106_linear)"/>
<path d="M200.38 153.805H154.412L153.528 155.916H200.885L200.38 153.805Z" fill="#E1E8F6"/>
<path d="M153.531 155.916L152.899 157.171L201.14 156.6L200.509 155.914L153.531 155.916Z" fill="url(#paint107_linear)"/>
<path d="M179.924 146.219L181.187 149.071L197.478 161.392L202.15 160.479" fill="url(#paint108_linear)"/>
<path d="M182.955 145.205L202.151 160.822H198.993L179.924 146.219L182.955 145.205Z" fill="#E1E8F6"/>
<path d="M37.767 84.831C37.767 84.831 36.7 95.0495 34.7789 105.074C32.8578 115.099 23.0415 161.178 23.0415 161.178H26.883L39.2616 100.062C39.2616 100.062 41.3956 88.1081 41.182 84.8279" fill="#E1E8F6"/>
<path d="M38.391 84.831C38.391 84.831 37.324 95.0495 35.4029 105.074C33.4819 115.099 23.6655 161.178 23.6655 161.178H27.507L39.8857 100.062C39.8857 100.062 42.0196 88.1081 41.8061 84.8279" fill="url(#paint109_linear)"/>
<path d="M29.6587 83.8665L58.0439 161.37H61.4591L32.2184 83.8665" fill="#E1E8F6"/>
<path d="M61.4564 161.177L61.962 160.023L33.4213 83.7029H31.2749L61.4564 161.177Z" fill="url(#paint110_linear)"/>
<path d="M22.1393 83.8662C22.1393 83.8662 21.9259 101.218 16.8038 116.834C11.6818 132.45 4 160.791 4 160.791H9.33555L23.6328 108.929C23.6328 108.929 27.6909 92.9278 26.1925 83.8662" fill="#E1E8F6"/>
<path d="M23.3878 83.8665C23.3878 83.8665 23.1744 101.218 18.0524 116.834C12.9303 132.451 5.24854 160.792 5.24854 160.792H10.5841L24.8813 108.93C24.8813 108.93 28.9394 92.928 27.441 83.8665" fill="url(#paint111_linear)"/>
<path d="M9.17462 153.805H55.1442L56.0282 155.915H8.67139L9.17462 153.805Z" fill="#E1E8F6"/>
<path d="M56.0271 155.916L56.6583 157.171L8.41748 156.6L9.04867 155.914L56.0271 155.916Z" fill="url(#paint112_linear)"/>
<path d="M29.6334 146.219L28.3704 149.071L12.0797 161.392L7.40723 160.479" fill="url(#paint113_linear)"/>
<path d="M26.6028 145.205L7.40771 160.822H10.565L29.6339 146.219L26.6028 145.205Z" fill="#E1E8F6"/>
<path d="M136.99 0H196.372L199.456 72.877L138.34 74.0339L136.99 0Z" fill="url(#paint114_linear)"/>
<path d="M194.25 2.69897H139.497L141.039 71.3343L196.564 70.1774L194.25 2.69897Z" fill="url(#paint115_linear)"/>
<path d="M167.934 31.0405C170.969 31.0405 173.429 28.5804 173.429 25.5458C173.429 22.5111 170.969 20.051 167.934 20.051C164.9 20.051 162.439 22.5111 162.439 25.5458C162.439 28.5804 164.9 31.0405 167.934 31.0405Z" fill="white"/>
<path d="M167.934 51.8625C170.969 51.8625 173.429 49.4025 173.429 46.3678C173.429 43.3331 170.969 40.873 167.934 40.873C164.9 40.873 162.439 43.3331 162.439 46.3678C162.439 49.4025 164.9 51.8625 167.934 51.8625Z" fill="white"/>
<path d="M159.775 68.0864C159.775 68.0864 160.999 60.1318 166.709 56.5625" stroke="#40B371"/>
<path d="M164.709 57.8659C164.378 57.3298 164.163 56.7297 164.08 56.1049C164.005 55.6681 164.047 55.2174 164.421 55.1937C165.352 55.1349 164.803 57.7655 164.709 57.8659Z" fill="url(#paint116_linear)"/>
<path d="M163.544 59.3225C163.213 58.7863 162.998 58.1862 162.915 57.5615C162.84 57.1246 162.882 56.674 163.256 56.6503C164.187 56.5914 163.638 59.222 163.544 59.3225Z" fill="url(#paint117_linear)"/>
<path d="M162.204 61.1904C161.753 60.7504 161.4 60.2199 161.168 59.6339C160.989 59.2282 160.922 58.7806 161.278 58.6672C162.168 58.3849 162.271 61.0701 162.204 61.1904Z" fill="url(#paint118_linear)"/>
<path d="M161.109 63.2944C160.601 62.9217 160.178 62.4459 159.867 61.8982C159.633 61.5215 159.504 61.0879 159.841 60.926C160.682 60.5225 161.159 63.166 161.109 63.2944Z" fill="url(#paint119_linear)"/>
<path d="M165.215 57.8462C165.834 57.7289 166.471 57.7439 167.084 57.89C167.519 57.9764 167.925 58.1778 167.813 58.535C167.534 59.4255 165.275 57.9701 165.215 57.8462Z" fill="url(#paint120_linear)"/>
<path d="M163.466 59.5937C164.086 59.4765 164.723 59.4914 165.336 59.6376C165.771 59.7239 166.176 59.9253 166.064 60.2825C165.785 61.1731 163.526 59.7177 163.466 59.5937Z" fill="url(#paint121_linear)"/>
<path d="M162.194 61.4729C162.767 61.209 163.388 61.0691 164.019 61.0623C164.461 61.0407 164.904 61.1378 164.882 61.5114C164.827 62.443 162.283 61.5786 162.194 61.4729Z" fill="url(#paint122_linear)"/>
<path d="M161.14 63.5754C161.67 63.2349 162.266 63.0102 162.89 62.9162C163.325 62.8335 163.776 62.8685 163.807 63.2416C163.881 64.1718 161.242 63.6679 161.14 63.5754Z" fill="url(#paint123_linear)"/>
<path d="M165.968 56.8266C165.968 56.8266 166.174 54.8912 167.638 54.2463C169.102 53.6013 169.923 51.104 169.923 51.104C169.923 51.104 170.637 56.0675 165.673 57.2812" fill="url(#paint124_linear)"/>
<path d="M163.182 67.4279C165.94 67.4279 168.176 66.5893 168.176 65.5549C168.176 64.5205 165.94 63.6819 163.182 63.6819C160.423 63.6819 158.187 64.5205 158.187 65.5549C158.187 66.5893 160.423 67.4279 163.182 67.4279Z" fill="url(#paint125_linear)"/>
<path d="M159.571 71.8331C159.571 71.8331 160.382 66.5688 164.16 64.2063" stroke="#40B371"/>
<path d="M162.837 65.0691C162.618 64.7143 162.476 64.3171 162.421 63.9036C162.371 63.6145 162.399 63.3159 162.646 63.3006C163.263 63.2616 162.9 65.0025 162.837 65.0691Z" fill="url(#paint126_linear)"/>
<path d="M162.066 66.0324C161.847 65.6776 161.705 65.2805 161.65 64.867C161.6 64.5779 161.628 64.2793 161.875 64.264C162.492 64.225 162.129 65.9659 162.066 66.0324Z" fill="url(#paint127_linear)"/>
<path d="M161.178 67.2693C160.88 66.9781 160.646 66.627 160.492 66.2392C160.374 65.9706 160.329 65.6741 160.565 65.5995C161.154 65.4125 161.223 67.1896 161.178 67.2693Z" fill="url(#paint128_linear)"/>
<path d="M160.454 68.6611C160.118 68.4144 159.837 68.0994 159.631 67.7367C159.477 67.4873 159.391 67.1999 159.614 67.0931C160.171 66.8259 160.487 68.5759 160.454 68.6611Z" fill="url(#paint129_linear)"/>
<path d="M163.171 65.0556C163.581 64.978 164.002 64.9879 164.408 65.0846C164.696 65.142 164.964 65.2753 164.89 65.5113C164.706 66.1008 163.211 65.138 163.171 65.0556Z" fill="url(#paint130_linear)"/>
<path d="M162.014 66.2126C162.424 66.135 162.846 66.1449 163.251 66.2416C163.539 66.299 163.808 66.4322 163.734 66.6683C163.549 67.2578 162.054 66.295 162.014 66.2126Z" fill="url(#paint131_linear)"/>
<path d="M161.172 67.4558C161.551 67.2811 161.962 67.1885 162.379 67.184C162.672 67.17 162.965 67.2341 162.95 67.4811C162.914 68.0978 161.23 67.5261 161.172 67.4558Z" fill="url(#paint132_linear)"/>
<path d="M160.474 68.8469C160.825 68.6215 161.219 68.4728 161.632 68.4106C161.92 68.3561 162.219 68.3791 162.239 68.6258C162.288 69.2415 160.541 68.9084 160.474 68.8469Z" fill="url(#paint133_linear)"/>
<path d="M163.67 64.381C163.707 64.0296 163.827 63.6919 164.018 63.3952C164.21 63.0986 164.47 62.8513 164.775 62.6734C165.744 62.2483 166.287 60.5938 166.287 60.5938C166.287 60.5938 166.76 63.8784 163.478 64.6819" fill="url(#paint134_linear)"/>
<path d="M163.308 75.9604C162.42 75.9624 161.541 75.7899 160.719 75.4528C159.932 75.1314 159.214 74.6619 158.605 74.0699C158 73.4855 157.516 72.788 157.179 72.0171C156.837 71.2313 156.659 70.3838 156.656 69.5266C156.653 68.6694 156.825 67.8207 157.162 67.0325C157.494 66.2646 157.97 65.5671 158.563 64.9772C159.826 66.2215 161.53 66.9147 163.303 66.9051C165.078 66.9146 166.785 66.2194 168.048 64.9722C168.642 65.5552 169.118 66.2482 169.447 67.0125C169.787 67.8032 169.961 68.655 169.96 69.5156C169.958 70.3762 169.78 71.2273 169.437 72.0165C169.1 72.7874 168.616 73.4848 168.011 74.0693C167.402 74.662 166.684 75.1321 165.897 75.4541C165.075 75.7906 164.196 75.9627 163.308 75.9604Z" fill="url(#paint135_linear)"/>
<path d="M160.295 66.2143C160.295 66.2143 159.483 60.9493 155.705 58.5862" stroke="#40B371"/>
<path d="M157.028 59.449C157.247 59.0942 157.389 58.6971 157.444 58.2836C157.494 57.9945 157.466 57.6959 157.219 57.6806C156.602 57.6416 156.965 59.3825 157.028 59.449Z" fill="url(#paint136_linear)"/>
<path d="M157.799 60.4131C158.018 60.0583 158.16 59.6612 158.215 59.2477C158.265 58.9586 158.237 58.66 157.99 58.6447C157.373 58.6057 157.736 60.3466 157.799 60.4131Z" fill="url(#paint137_linear)"/>
<path d="M158.687 61.6494C158.985 61.3582 159.219 61.0072 159.373 60.6193C159.491 60.3508 159.536 60.0543 159.3 59.9797C158.711 59.7927 158.642 61.5697 158.687 61.6494Z" fill="url(#paint138_linear)"/>
<path d="M159.41 63.0422C159.746 62.7955 160.027 62.4805 160.233 62.1178C160.387 61.8683 160.473 61.581 160.25 61.4742C159.693 61.2069 159.377 62.957 159.41 63.0422Z" fill="url(#paint139_linear)"/>
<path d="M156.693 59.4354C156.283 59.3578 155.862 59.3676 155.456 59.4643C155.168 59.5218 154.899 59.655 154.974 59.891C155.158 60.4806 156.653 59.5178 156.693 59.4354Z" fill="url(#paint140_linear)"/>
<path d="M157.85 60.5924C157.44 60.5147 157.018 60.5246 156.613 60.6213C156.325 60.6787 156.056 60.812 156.13 61.048C156.315 61.6375 157.81 60.6747 157.85 60.5924Z" fill="url(#paint141_linear)"/>
<path d="M158.692 61.8367C158.313 61.662 157.902 61.5694 157.485 61.5649C157.192 61.5508 156.899 61.615 156.914 61.862C156.95 62.4786 158.634 61.907 158.692 61.8367Z" fill="url(#paint142_linear)"/>
<path d="M159.391 63.2279C159.04 63.0024 158.645 62.8536 158.233 62.7913C157.945 62.7368 157.646 62.7597 157.626 63.0063C157.576 63.622 159.323 63.2895 159.391 63.2279Z" fill="url(#paint143_linear)"/>
<path d="M156.194 58.7602C156.157 58.4087 156.038 58.0709 155.846 57.7742C155.654 57.4774 155.395 57.23 155.089 57.0521C154.12 56.6269 153.576 54.9724 153.576 54.9724C153.576 54.9724 153.104 58.2577 156.386 59.0612" fill="url(#paint144_linear)"/>
</g>
<defs>
<filter id="filter0_d" x="0" y="0" width="209.559" height="169.392" filterUnits="userSpaceOnUse" color-interpolation-filters="sRGB">
<feFlood flood-opacity="0" result="BackgroundImageFix"/>
<feColorMatrix in="SourceAlpha" type="matrix" values="0 0 0 0 0 0 0 0 0 0 0 0 0 0 0 0 0 0 127 0" result="hardAlpha"/>
<feOffset dy="4"/>
<feGaussianBlur stdDeviation="2"/>
<feComposite in2="hardAlpha" operator="out"/>
<feColorMatrix type="matrix" values="0 0 0 0 0 0 0 0 0 0 0 0 0 0 0 0 0 0 0.25 0"/>
<feBlend mode="normal" in2="BackgroundImageFix" result="effect1_dropShadow"/>
<feBlend mode="normal" in="SourceGraphic" in2="effect1_dropShadow" result="shape"/>
</filter>
<linearGradient id="paint0_linear" x1="48.5941" y1="25.9638" x2="37.6462" y2="48.2815" gradientUnits="userSpaceOnUse">
<stop stop-color="#80E6A0"/>
<stop offset="0.374" stop-color="#3EC177"/>
<stop offset="0.584" stop-color="#40C278"/>
<stop offset="1" stop-color="#3EC177"/>
</linearGradient>
<linearGradient id="paint1_linear" x1="50.1844" y1="31.7408" x2="33.8401" y2="50.4558" gradientUnits="userSpaceOnUse">
<stop stop-color="#80E6A0"/>
<stop offset="0.374" stop-color="#3EC177"/>
<stop offset="0.584" stop-color="#40C278"/>
<stop offset="1" stop-color="#3EC177"/>
</linearGradient>
<linearGradient id="paint2_linear" x1="49.0223" y1="27.7363" x2="38.0744" y2="50.054" gradientUnits="userSpaceOnUse">
<stop stop-color="#80E6A0"/>
<stop offset="0.374" stop-color="#3EC177"/>
<stop offset="0.584" stop-color="#40C278"/>
<stop offset="1" stop-color="#3EC177"/>
</linearGradient>
<linearGradient id="paint3_linear" x1="50.139" y1="33.5636" x2="33.7947" y2="52.2785" gradientUnits="userSpaceOnUse">
<stop stop-color="#80E6A0"/>
<stop offset="0.374" stop-color="#3EC177"/>
<stop offset="0.584" stop-color="#40C278"/>
<stop offset="1" stop-color="#3EC177"/>
</linearGradient>
<linearGradient id="paint4_linear" x1="39.8632" y1="39.62" x2="31.8241" y2="16.1093" gradientUnits="userSpaceOnUse">
<stop stop-color="#80E6A0"/>
<stop offset="0.374" stop-color="#3EC177"/>
<stop offset="0.584" stop-color="#40C278"/>
<stop offset="1" stop-color="#3EC177"/>
</linearGradient>
<linearGradient id="paint5_linear" x1="38.2195" y1="42.6704" x2="36.5393" y2="17.8801" gradientUnits="userSpaceOnUse">
<stop stop-color="#80E6A0"/>
<stop offset="0.374" stop-color="#3EC177"/>
<stop offset="0.584" stop-color="#40C278"/>
<stop offset="1" stop-color="#3EC177"/>
</linearGradient>
<linearGradient id="paint6_linear" x1="40.0468" y1="41.5456" x2="32.0077" y2="18.0348" gradientUnits="userSpaceOnUse">
<stop stop-color="#80E6A0"/>
<stop offset="0.374" stop-color="#3EC177"/>
<stop offset="0.584" stop-color="#40C278"/>
<stop offset="1" stop-color="#3EC177"/>
</linearGradient>
<linearGradient id="paint7_linear" x1="37.8982" y1="44.5779" x2="36.218" y2="19.7876" gradientUnits="userSpaceOnUse">
<stop stop-color="#80E6A0"/>
<stop offset="0.374" stop-color="#3EC177"/>
<stop offset="0.584" stop-color="#40C278"/>
<stop offset="1" stop-color="#3EC177"/>
</linearGradient>
<linearGradient id="paint8_linear" x1="43.5093" y1="70.7457" x2="24.536" y2="36.3119" gradientUnits="userSpaceOnUse">
<stop stop-color="#80E6A0"/>
<stop offset="0.374" stop-color="#3EC177"/>
<stop offset="0.584" stop-color="#40C278"/>
<stop offset="1" stop-color="#3EC177"/>
</linearGradient>
<linearGradient id="paint9_linear" x1="42.8833" y1="68.9271" x2="23.91" y2="34.4933" gradientUnits="userSpaceOnUse">
<stop stop-color="#80E6A0"/>
<stop offset="0.374" stop-color="#3EC177"/>
<stop offset="0.584" stop-color="#40C278"/>
<stop offset="1" stop-color="#3EC177"/>
</linearGradient>
<linearGradient id="paint10_linear" x1="42.4248" y1="66.8331" x2="23.4515" y2="32.3993" gradientUnits="userSpaceOnUse">
<stop stop-color="#80E6A0"/>
<stop offset="0.374" stop-color="#3EC177"/>
<stop offset="0.584" stop-color="#40C278"/>
<stop offset="1" stop-color="#3EC177"/>
</linearGradient>
<linearGradient id="paint11_linear" x1="42.2571" y1="59.8525" x2="29.9579" y2="37.4696" gradientUnits="userSpaceOnUse">
<stop stop-color="#80E6A0"/>
<stop offset="0.374" stop-color="#3EC177"/>
<stop offset="0.584" stop-color="#40C278"/>
<stop offset="1" stop-color="#3EC177"/>
</linearGradient>
<linearGradient id="paint12_linear" x1="41.8743" y1="57.8808" x2="29.575" y2="35.498" gradientUnits="userSpaceOnUse">
<stop stop-color="#80E6A0"/>
<stop offset="0.374" stop-color="#3EC177"/>
<stop offset="0.584" stop-color="#40C278"/>
<stop offset="1" stop-color="#3EC177"/>
</linearGradient>
<linearGradient id="paint13_linear" x1="41.4925" y1="55.9096" x2="29.1932" y2="33.5268" gradientUnits="userSpaceOnUse">
<stop stop-color="#80E6A0"/>
<stop offset="0.374" stop-color="#3EC177"/>
<stop offset="0.584" stop-color="#40C278"/>
<stop offset="1" stop-color="#3EC177"/>
</linearGradient>
<linearGradient id="paint14_linear" x1="41.447" y1="53.3876" x2="29.1478" y2="31.0048" gradientUnits="userSpaceOnUse">
<stop stop-color="#80E6A0"/>
<stop offset="0.374" stop-color="#3EC177"/>
<stop offset="0.584" stop-color="#40C278"/>
<stop offset="1" stop-color="#3EC177"/>
</linearGradient>
<linearGradient id="paint15_linear" x1="34.6073" y1="46.091" x2="45.071" y2="22.7935" gradientUnits="userSpaceOnUse">
<stop stop-color="#80E6A0"/>
<stop offset="0.374" stop-color="#3EC177"/>
<stop offset="0.584" stop-color="#40C278"/>
<stop offset="1" stop-color="#3EC177"/>
</linearGradient>
<linearGradient id="paint16_linear" x1="34.745" y1="44.1349" x2="45.2087" y2="20.8374" gradientUnits="userSpaceOnUse">
<stop stop-color="#80E6A0"/>
<stop offset="0.374" stop-color="#3EC177"/>
<stop offset="0.584" stop-color="#40C278"/>
<stop offset="1" stop-color="#3EC177"/>
</linearGradient>
<linearGradient id="paint17_linear" x1="40.3772" y1="51.6762" x2="28.078" y2="29.2934" gradientUnits="userSpaceOnUse">
<stop stop-color="#80E6A0"/>
<stop offset="0.374" stop-color="#3EC177"/>
<stop offset="0.584" stop-color="#40C278"/>
<stop offset="1" stop-color="#3EC177"/>
</linearGradient>
<linearGradient id="paint18_linear" x1="37.908" y1="35.1342" x2="60.8261" y2="46.4046" gradientUnits="userSpaceOnUse">
<stop stop-color="#80E6A0"/>
<stop offset="0.374" stop-color="#3EC177"/>
<stop offset="0.584" stop-color="#40C278"/>
<stop offset="1" stop-color="#3EC177"/>
</linearGradient>
<linearGradient id="paint19_linear" x1="40.4983" y1="54.3198" x2="28.1991" y2="31.9369" gradientUnits="userSpaceOnUse">
<stop stop-color="#80E6A0"/>
<stop offset="0.374" stop-color="#3EC177"/>
<stop offset="0.584" stop-color="#40C278"/>
<stop offset="1" stop-color="#3EC177"/>
</linearGradient>
<linearGradient id="paint20_linear" x1="40.5296" y1="49.2004" x2="28.2303" y2="26.8175" gradientUnits="userSpaceOnUse">
<stop stop-color="#80E6A0"/>
<stop offset="0.374" stop-color="#3EC177"/>
<stop offset="0.584" stop-color="#40C278"/>
<stop offset="1" stop-color="#3EC177"/>
</linearGradient>
<linearGradient id="paint21_linear" x1="40.5447" y1="47.3205" x2="28.2454" y2="24.9376" gradientUnits="userSpaceOnUse">
<stop stop-color="#80E6A0"/>
<stop offset="0.374" stop-color="#3EC177"/>
<stop offset="0.584" stop-color="#40C278"/>
<stop offset="1" stop-color="#3EC177"/>
</linearGradient>
<linearGradient id="paint22_linear" x1="36.1725" y1="31.6825" x2="61.2274" y2="36.6333" gradientUnits="userSpaceOnUse">
<stop stop-color="#80E6A0"/>
<stop offset="0.374" stop-color="#3EC177"/>
<stop offset="0.584" stop-color="#40C278"/>
<stop offset="1" stop-color="#3EC177"/>
</linearGradient>
<linearGradient id="paint23_linear" x1="41.6638" y1="68.5105" x2="26.0787" y2="36.2235" gradientUnits="userSpaceOnUse">
<stop stop-color="#80E6A0"/>
<stop offset="0.374" stop-color="#3EC177"/>
<stop offset="0.584" stop-color="#40C278"/>
<stop offset="1" stop-color="#3EC177"/>
</linearGradient>
<linearGradient id="paint24_linear" x1="41.2814" y1="66.5393" x2="25.6963" y2="34.2523" gradientUnits="userSpaceOnUse">
<stop stop-color="#80E6A0"/>
<stop offset="0.374" stop-color="#3EC177"/>
<stop offset="0.584" stop-color="#40C278"/>
<stop offset="1" stop-color="#3EC177"/>
</linearGradient>
<linearGradient id="paint25_linear" x1="41.0791" y1="57.564" x2="31.3831" y2="37.4867" gradientUnits="userSpaceOnUse">
<stop stop-color="#80E6A0"/>
<stop offset="0.374" stop-color="#3EC177"/>
<stop offset="0.584" stop-color="#40C278"/>
<stop offset="1" stop-color="#3EC177"/>
</linearGradient>
<linearGradient id="paint26_linear" x1="40.8803" y1="56.158" x2="31.1844" y2="36.0807" gradientUnits="userSpaceOnUse">
<stop stop-color="#80E6A0"/>
<stop offset="0.374" stop-color="#3EC177"/>
<stop offset="0.584" stop-color="#40C278"/>
<stop offset="1" stop-color="#3EC177"/>
</linearGradient>
<linearGradient id="paint27_linear" x1="40.499" y1="54.1866" x2="30.803" y2="34.1093" gradientUnits="userSpaceOnUse">
<stop stop-color="#80E6A0"/>
<stop offset="0.374" stop-color="#3EC177"/>
<stop offset="0.584" stop-color="#40C278"/>
<stop offset="1" stop-color="#3EC177"/>
</linearGradient>
<linearGradient id="paint28_linear" x1="41.1168" y1="61.568" x2="28.858" y2="36.168" gradientUnits="userSpaceOnUse">
<stop stop-color="#80E6A0"/>
<stop offset="0.374" stop-color="#3EC177"/>
<stop offset="0.584" stop-color="#40C278"/>
<stop offset="1" stop-color="#3EC177"/>
</linearGradient>
<linearGradient id="paint29_linear" x1="126.261" y1="130.092" x2="126.261" y2="137.507" gradientUnits="userSpaceOnUse">
<stop stop-color="#427EE3"/>
<stop offset="1" stop-color="#123CBC"/>
</linearGradient>
<linearGradient id="paint30_linear" x1="129.877" y1="134.983" x2="129.877" y2="160.567" gradientUnits="userSpaceOnUse">
<stop stop-color="#427EE3"/>
<stop offset="1" stop-color="#123CBC"/>
</linearGradient>
<linearGradient id="paint31_linear" x1="93.2997" y1="129.468" x2="93.2997" y2="136.883" gradientUnits="userSpaceOnUse">
<stop stop-color="#427EE3"/>
<stop offset="1" stop-color="#123CBC"/>
</linearGradient>
<linearGradient id="paint32_linear" x1="89.9326" y1="134.359" x2="89.9326" y2="159.943" gradientUnits="userSpaceOnUse">
<stop stop-color="#427EE3"/>
<stop offset="1" stop-color="#123CBC"/>
</linearGradient>
<linearGradient id="paint33_linear" x1="97.8538" y1="128.789" x2="97.8538" y2="135.067" gradientUnits="userSpaceOnUse">
<stop stop-color="#427EE3"/>
<stop offset="1" stop-color="#123CBC"/>
</linearGradient>
<linearGradient id="paint34_linear" x1="120.749" y1="128.789" x2="120.749" y2="135.067" gradientUnits="userSpaceOnUse">
<stop stop-color="#427EE3"/>
<stop offset="1" stop-color="#123CBC"/>
</linearGradient>
<linearGradient id="paint35_linear" x1="70.234" y1="41.7016" x2="48.9705" y2="47.7318" gradientUnits="userSpaceOnUse">
<stop stop-color="#80E6A0"/>
<stop offset="0.374" stop-color="#3EC177"/>
<stop offset="0.584" stop-color="#40C278"/>
<stop offset="1" stop-color="#3EC177"/>
</linearGradient>
<linearGradient id="paint36_linear" x1="67.3739" y1="46.2022" x2="45.2307" y2="46.5174" gradientUnits="userSpaceOnUse">
<stop stop-color="#80E6A0"/>
<stop offset="0.374" stop-color="#3EC177"/>
<stop offset="0.584" stop-color="#40C278"/>
<stop offset="1" stop-color="#3EC177"/>
</linearGradient>
<linearGradient id="paint37_linear" x1="69.3165" y1="43.0403" x2="48.053" y2="49.0704" gradientUnits="userSpaceOnUse">
<stop stop-color="#80E6A0"/>
<stop offset="0.374" stop-color="#3EC177"/>
<stop offset="0.584" stop-color="#40C278"/>
<stop offset="1" stop-color="#3EC177"/>
</linearGradient>
<linearGradient id="paint38_linear" x1="66.1414" y1="47.2573" x2="43.9982" y2="47.5726" gradientUnits="userSpaceOnUse">
<stop stop-color="#80E6A0"/>
<stop offset="0.374" stop-color="#3EC177"/>
<stop offset="0.584" stop-color="#40C278"/>
<stop offset="1" stop-color="#3EC177"/>
</linearGradient>
<linearGradient id="paint39_linear" x1="56.0035" y1="44.0632" x2="66.7991" y2="24.7273" gradientUnits="userSpaceOnUse">
<stop stop-color="#80E6A0"/>
<stop offset="0.374" stop-color="#3EC177"/>
<stop offset="0.584" stop-color="#40C278"/>
<stop offset="1" stop-color="#3EC177"/>
</linearGradient>
<linearGradient id="paint40_linear" x1="53.0068" y1="44.7902" x2="68.439" y2="28.9073" gradientUnits="userSpaceOnUse">
<stop stop-color="#80E6A0"/>
<stop offset="0.374" stop-color="#3EC177"/>
<stop offset="0.584" stop-color="#40C278"/>
<stop offset="1" stop-color="#3EC177"/>
</linearGradient>
<linearGradient id="paint41_linear" x1="54.8395" y1="45.3308" x2="65.635" y2="25.9949" gradientUnits="userSpaceOnUse">
<stop stop-color="#80E6A0"/>
<stop offset="0.374" stop-color="#3EC177"/>
<stop offset="0.584" stop-color="#40C278"/>
<stop offset="1" stop-color="#3EC177"/>
</linearGradient>
<linearGradient id="paint42_linear" x1="51.5541" y1="45.713" x2="66.9863" y2="29.8301" gradientUnits="userSpaceOnUse">
<stop stop-color="#80E6A0"/>
<stop offset="0.374" stop-color="#3EC177"/>
<stop offset="0.584" stop-color="#40C278"/>
<stop offset="1" stop-color="#3EC177"/>
</linearGradient>
<linearGradient id="paint43_linear" x1="37.5968" y1="65.0051" x2="49.0752" y2="31.9526" gradientUnits="userSpaceOnUse">
<stop stop-color="#80E6A0"/>
<stop offset="0.374" stop-color="#3EC177"/>
<stop offset="0.584" stop-color="#40C278"/>
<stop offset="1" stop-color="#3EC177"/>
</linearGradient>
<linearGradient id="paint44_linear" x1="38.4264" y1="63.5075" x2="49.9048" y2="30.455" gradientUnits="userSpaceOnUse">
<stop stop-color="#80E6A0"/>
<stop offset="0.374" stop-color="#3EC177"/>
<stop offset="0.584" stop-color="#40C278"/>
<stop offset="1" stop-color="#3EC177"/>
</linearGradient>
<linearGradient id="paint45_linear" x1="39.5377" y1="61.9577" x2="51.0162" y2="28.9052" gradientUnits="userSpaceOnUse">
<stop stop-color="#80E6A0"/>
<stop offset="0.374" stop-color="#3EC177"/>
<stop offset="0.584" stop-color="#40C278"/>
<stop offset="1" stop-color="#3EC177"/>
</linearGradient>
<linearGradient id="paint46_linear" x1="44.0643" y1="57.6863" x2="51.5113" y2="36.2529" gradientUnits="userSpaceOnUse">
<stop stop-color="#80E6A0"/>
<stop offset="0.374" stop-color="#3EC177"/>
<stop offset="0.584" stop-color="#40C278"/>
<stop offset="1" stop-color="#3EC177"/>
</linearGradient>
<linearGradient id="paint47_linear" x1="45.14" y1="56.26" x2="52.587" y2="34.8266" gradientUnits="userSpaceOnUse">
<stop stop-color="#80E6A0"/>
<stop offset="0.374" stop-color="#3EC177"/>
<stop offset="0.584" stop-color="#40C278"/>
<stop offset="1" stop-color="#3EC177"/>
</linearGradient>
<linearGradient id="paint48_linear" x1="46.2167" y1="54.8333" x2="53.6637" y2="33.3999" gradientUnits="userSpaceOnUse">
<stop stop-color="#80E6A0"/>
<stop offset="0.374" stop-color="#3EC177"/>
<stop offset="0.584" stop-color="#40C278"/>
<stop offset="1" stop-color="#3EC177"/>
</linearGradient>
<linearGradient id="paint49_linear" x1="47.8568" y1="53.3018" x2="55.3038" y2="31.8684" gradientUnits="userSpaceOnUse">
<stop stop-color="#80E6A0"/>
<stop offset="0.374" stop-color="#3EC177"/>
<stop offset="0.584" stop-color="#40C278"/>
<stop offset="1" stop-color="#3EC177"/>
</linearGradient>
<linearGradient id="paint50_linear" x1="48.6109" y1="44.4417" x2="70.207" y2="37.4808" gradientUnits="userSpaceOnUse">
<stop stop-color="#80E6A0"/>
<stop offset="0.374" stop-color="#3EC177"/>
<stop offset="0.584" stop-color="#40C278"/>
<stop offset="1" stop-color="#3EC177"/>
</linearGradient>
<linearGradient id="paint51_linear" x1="49.9864" y1="43.3684" x2="71.5825" y2="36.4075" gradientUnits="userSpaceOnUse">
<stop stop-color="#80E6A0"/>
<stop offset="0.374" stop-color="#3EC177"/>
<stop offset="0.584" stop-color="#40C278"/>
<stop offset="1" stop-color="#3EC177"/>
</linearGradient>
<linearGradient id="paint52_linear" x1="48.3524" y1="51.5752" x2="55.7994" y2="30.1418" gradientUnits="userSpaceOnUse">
<stop stop-color="#80E6A0"/>
<stop offset="0.374" stop-color="#3EC177"/>
<stop offset="0.584" stop-color="#40C278"/>
<stop offset="1" stop-color="#3EC177"/>
</linearGradient>
<linearGradient id="paint53_linear" x1="57.8097" y1="40.1045" x2="64.0126" y2="61.9305" gradientUnits="userSpaceOnUse">
<stop stop-color="#80E6A0"/>
<stop offset="0.374" stop-color="#3EC177"/>
<stop offset="0.584" stop-color="#40C278"/>
<stop offset="1" stop-color="#3EC177"/>
</linearGradient>
<linearGradient id="paint54_linear" x1="46.6771" y1="53.2303" x2="54.1241" y2="31.7968" gradientUnits="userSpaceOnUse">
<stop stop-color="#80E6A0"/>
<stop offset="0.374" stop-color="#3EC177"/>
<stop offset="0.584" stop-color="#40C278"/>
<stop offset="1" stop-color="#3EC177"/>
</linearGradient>
<linearGradient id="paint55_linear" x1="50.0804" y1="50.2022" x2="57.5274" y2="28.7688" gradientUnits="userSpaceOnUse">
<stop stop-color="#80E6A0"/>
<stop offset="0.374" stop-color="#3EC177"/>
<stop offset="0.584" stop-color="#40C278"/>
<stop offset="1" stop-color="#3EC177"/>
</linearGradient>
<linearGradient id="paint56_linear" x1="51.3329" y1="49.093" x2="58.7799" y2="27.6596" gradientUnits="userSpaceOnUse">
<stop stop-color="#80E6A0"/>
<stop offset="0.374" stop-color="#3EC177"/>
<stop offset="0.584" stop-color="#40C278"/>
<stop offset="1" stop-color="#3EC177"/>
</linearGradient>
<linearGradient id="paint57_linear" x1="59.0616" y1="36.9022" x2="70.7052" y2="56.3772" gradientUnits="userSpaceOnUse">
<stop stop-color="#80E6A0"/>
<stop offset="0.374" stop-color="#3EC177"/>
<stop offset="0.584" stop-color="#40C278"/>
<stop offset="1" stop-color="#3EC177"/>
</linearGradient>
<linearGradient id="paint58_linear" x1="37.9784" y1="62.451" x2="50.0551" y2="32.9252" gradientUnits="userSpaceOnUse">
<stop stop-color="#80E6A0"/>
<stop offset="0.374" stop-color="#3EC177"/>
<stop offset="0.584" stop-color="#40C278"/>
<stop offset="1" stop-color="#3EC177"/>
</linearGradient>
<linearGradient id="paint59_linear" x1="39.054" y1="61.0247" x2="51.1308" y2="31.4989" gradientUnits="userSpaceOnUse">
<stop stop-color="#80E6A0"/>
<stop offset="0.374" stop-color="#3EC177"/>
<stop offset="0.584" stop-color="#40C278"/>
<stop offset="1" stop-color="#3EC177"/>
</linearGradient>
<linearGradient id="paint60_linear" x1="44.8683" y1="55.5492" x2="52.3746" y2="37.1826" gradientUnits="userSpaceOnUse">
<stop stop-color="#80E6A0"/>
<stop offset="0.374" stop-color="#3EC177"/>
<stop offset="0.584" stop-color="#40C278"/>
<stop offset="1" stop-color="#3EC177"/>
</linearGradient>
<linearGradient id="paint61_linear" x1="45.6793" y1="54.5809" x2="53.1856" y2="36.2143" gradientUnits="userSpaceOnUse">
<stop stop-color="#80E6A0"/>
<stop offset="0.374" stop-color="#3EC177"/>
<stop offset="0.584" stop-color="#40C278"/>
<stop offset="1" stop-color="#3EC177"/>
</linearGradient>
<linearGradient id="paint62_linear" x1="46.7564" y1="53.1539" x2="54.2627" y2="34.7873" gradientUnits="userSpaceOnUse">
<stop stop-color="#80E6A0"/>
<stop offset="0.374" stop-color="#3EC177"/>
<stop offset="0.584" stop-color="#40C278"/>
<stop offset="1" stop-color="#3EC177"/>
</linearGradient>
<linearGradient id="paint63_linear" x1="42.2388" y1="57.9608" x2="51.7334" y2="34.7169" gradientUnits="userSpaceOnUse">
<stop stop-color="#80E6A0"/>
<stop offset="0.374" stop-color="#3EC177"/>
<stop offset="0.584" stop-color="#40C278"/>
<stop offset="1" stop-color="#3EC177"/>
</linearGradient>
<linearGradient id="paint64_linear" x1="35.6223" y1="46.4827" x2="34.1675" y2="53.3232" gradientUnits="userSpaceOnUse">
<stop stop-color="#FFCC59"/>
<stop offset="1" stop-color="#FF7D45"/>
</linearGradient>
<linearGradient id="paint65_linear" x1="35.098" y1="59.1885" x2="35.098" y2="51.4124" gradientUnits="userSpaceOnUse">
<stop stop-color="#E5EDFC"/>
<stop offset="1" stop-color="white"/>
</linearGradient>
<linearGradient id="paint66_linear" x1="4.90674" y1="71.3345" x2="5.35216" y2="95.6174" gradientUnits="userSpaceOnUse">
<stop stop-color="#E5EDFC"/>
<stop offset="1" stop-color="white"/>
</linearGradient>
<linearGradient id="paint67_linear" x1="72.1893" y1="22.8865" x2="43.9287" y2="40.4383" gradientUnits="userSpaceOnUse">
<stop stop-color="#80E6A0"/>
<stop offset="0.374" stop-color="#3EC177"/>
<stop offset="0.584" stop-color="#40C278"/>
<stop offset="1" stop-color="#3EC177"/>
</linearGradient>
<linearGradient id="paint68_linear" x1="69.9014" y1="30.5666" x2="38.0808" y2="40.2184" gradientUnits="userSpaceOnUse">
<stop stop-color="#80E6A0"/>
<stop offset="0.374" stop-color="#3EC177"/>
<stop offset="0.584" stop-color="#40C278"/>
<stop offset="1" stop-color="#3EC177"/>
</linearGradient>
<linearGradient id="paint69_linear" x1="71.4188" y1="25.2002" x2="43.1582" y2="42.7521" gradientUnits="userSpaceOnUse">
<stop stop-color="#80E6A0"/>
<stop offset="0.374" stop-color="#3EC177"/>
<stop offset="0.584" stop-color="#40C278"/>
<stop offset="1" stop-color="#3EC177"/>
</linearGradient>
<linearGradient id="paint70_linear" x1="68.5576" y1="32.602" x2="36.737" y2="42.2538" gradientUnits="userSpaceOnUse">
<stop stop-color="#80E6A0"/>
<stop offset="0.374" stop-color="#3EC177"/>
<stop offset="0.584" stop-color="#40C278"/>
<stop offset="1" stop-color="#3EC177"/>
</linearGradient>
<linearGradient id="paint71_linear" x1="52.5956" y1="32.1907" x2="60.1422" y2="-0.193824" gradientUnits="userSpaceOnUse">
<stop stop-color="#80E6A0"/>
<stop offset="0.374" stop-color="#3EC177"/>
<stop offset="0.584" stop-color="#40C278"/>
<stop offset="1" stop-color="#3EC177"/>
</linearGradient>
<linearGradient id="paint72_linear" x1="48.5686" y1="34.4823" x2="64.2398" y2="5.15444" gradientUnits="userSpaceOnUse">
<stop stop-color="#80E6A0"/>
<stop offset="0.374" stop-color="#3EC177"/>
<stop offset="0.584" stop-color="#40C278"/>
<stop offset="1" stop-color="#3EC177"/>
</linearGradient>
<linearGradient id="paint73_linear" x1="51.4384" y1="34.5039" x2="58.985" y2="2.11941" gradientUnits="userSpaceOnUse">
<stop stop-color="#80E6A0"/>
<stop offset="0.374" stop-color="#3EC177"/>
<stop offset="0.584" stop-color="#40C278"/>
<stop offset="1" stop-color="#3EC177"/>
</linearGradient>
<linearGradient id="paint74_linear" x1="46.8528" y1="36.4176" x2="62.524" y2="7.08974" gradientUnits="userSpaceOnUse">
<stop stop-color="#80E6A0"/>
<stop offset="0.374" stop-color="#3EC177"/>
<stop offset="0.584" stop-color="#40C278"/>
<stop offset="1" stop-color="#3EC177"/>
</linearGradient>
<linearGradient id="paint75_linear" x1="34.6779" y1="70.0645" x2="37.5666" y2="17.5662" gradientUnits="userSpaceOnUse">
<stop stop-color="#80E6A0"/>
<stop offset="0.374" stop-color="#3EC177"/>
<stop offset="0.584" stop-color="#40C278"/>
<stop offset="1" stop-color="#3EC177"/>
</linearGradient>
<linearGradient id="paint76_linear" x1="35.2555" y1="67.5575" x2="38.1442" y2="15.0591" gradientUnits="userSpaceOnUse">
<stop stop-color="#80E6A0"/>
<stop offset="0.374" stop-color="#3EC177"/>
<stop offset="0.584" stop-color="#40C278"/>
<stop offset="1" stop-color="#3EC177"/>
</linearGradient>
<linearGradient id="paint77_linear" x1="36.2194" y1="64.8587" x2="39.1081" y2="12.3604" gradientUnits="userSpaceOnUse">
<stop stop-color="#80E6A0"/>
<stop offset="0.374" stop-color="#3EC177"/>
<stop offset="0.584" stop-color="#40C278"/>
<stop offset="1" stop-color="#3EC177"/>
</linearGradient>
<linearGradient id="paint78_linear" x1="40.974" y1="56.8339" x2="42.8305" y2="22.7371" gradientUnits="userSpaceOnUse">
<stop stop-color="#80E6A0"/>
<stop offset="0.374" stop-color="#3EC177"/>
<stop offset="0.584" stop-color="#40C278"/>
<stop offset="1" stop-color="#3EC177"/>
</linearGradient>
<linearGradient id="paint79_linear" x1="41.9379" y1="54.3278" x2="43.7944" y2="20.231" gradientUnits="userSpaceOnUse">
<stop stop-color="#80E6A0"/>
<stop offset="0.374" stop-color="#3EC177"/>
<stop offset="0.584" stop-color="#40C278"/>
<stop offset="1" stop-color="#3EC177"/>
</linearGradient>
<linearGradient id="paint80_linear" x1="42.9017" y1="51.8212" x2="44.7583" y2="17.7244" gradientUnits="userSpaceOnUse">
<stop stop-color="#80E6A0"/>
<stop offset="0.374" stop-color="#3EC177"/>
<stop offset="0.584" stop-color="#40C278"/>
<stop offset="1" stop-color="#3EC177"/>
</linearGradient>
<linearGradient id="paint81_linear" x1="44.6376" y1="48.9294" x2="46.4941" y2="14.8326" gradientUnits="userSpaceOnUse">
<stop stop-color="#80E6A0"/>
<stop offset="0.374" stop-color="#3EC177"/>
<stop offset="0.584" stop-color="#40C278"/>
<stop offset="1" stop-color="#3EC177"/>
</linearGradient>
<linearGradient id="paint82_linear" x1="42.046" y1="35.8002" x2="70.3859" y2="16.7507" gradientUnits="userSpaceOnUse">
<stop stop-color="#80E6A0"/>
<stop offset="0.374" stop-color="#3EC177"/>
<stop offset="0.584" stop-color="#40C278"/>
<stop offset="1" stop-color="#3EC177"/>
</linearGradient>
<linearGradient id="paint83_linear" x1="43.588" y1="33.6794" x2="71.9279" y2="14.6298" gradientUnits="userSpaceOnUse">
<stop stop-color="#80E6A0"/>
<stop offset="0.374" stop-color="#3EC177"/>
<stop offset="0.584" stop-color="#40C278"/>
<stop offset="1" stop-color="#3EC177"/>
</linearGradient>
<linearGradient id="paint84_linear" x1="44.6376" y1="46.2304" x2="46.4941" y2="12.1336" gradientUnits="userSpaceOnUse">
<stop stop-color="#80E6A0"/>
<stop offset="0.374" stop-color="#3EC177"/>
<stop offset="0.584" stop-color="#40C278"/>
<stop offset="1" stop-color="#3EC177"/>
</linearGradient>
<linearGradient id="paint85_linear" x1="53.5624" y1="25.6987" x2="71.6113" y2="54.6862" gradientUnits="userSpaceOnUse">
<stop stop-color="#80E6A0"/>
<stop offset="0.374" stop-color="#3EC177"/>
<stop offset="0.584" stop-color="#40C278"/>
<stop offset="1" stop-color="#3EC177"/>
</linearGradient>
<linearGradient id="paint86_linear" x1="42.9017" y1="49.3151" x2="44.7583" y2="15.2183" gradientUnits="userSpaceOnUse">
<stop stop-color="#80E6A0"/>
<stop offset="0.374" stop-color="#3EC177"/>
<stop offset="0.584" stop-color="#40C278"/>
<stop offset="1" stop-color="#3EC177"/>
</linearGradient>
<linearGradient id="paint87_linear" x1="46.5658" y1="43.5314" x2="48.4223" y2="9.43465" gradientUnits="userSpaceOnUse">
<stop stop-color="#80E6A0"/>
<stop offset="0.374" stop-color="#3EC177"/>
<stop offset="0.584" stop-color="#40C278"/>
<stop offset="1" stop-color="#3EC177"/>
</linearGradient>
<linearGradient id="paint88_linear" x1="47.9149" y1="41.4106" x2="49.7715" y2="7.3138" gradientUnits="userSpaceOnUse">
<stop stop-color="#80E6A0"/>
<stop offset="0.374" stop-color="#3EC177"/>
<stop offset="0.584" stop-color="#40C278"/>
<stop offset="1" stop-color="#3EC177"/>
</linearGradient>
<linearGradient id="paint89_linear" x1="54.0379" y1="20.5555" x2="78.978" y2="43.88" gradientUnits="userSpaceOnUse">
<stop stop-color="#80E6A0"/>
<stop offset="0.374" stop-color="#3EC177"/>
<stop offset="0.584" stop-color="#40C278"/>
<stop offset="1" stop-color="#3EC177"/>
</linearGradient>
<linearGradient id="paint90_linear" x1="34.167" y1="66.2271" x2="39.3501" y2="18.5594" gradientUnits="userSpaceOnUse">
<stop stop-color="#80E6A0"/>
<stop offset="0.374" stop-color="#3EC177"/>
<stop offset="0.584" stop-color="#40C278"/>
<stop offset="1" stop-color="#3EC177"/>
</linearGradient>
<linearGradient id="paint91_linear" x1="35.1309" y1="63.7202" x2="40.3139" y2="16.0526" gradientUnits="userSpaceOnUse">
<stop stop-color="#80E6A0"/>
<stop offset="0.374" stop-color="#3EC177"/>
<stop offset="0.584" stop-color="#40C278"/>
<stop offset="1" stop-color="#3EC177"/>
</linearGradient>
<linearGradient id="paint92_linear" x1="41.268" y1="53.3874" x2="44.5169" y2="23.76" gradientUnits="userSpaceOnUse">
<stop stop-color="#80E6A0"/>
<stop offset="0.374" stop-color="#3EC177"/>
<stop offset="0.584" stop-color="#40C278"/>
<stop offset="1" stop-color="#3EC177"/>
</linearGradient>
<linearGradient id="paint93_linear" x1="42.0395" y1="51.6526" x2="45.2884" y2="22.0251" gradientUnits="userSpaceOnUse">
<stop stop-color="#80E6A0"/>
<stop offset="0.374" stop-color="#3EC177"/>
<stop offset="0.584" stop-color="#40C278"/>
<stop offset="1" stop-color="#3EC177"/>
</linearGradient>
<linearGradient id="paint94_linear" x1="43.0039" y1="49.1457" x2="46.2527" y2="19.5183" gradientUnits="userSpaceOnUse">
<stop stop-color="#80E6A0"/>
<stop offset="0.374" stop-color="#3EC177"/>
<stop offset="0.584" stop-color="#40C278"/>
<stop offset="1" stop-color="#3EC177"/>
</linearGradient>
<linearGradient id="paint95_linear" x1="38.47" y1="57.9576" x2="42.5765" y2="20.468" gradientUnits="userSpaceOnUse">
<stop stop-color="#80E6A0"/>
<stop offset="0.374" stop-color="#3EC177"/>
<stop offset="0.584" stop-color="#40C278"/>
<stop offset="1" stop-color="#3EC177"/>
</linearGradient>
<linearGradient id="paint96_linear" x1="34.9307" y1="59.0364" x2="34.9307" y2="74.8739" gradientUnits="userSpaceOnUse">
<stop stop-color="#FFCC59"/>
<stop offset="1" stop-color="#FF7D45"/>
</linearGradient>
<linearGradient id="paint97_linear" x1="66.4618" y1="68.967" x2="66.5993" y2="127.392" gradientUnits="userSpaceOnUse">
<stop stop-color="#E5EDFC"/>
<stop offset="1" stop-color="white"/>
</linearGradient>
<linearGradient id="paint98_linear" x1="35.1434" y1="48.6523" x2="35.1434" y2="52.0181" gradientUnits="userSpaceOnUse">
<stop stop-color="#FFCC59"/>
<stop offset="1" stop-color="#FF7D45"/>
</linearGradient>
<linearGradient id="paint99_linear" x1="31.3494" y1="46.1405" x2="35.0564" y2="52.0717" gradientUnits="userSpaceOnUse">
<stop stop-color="#FFCC59"/>
<stop offset="1" stop-color="#FF7D45"/>
</linearGradient>
<linearGradient id="paint100_linear" x1="39.8999" y1="68.6881" x2="46.1776" y2="68.6881" gradientUnits="userSpaceOnUse">
<stop stop-color="#E5EDFC"/>
<stop offset="0.489" stop-color="#F0F5FD"/>
<stop offset="1" stop-color="white"/>
</linearGradient>
<linearGradient id="paint101_linear" x1="86.9223" y1="129.232" x2="86.9223" y2="161.178" gradientUnits="userSpaceOnUse">
<stop stop-color="#427EE3"/>
<stop offset="1" stop-color="#123CBC"/>
</linearGradient>
<linearGradient id="paint102_linear" x1="132.484" y1="129.232" x2="132.484" y2="161.178" gradientUnits="userSpaceOnUse">
<stop stop-color="#427EE3"/>
<stop offset="1" stop-color="#123CBC"/>
</linearGradient>
<linearGradient id="paint103_linear" x1="109.838" y1="69.4768" x2="109.838" y2="132.778" gradientUnits="userSpaceOnUse">
<stop stop-color="#427EE3"/>
<stop offset="1" stop-color="#123CBC"/>
</linearGradient>
<linearGradient id="paint104_linear" x1="176.815" y1="84.8274" x2="176.815" y2="161.178" gradientUnits="userSpaceOnUse">
<stop stop-color="#E5EDFC"/>
<stop offset="1" stop-color="white"/>
</linearGradient>
<linearGradient id="paint105_linear" x1="162.938" y1="83.7029" x2="162.938" y2="161.177" gradientUnits="userSpaceOnUse">
<stop stop-color="#E5EDFC"/>
<stop offset="1" stop-color="white"/>
</linearGradient>
<linearGradient id="paint106_linear" x1="193.047" y1="83.8665" x2="193.047" y2="160.792" gradientUnits="userSpaceOnUse">
<stop stop-color="#E5EDFC"/>
<stop offset="1" stop-color="white"/>
</linearGradient>
<linearGradient id="paint107_linear" x1="177.02" y1="155.914" x2="177.02" y2="157.171" gradientUnits="userSpaceOnUse">
<stop stop-color="#E5EDFC"/>
<stop offset="1" stop-color="white"/>
</linearGradient>
<linearGradient id="paint108_linear" x1="191.037" y1="146.219" x2="191.037" y2="161.392" gradientUnits="userSpaceOnUse">
<stop stop-color="#E5EDFC"/>
<stop offset="1" stop-color="white"/>
</linearGradient>
<linearGradient id="paint109_linear" x1="32.7433" y1="84.8279" x2="32.7433" y2="161.178" gradientUnits="userSpaceOnUse">
<stop stop-color="#E5EDFC"/>
<stop offset="1" stop-color="white"/>
</linearGradient>
<linearGradient id="paint110_linear" x1="46.6185" y1="83.7029" x2="46.6185" y2="161.177" gradientUnits="userSpaceOnUse">
<stop stop-color="#E5EDFC"/>
<stop offset="1" stop-color="white"/>
</linearGradient>
<linearGradient id="paint111_linear" x1="16.5108" y1="83.8665" x2="16.5108" y2="160.792" gradientUnits="userSpaceOnUse">
<stop stop-color="#E5EDFC"/>
<stop offset="1" stop-color="white"/>
</linearGradient>
<linearGradient id="paint112_linear" x1="32.5379" y1="155.914" x2="32.5379" y2="157.171" gradientUnits="userSpaceOnUse">
<stop stop-color="#E5EDFC"/>
<stop offset="1" stop-color="white"/>
</linearGradient>
<linearGradient id="paint113_linear" x1="18.5203" y1="146.219" x2="18.5203" y2="161.392" gradientUnits="userSpaceOnUse">
<stop stop-color="#E5EDFC"/>
<stop offset="1" stop-color="white"/>
</linearGradient>
<linearGradient id="paint114_linear" x1="136.99" y1="0" x2="87.5303" y2="-33.9333" gradientUnits="userSpaceOnUse">
<stop stop-color="#E5EDFC"/>
<stop offset="1" stop-color="white"/>
</linearGradient>
<linearGradient id="paint115_linear" x1="168.03" y1="2.69897" x2="168.03" y2="71.3343" gradientUnits="userSpaceOnUse">
<stop stop-color="#E5EDFC"/>
<stop offset="1" stop-color="white"/>
</linearGradient>
<linearGradient id="paint116_linear" x1="163.923" y1="57.2293" x2="165.182" y2="55.6738" gradientUnits="userSpaceOnUse">
<stop stop-color="#A1F8B5"/>
<stop offset="1" stop-color="#3EC177"/>
</linearGradient>
<linearGradient id="paint117_linear" x1="162.758" y1="58.6858" x2="164.017" y2="57.1303" gradientUnits="userSpaceOnUse">
<stop stop-color="#A1F8B5"/>
<stop offset="1" stop-color="#3EC177"/>
</linearGradient>
<linearGradient id="paint118_linear" x1="161.287" y1="60.7629" x2="162.133" y2="58.9488" gradientUnits="userSpaceOnUse">
<stop stop-color="#A1F8B5"/>
<stop offset="1" stop-color="#3EC177"/>
</linearGradient>
<linearGradient id="paint119_linear" x1="160.142" y1="62.999" x2="160.727" y2="61.0855" gradientUnits="userSpaceOnUse">
<stop stop-color="#A1F8B5"/>
<stop offset="1" stop-color="#3EC177"/>
</linearGradient>
<linearGradient id="paint120_linear" x1="166.091" y1="57.3404" x2="167.092" y2="59.0738" gradientUnits="userSpaceOnUse">
<stop stop-color="#A1F8B5"/>
<stop offset="1" stop-color="#3EC177"/>
</linearGradient>
<linearGradient id="paint121_linear" x1="164.342" y1="59.0879" x2="165.343" y2="60.8214" gradientUnits="userSpaceOnUse">
<stop stop-color="#A1F8B5"/>
<stop offset="1" stop-color="#3EC177"/>
</linearGradient>
<linearGradient id="paint122_linear" x1="162.922" y1="60.7698" x2="164.313" y2="62.2089" gradientUnits="userSpaceOnUse">
<stop stop-color="#A1F8B5"/>
<stop offset="1" stop-color="#3EC177"/>
</linearGradient>
<linearGradient id="paint123_linear" x1="161.763" y1="62.7784" x2="163.34" y2="64.0111" gradientUnits="userSpaceOnUse">
<stop stop-color="#A1F8B5"/>
<stop offset="1" stop-color="#3EC177"/>
</linearGradient>
<linearGradient id="paint124_linear" x1="167.816" y1="51.104" x2="167.816" y2="57.2812" gradientUnits="userSpaceOnUse">
<stop stop-color="#A1F8B5"/>
<stop offset="1" stop-color="#3EC177"/>
</linearGradient>
<linearGradient id="paint125_linear" x1="163.182" y1="63.6819" x2="163.182" y2="67.4279" gradientUnits="userSpaceOnUse">
<stop stop-color="#FFCC59"/>
<stop offset="1" stop-color="#FF7D45"/>
</linearGradient>
<linearGradient id="paint126_linear" x1="162.317" y1="64.6477" x2="163.15" y2="63.6183" gradientUnits="userSpaceOnUse">
<stop stop-color="#A1F8B5"/>
<stop offset="1" stop-color="#3EC177"/>
</linearGradient>
<linearGradient id="paint127_linear" x1="161.546" y1="65.6111" x2="162.379" y2="64.5817" gradientUnits="userSpaceOnUse">
<stop stop-color="#A1F8B5"/>
<stop offset="1" stop-color="#3EC177"/>
</linearGradient>
<linearGradient id="paint128_linear" x1="160.571" y1="66.9863" x2="161.131" y2="65.7858" gradientUnits="userSpaceOnUse">
<stop stop-color="#A1F8B5"/>
<stop offset="1" stop-color="#3EC177"/>
</linearGradient>
<linearGradient id="paint129_linear" x1="159.814" y1="68.4655" x2="160.201" y2="67.1987" gradientUnits="userSpaceOnUse">
<stop stop-color="#A1F8B5"/>
<stop offset="1" stop-color="#3EC177"/>
</linearGradient>
<linearGradient id="paint130_linear" x1="163.751" y1="64.7209" x2="164.413" y2="65.868" gradientUnits="userSpaceOnUse">
<stop stop-color="#A1F8B5"/>
<stop offset="1" stop-color="#3EC177"/>
</linearGradient>
<linearGradient id="paint131_linear" x1="162.594" y1="65.8779" x2="163.256" y2="67.025" gradientUnits="userSpaceOnUse">
<stop stop-color="#A1F8B5"/>
<stop offset="1" stop-color="#3EC177"/>
</linearGradient>
<linearGradient id="paint132_linear" x1="161.653" y1="66.9905" x2="162.574" y2="67.9428" gradientUnits="userSpaceOnUse">
<stop stop-color="#A1F8B5"/>
<stop offset="1" stop-color="#3EC177"/>
</linearGradient>
<linearGradient id="paint133_linear" x1="160.886" y1="68.3194" x2="161.93" y2="69.1352" gradientUnits="userSpaceOnUse">
<stop stop-color="#A1F8B5"/>
<stop offset="1" stop-color="#3EC177"/>
</linearGradient>
<linearGradient id="paint134_linear" x1="164.894" y1="60.5938" x2="164.894" y2="64.6819" gradientUnits="userSpaceOnUse">
<stop stop-color="#A1F8B5"/>
<stop offset="1" stop-color="#3EC177"/>
</linearGradient>
<linearGradient id="paint135_linear" x1="163.308" y1="64.9722" x2="163.308" y2="75.9604" gradientUnits="userSpaceOnUse">
<stop stop-color="#FFCC59"/>
<stop offset="1" stop-color="#FF7D45"/>
</linearGradient>
<linearGradient id="paint136_linear" x1="156.715" y1="57.9983" x2="157.548" y2="59.0277" gradientUnits="userSpaceOnUse">
<stop stop-color="#A1F8B5"/>
<stop offset="1" stop-color="#3EC177"/>
</linearGradient>
<linearGradient id="paint137_linear" x1="157.486" y1="58.9624" x2="158.319" y2="59.9918" gradientUnits="userSpaceOnUse">
<stop stop-color="#A1F8B5"/>
<stop offset="1" stop-color="#3EC177"/>
</linearGradient>
<linearGradient id="paint138_linear" x1="158.734" y1="60.166" x2="159.294" y2="61.3665" gradientUnits="userSpaceOnUse">
<stop stop-color="#A1F8B5"/>
<stop offset="1" stop-color="#3EC177"/>
</linearGradient>
<linearGradient id="paint139_linear" x1="159.663" y1="61.5798" x2="160.05" y2="62.8466" gradientUnits="userSpaceOnUse">
<stop stop-color="#A1F8B5"/>
<stop offset="1" stop-color="#3EC177"/>
</linearGradient>
<linearGradient id="paint140_linear" x1="155.451" y1="60.2477" x2="156.113" y2="59.1006" gradientUnits="userSpaceOnUse">
<stop stop-color="#A1F8B5"/>
<stop offset="1" stop-color="#3EC177"/>
</linearGradient>
<linearGradient id="paint141_linear" x1="156.608" y1="61.4047" x2="157.27" y2="60.2576" gradientUnits="userSpaceOnUse">
<stop stop-color="#A1F8B5"/>
<stop offset="1" stop-color="#3EC177"/>
</linearGradient>
<linearGradient id="paint142_linear" x1="157.29" y1="62.3237" x2="158.211" y2="61.3713" gradientUnits="userSpaceOnUse">
<stop stop-color="#A1F8B5"/>
<stop offset="1" stop-color="#3EC177"/>
</linearGradient>
<linearGradient id="paint143_linear" x1="157.935" y1="63.5158" x2="158.979" y2="62.7003" gradientUnits="userSpaceOnUse">
<stop stop-color="#A1F8B5"/>
<stop offset="1" stop-color="#3EC177"/>
</linearGradient>
<linearGradient id="paint144_linear" x1="154.969" y1="54.9724" x2="154.969" y2="59.0612" gradientUnits="userSpaceOnUse">
<stop stop-color="#A1F8B5"/>
<stop offset="1" stop-color="#3EC177"/>
</linearGradient>
</defs>
</svg>
