<svg width="32" height="30" viewBox="0 0 32 30" fill="none" xmlns="http://www.w3.org/2000/svg">
<path d="M30.9869 8.534C30.9617 7.33057 30.7211 6.13995 30.2753 5.013C29.8813 4.04858 29.2795 3.17275 28.5084 2.44147C27.7374 1.71018 26.8139 1.13954 25.7972 0.766C24.6091 0.343315 23.3541 0.115071 22.0855 0.091C20.4483 0.017 19.9276 0 15.7731 0C11.6186 0 11.0989 0.017 9.47019 0.085C8.20048 0.108305 6.94422 0.336568 5.75529 0.76C4.73151 1.12396 3.80449 1.69679 3.03975 2.438C2.26288 3.16322 1.66116 4.03972 1.27613 5.007C0.830606 6.13401 0.589997 7.32459 0.564561 8.528C0.486552 10.082 0.468628 10.575 0.468628 14.516C0.468628 18.457 0.486556 18.95 0.55824 20.498C0.583104 21.7015 0.823723 22.8921 1.2698 24.019C1.66358 24.9834 2.26516 25.8592 3.03606 26.5905C3.80697 27.3218 4.73024 27.8925 5.74686 28.266C6.93493 28.6886 8.19 28.9169 9.4586 28.941C11.0905 29.009 11.6102 29.026 15.7646 29.026C19.9191 29.026 20.4388 29.009 22.0707 28.941C23.3394 28.9176 24.5946 28.6893 25.7824 28.266C26.7996 27.8932 27.7234 27.3228 28.4946 26.5914C29.2658 25.86 29.8673 24.9838 30.2605 24.019C30.7066 22.8927 30.9482 21.7029 30.9753 20.5C31.047 18.952 31.0649 18.459 31.0649 14.518C31.0649 10.577 31.0575 10.082 30.9869 8.534ZM28.2344 20.385C28.2239 21.3048 28.0456 22.2159 27.7073 23.078C27.4523 23.7041 27.0621 24.2726 26.5617 24.7473C26.0614 25.2219 25.462 25.592 24.8021 25.834C23.8932 26.1546 22.9328 26.3237 21.9632 26.334C20.3492 26.402 19.8654 26.419 15.7826 26.419C11.6998 26.419 11.2096 26.402 9.60196 26.334C8.6323 26.3244 7.67176 26.1552 6.76308 25.834C6.09897 25.6029 5.49831 25.2327 5.00578 24.751C4.49931 24.2828 4.10929 23.7133 3.86411 23.084C3.5262 22.2218 3.34788 21.3108 3.33703 20.391C3.26534 18.86 3.24742 18.401 3.24742 14.528C3.24742 10.655 3.26534 10.19 3.33703 8.665C3.34716 7.74517 3.5255 6.83398 3.86411 5.972C4.1059 5.33918 4.49714 4.76725 5.00789 4.3C5.50134 3.81938 6.10172 3.44937 6.76519 3.217C7.67409 2.89657 8.63449 2.72741 9.60407 2.717C11.218 2.649 11.7019 2.632 15.7847 2.632C19.8675 2.632 20.3577 2.649 21.9653 2.717C22.9349 2.72671 23.8955 2.89588 24.8042 3.217C25.4691 3.44785 26.0705 3.81804 26.5636 4.3C27.0713 4.76924 27.462 5.34014 27.7073 5.971C28.0449 6.83325 28.2232 7.74427 28.2344 8.664C28.3061 10.195 28.324 10.654 28.324 14.527C28.324 18.4 28.3019 18.854 28.2344 20.385Z" fill="white"/>
<path d="M15.7731 7.06006C14.2183 7.06006 12.6985 7.4974 11.4058 8.31679C10.113 9.13618 9.10549 10.3008 8.51051 11.6634C7.91553 13.026 7.75986 14.5253 8.06317 15.9718C8.36649 17.4184 9.11518 18.7471 10.2146 19.79C11.3139 20.8328 12.7146 21.543 14.2395 21.8308C15.7644 22.1185 17.3449 21.9708 18.7813 21.4064C20.2177 20.842 21.4455 19.8862 22.3092 18.6599C23.173 17.4336 23.634 15.9919 23.634 14.5171C23.6338 12.5394 22.8055 10.6429 21.3313 9.24446C19.8572 7.84605 17.8579 7.06032 15.7731 7.06006ZM15.7731 19.3531C14.7646 19.3531 13.7788 19.0694 12.9402 18.5379C12.1017 18.0064 11.4481 17.2509 11.0622 16.3671C10.6763 15.4833 10.5753 14.5107 10.772 13.5724C10.9688 12.6341 11.4544 11.7722 12.1675 11.0958C12.8806 10.4193 13.7892 9.95864 14.7783 9.772C15.7674 9.58536 16.7927 9.68115 17.7244 10.0473C18.6561 10.4134 19.4525 11.0333 20.0128 11.8288C20.5731 12.6242 20.8721 13.5594 20.8721 14.5161C20.8718 15.7988 20.3345 17.029 19.3783 17.936C18.4221 18.8431 17.1254 19.3528 15.7731 19.3531Z" fill="white"/>
<path d="M25.7762 6.76492C25.7762 7.10922 25.6686 7.44578 25.467 7.73207C25.2653 8.01835 24.9788 8.2415 24.6435 8.3733C24.3082 8.5051 23.9392 8.53964 23.5832 8.47254C23.2272 8.40544 22.9002 8.23973 22.6435 7.99635C22.3868 7.75296 22.2119 7.44284 22.1409 7.10519C22.07 6.76753 22.1062 6.41751 22.2449 6.09936C22.3837 5.78122 22.6188 5.50925 22.9205 5.31782C23.2221 5.1264 23.5769 5.02412 23.9398 5.02393C24.1809 5.02379 24.4197 5.06873 24.6425 5.15616C24.8653 5.2436 25.0677 5.37182 25.2383 5.5335C25.4088 5.69518 25.5441 5.88715 25.6364 6.09844C25.7287 6.30973 25.7762 6.53621 25.7762 6.76492Z" fill="white"/>
</svg>
