<svg width="1208" height="266" viewBox="0 0 1208 266" fill="none" xmlns="http://www.w3.org/2000/svg">
<g filter="url(#filter0_d)">
<g clip-path="url(#clip0)">
<rect x="4" width="1200" height="258" rx="10" fill="#006BC1"/>
<rect x="931" y="102" width="220" height="53" rx="5" fill="white"/>
<path opacity="0.2" d="M485.788 232.24C505.895 228.819 526.562 225.896 547.659 223.489C600.259 217.053 653.992 211.314 705.927 204.322C859.276 183.493 822.432 105.672 1028.49 121.83C1030.43 121.982 1032.35 122.173 1034.24 122.403C1142.17 135.622 1136.9 169.211 1193.81 190.624C1235.29 205.975 1294.43 213.199 1310.81 235.387C1329.18 266.224 1300.14 312.876 1254.5 329.706C1253.2 330.183 1251.83 330.632 1250.39 331.051C1107.51 373.01 992.924 274.328 841.917 274.797C839.995 274.797 838.066 274.781 836.154 274.719C700.625 270.409 647.158 320.927 536.215 326.154C419.083 331.672 354.347 276.437 436.514 244.98C450.869 239.675 467.552 235.367 485.808 232.249L485.788 232.24Z" fill="url(#paint0_linear)"/>
<path d="M-50.0047 228.112C-2.46126 221.884 40.2516 211.243 74.2699 197.152C96.3547 188.078 125.456 181.314 159.114 185.994C235.87 196.667 172.287 231.336 263.917 238.239C355.548 245.142 395.29 225.319 449.904 251.721C504.517 278.122 448.426 336.542 266.853 309.017C85.2801 281.493 63.1513 321.375 -50.5097 309.58C-146.815 299.585 -169.998 243.616 -50.0216 228.124L-50.0047 228.112Z" stroke="white" stroke-miterlimit="10"/>
<path opacity="0.2" d="M-73.6284 205.488C-73.6284 205.488 -45.6488 166.891 52.2767 166.226C150.202 165.56 123.972 206.818 183.426 217.466C242.88 228.113 316.324 211.476 379.277 236.098C441.85 260.572 421.243 321.941 211.405 325.27C1.56819 328.598 -73.6284 325.275 -73.6284 325.275V205.488Z" fill="url(#paint1_linear)"/>
<path d="M1169.17 203.005L1198.57 214.192" stroke="white" stroke-miterlimit="10" stroke-linecap="round" stroke-linejoin="round"/>
<path d="M1198.57 203.005L1169.17 214.192" stroke="white" stroke-miterlimit="10" stroke-linecap="round" stroke-linejoin="round"/>
<path d="M976.534 349.034C965.405 339.411 948.13 331 926.28 324.566C915.945 321.424 907.721 316.492 906.677 308.759C903.653 286.318 965.646 275.961 1033.69 278.844C1101.73 281.727 1076.03 252.566 1127.44 238.947C1178.85 225.327 1258.98 235.108 1258.98 260.425C1258.98 285.743 1160.7 266.774 1177.33 330.057C1191.49 383.948 1011.57 380.68 976.534 349.033V349.034Z" stroke="white" stroke-miterlimit="10"/>
<path d="M1013.76 261.547C1013.76 259.533 1015.33 257.564 1018.27 255.889C1021.21 254.215 1025.39 252.909 1030.28 252.139C1035.17 251.368 1040.55 251.166 1045.74 251.559C1050.93 251.952 1055.7 252.922 1059.44 254.346C1063.18 255.77 1065.73 257.585 1066.76 259.56C1067.79 261.536 1067.26 263.583 1065.24 265.444C1063.21 267.305 1059.78 268.895 1055.38 270.014C1050.98 271.133 1045.81 271.73 1040.52 271.73C1033.42 271.73 1026.61 270.657 1021.59 268.747C1016.58 266.838 1013.76 264.248 1013.76 261.547V261.547Z" stroke="white" stroke-miterlimit="10"/>
<path opacity="0.2" d="M977.537 210.948C977.538 208.059 979.789 205.236 984.006 202.835C988.223 200.433 994.217 198.561 1001.23 197.456C1008.24 196.351 1015.96 196.062 1023.4 196.626C1030.85 197.189 1037.68 198.58 1043.05 200.623C1048.42 202.665 1052.07 205.268 1053.55 208.1C1055.03 210.933 1054.27 213.87 1051.37 216.538C1048.46 219.207 1043.54 221.487 1037.23 223.092C1030.92 224.697 1023.5 225.553 1015.91 225.553C1010.87 225.553 1005.88 225.175 1001.23 224.441C996.57 223.707 992.339 222.632 988.776 221.275C985.212 219.919 982.385 218.309 980.457 216.537C978.529 214.765 977.536 212.866 977.537 210.948V210.948Z" fill="url(#paint2_linear)"/>
<path opacity="0.2" d="M594.612 5.41815C577.033 8.40916 558.965 10.9648 540.52 13.0691C494.531 18.6961 447.554 23.7129 402.147 29.8262C268.076 48.0385 300.29 116.076 120.137 101.95C118.44 101.818 116.763 101.651 115.114 101.45C20.744 89.8925 25.3542 60.5257 -24.4017 41.8065C-60.6729 28.3905 -112.368 22.0695 -126.693 2.67561C-142.761 -24.2802 -117.364 -65.0662 -77.4628 -79.7812C-76.3223 -80.1981 -75.1215 -80.5904 -73.8661 -80.9564C51.0593 -117.64 151.219 -31.3636 283.269 -31.7751C284.964 -31.7751 286.636 -31.7596 288.31 -31.7068C406.802 -27.9387 453.547 -72.1057 550.541 -76.6749C652.947 -81.4995 709.544 -33.2083 637.71 -5.70552C625.158 -1.06988 610.572 2.69472 594.612 5.41815Z" fill="url(#paint3_linear)"/>
<path d="M1421.26 67.6566C1373.72 73.885 1331.01 84.5259 1296.99 98.6166C1274.9 107.69 1245.8 114.455 1212.15 109.775C1135.39 99.1068 1198.97 64.4445 1107.34 57.5391C1015.71 50.6337 975.969 70.4598 921.362 44.0625C866.756 17.6652 922.84 -40.7589 1104.41 -13.2342C1285.99 14.2906 1308.09 -25.5975 1421.75 -13.8005C1518.06 -3.80555 1541.24 52.1637 1421.26 67.6553V67.6566Z" stroke="white" stroke-miterlimit="10"/>
<path opacity="0.3" d="M1468.62 81.2511C1468.62 81.2511 1440.64 119.848 1342.71 120.514C1244.79 121.179 1271.02 79.9211 1211.57 69.2735C1152.11 58.6258 1078.66 75.2629 1015.71 50.6407C953.132 26.1681 973.745 -35.2036 1183.59 -38.5305C1393.43 -41.8574 1468.62 -38.5305 1468.62 -38.5305V81.2511H1468.62Z" fill="url(#paint4_linear)"/>
<path d="M819.541 84.7844C819.541 82.3958 821.402 80.0608 824.889 78.0748C828.377 76.0887 833.333 74.5408 839.132 73.6267C844.931 72.7126 851.312 72.4735 857.468 72.9395C863.624 73.4055 869.279 74.5557 873.717 76.2447C878.155 77.9337 881.178 80.0856 882.402 82.4283C883.627 84.771 882.998 87.1993 880.596 89.406C878.194 91.6128 874.127 93.499 868.908 94.826C863.689 96.1531 857.553 96.8614 851.277 96.8614C842.86 96.8614 834.788 95.589 828.836 93.3241C822.885 91.0592 819.541 87.9874 819.541 84.7844V84.7844Z" stroke="white" stroke-opacity="0.5" stroke-miterlimit="10"/>
<path opacity="0.5" d="M117.544 -10.1545C117.544 -12.1686 119.114 -14.1374 122.054 -15.812C124.995 -17.4866 129.174 -18.7919 134.063 -19.5626C138.953 -20.3334 144.333 -20.535 149.524 -20.1421C154.715 -19.7492 159.483 -18.7793 163.225 -17.3552C166.968 -15.931 169.516 -14.1165 170.549 -12.1412C171.581 -10.1658 171.051 -8.11828 169.026 -6.25754C167.001 -4.39679 163.571 -2.80638 159.17 -1.68743C154.77 -0.568476 149.596 0.0287615 144.304 0.0287615C137.207 0.0287615 130.4 -1.04412 125.382 -2.95385C120.364 -4.86358 117.544 -7.45373 117.544 -10.1545V-10.1545Z" stroke="white" stroke-miterlimit="10"/>
<path opacity="0.2" d="M181.375 67.2761C181.376 64.3878 183.627 61.5644 187.844 59.1629C192.061 56.7614 198.055 54.8898 205.068 53.7846C212.08 52.6795 219.796 52.3905 227.24 52.9541C234.684 53.5178 241.522 54.9088 246.889 56.9512C252.255 58.9937 255.91 61.5959 257.39 64.4288C258.871 67.2617 258.111 70.198 255.206 72.8665C252.301 75.535 247.383 77.8157 241.072 79.4204C234.761 81.025 227.341 81.8815 219.751 81.8815C214.711 81.8815 209.721 81.5037 205.065 80.7697C200.408 80.0357 196.178 78.9599 192.614 77.6036C189.05 76.2474 186.224 74.6373 184.295 72.8653C182.367 71.0933 181.375 69.1941 181.375 67.2761V67.2761Z" fill="url(#paint5_linear)"/>
<path opacity="0.3" d="M144.046 48.8073C144.046 32.0958 157.068 15.7595 181.465 1.86438C205.863 -12.0307 240.539 -22.8607 281.111 -29.2559C321.682 -35.6511 366.326 -37.3244 409.396 -34.0642C452.467 -30.8039 492.029 -22.7565 523.081 -10.9397C554.133 0.87714 575.28 15.9327 583.847 32.3231C592.414 48.7136 588.017 65.7027 571.212 81.1421C554.407 96.5816 525.948 109.778 489.435 119.062C452.922 128.347 409.994 133.302 366.08 133.302C307.192 133.302 250.717 124.4 209.078 108.554C167.438 92.7084 144.046 71.2168 144.046 48.8073V48.8073Z" fill="url(#paint6_linear)"/>
<path opacity="0.18" d="M960.806 193.783C950.779 206.667 921.406 214.717 895.199 211.763C868.993 208.809 855.877 195.976 865.904 183.088C875.932 170.199 905.304 162.156 931.511 165.11C957.718 168.064 970.833 180.904 960.806 193.783Z" fill="url(#paint7_linear)"/>
<path d="M1009.25 131.704C1009.25 131.141 1009.05 130.708 1008.66 130.403C1008.26 130.099 1007.55 129.791 1006.52 129.48C1005.49 129.17 1004.67 128.824 1004.06 128.443C1002.89 127.711 1002.31 126.756 1002.31 125.578C1002.31 124.547 1002.73 123.697 1003.57 123.029C1004.41 122.361 1005.5 122.027 1006.84 122.027C1007.74 122.027 1008.53 122.191 1009.23 122.519C1009.92 122.848 1010.47 123.316 1010.87 123.926C1011.27 124.529 1011.47 125.2 1011.47 125.938H1009.25C1009.25 125.27 1009.04 124.749 1008.62 124.374C1008.2 123.993 1007.61 123.803 1006.83 123.803C1006.1 123.803 1005.54 123.958 1005.13 124.268C1004.73 124.579 1004.53 125.013 1004.53 125.569C1004.53 126.038 1004.75 126.431 1005.18 126.747C1005.62 127.057 1006.33 127.362 1007.33 127.661C1008.32 127.954 1009.12 128.291 1009.73 128.672C1010.33 129.047 1010.77 129.48 1011.05 129.973C1011.34 130.459 1011.48 131.03 1011.48 131.686C1011.48 132.753 1011.07 133.602 1010.25 134.235C1009.43 134.862 1008.32 135.176 1006.92 135.176C1006 135.176 1005.15 135.006 1004.37 134.666C1003.59 134.32 1002.99 133.846 1002.56 133.242C1002.13 132.639 1001.91 131.935 1001.91 131.133H1004.14C1004.14 131.859 1004.38 132.422 1004.86 132.82C1005.34 133.219 1006.03 133.418 1006.92 133.418C1007.7 133.418 1008.28 133.263 1008.66 132.952C1009.06 132.636 1009.25 132.22 1009.25 131.704ZM1018.98 134.068C1018.36 134.807 1017.46 135.176 1016.31 135.176C1015.28 135.176 1014.5 134.874 1013.96 134.27C1013.44 133.667 1013.17 132.794 1013.17 131.651V125.49H1015.31V131.625C1015.31 132.832 1015.81 133.435 1016.81 133.435C1017.85 133.435 1018.55 133.063 1018.91 132.319V125.49H1021.05V135H1019.04L1018.98 134.068ZM1031.57 130.342C1031.57 131.818 1031.24 132.993 1030.58 133.866C1029.92 134.739 1029.01 135.176 1027.86 135.176C1026.75 135.176 1025.88 134.774 1025.26 133.972L1025.15 135H1023.22V121.5H1025.35V126.404C1025.97 125.678 1026.8 125.314 1027.84 125.314C1029 125.314 1029.91 125.745 1030.58 126.606C1031.24 127.468 1031.57 128.672 1031.57 130.219V130.342ZM1029.43 130.157C1029.43 129.126 1029.25 128.352 1028.89 127.837C1028.52 127.321 1028 127.063 1027.31 127.063C1026.38 127.063 1025.73 127.468 1025.35 128.276V132.196C1025.74 133.022 1026.39 133.435 1027.32 133.435C1027.99 133.435 1028.51 133.186 1028.87 132.688C1029.23 132.19 1029.42 131.437 1029.43 130.43V130.157ZM1038.7 132.416C1038.7 132.035 1038.54 131.745 1038.22 131.546C1037.91 131.347 1037.39 131.171 1036.67 131.018C1035.94 130.866 1035.33 130.673 1034.85 130.438C1033.78 129.923 1033.25 129.176 1033.25 128.197C1033.25 127.377 1033.59 126.691 1034.28 126.141C1034.98 125.59 1035.85 125.314 1036.92 125.314C1038.06 125.314 1038.97 125.596 1039.67 126.158C1040.38 126.721 1040.73 127.45 1040.73 128.347H1038.59C1038.59 127.936 1038.44 127.597 1038.13 127.327C1037.83 127.052 1037.42 126.914 1036.92 126.914C1036.45 126.914 1036.07 127.022 1035.77 127.239C1035.48 127.456 1035.33 127.746 1035.33 128.109C1035.33 128.437 1035.47 128.692 1035.74 128.874C1036.02 129.056 1036.58 129.24 1037.41 129.428C1038.25 129.609 1038.91 129.829 1039.38 130.087C1039.86 130.339 1040.22 130.643 1040.45 131.001C1040.68 131.358 1040.8 131.792 1040.8 132.302C1040.8 133.157 1040.44 133.851 1039.73 134.385C1039.02 134.912 1038.1 135.176 1036.95 135.176C1036.17 135.176 1035.47 135.035 1034.86 134.754C1034.25 134.473 1033.78 134.086 1033.44 133.594C1033.1 133.101 1032.93 132.571 1032.93 132.003H1035C1035.03 132.507 1035.22 132.896 1035.58 133.172C1035.93 133.441 1036.39 133.576 1036.97 133.576C1037.54 133.576 1037.96 133.471 1038.26 133.26C1038.55 133.043 1038.7 132.762 1038.7 132.416ZM1046.57 133.471C1047.1 133.471 1047.55 133.315 1047.9 133.005C1048.25 132.694 1048.44 132.31 1048.46 131.853H1050.47C1050.45 132.445 1050.27 132.999 1049.92 133.515C1049.57 134.024 1049.11 134.429 1048.51 134.727C1047.92 135.026 1047.28 135.176 1046.6 135.176C1045.27 135.176 1044.21 134.745 1043.43 133.884C1042.65 133.022 1042.26 131.833 1042.26 130.315V130.096C1042.26 128.648 1042.65 127.491 1043.42 126.624C1044.2 125.751 1045.25 125.314 1046.59 125.314C1047.72 125.314 1048.64 125.645 1049.35 126.307C1050.06 126.964 1050.44 127.828 1050.47 128.9H1048.46C1048.44 128.355 1048.25 127.907 1047.9 127.556C1047.55 127.204 1047.11 127.028 1046.57 127.028C1045.88 127.028 1045.35 127.28 1044.97 127.784C1044.6 128.282 1044.41 129.041 1044.4 130.06V130.403C1044.4 131.434 1044.58 132.205 1044.95 132.715C1045.33 133.219 1045.87 133.471 1046.57 133.471ZM1057.07 127.441C1056.78 127.394 1056.49 127.371 1056.2 127.371C1055.22 127.371 1054.56 127.746 1054.22 128.496V135H1052.08V125.49H1054.12L1054.17 126.554C1054.69 125.727 1055.4 125.314 1056.32 125.314C1056.62 125.314 1056.88 125.355 1057.07 125.437L1057.07 127.441ZM1060.69 135H1058.55V125.49H1060.69V135ZM1058.42 123.02C1058.42 122.692 1058.52 122.42 1058.73 122.203C1058.94 121.986 1059.24 121.878 1059.62 121.878C1060.01 121.878 1060.31 121.986 1060.52 122.203C1060.73 122.42 1060.84 122.692 1060.84 123.02C1060.84 123.343 1060.73 123.612 1060.52 123.829C1060.31 124.04 1060.01 124.145 1059.62 124.145C1059.24 124.145 1058.94 124.04 1058.73 123.829C1058.52 123.612 1058.42 123.343 1058.42 123.02ZM1071.37 130.342C1071.37 131.818 1071.03 132.993 1070.37 133.866C1069.72 134.739 1068.81 135.176 1067.66 135.176C1066.54 135.176 1065.68 134.774 1065.05 133.972L1064.95 135H1063.02V121.5H1065.15V126.404C1065.77 125.678 1066.6 125.314 1067.64 125.314C1068.8 125.314 1069.71 125.745 1070.37 126.606C1071.03 127.468 1071.37 128.672 1071.37 130.219V130.342ZM1069.23 130.157C1069.23 129.126 1069.05 128.352 1068.68 127.837C1068.32 127.321 1067.79 127.063 1067.1 127.063C1066.18 127.063 1065.53 127.468 1065.15 128.276V132.196C1065.53 133.022 1066.19 133.435 1067.12 133.435C1067.79 133.435 1068.3 133.186 1068.67 132.688C1069.03 132.19 1069.22 131.437 1069.23 130.43V130.157ZM1077.35 135.176C1076 135.176 1074.9 134.751 1074.05 133.901C1073.22 133.046 1072.8 131.909 1072.8 130.491V130.227C1072.8 129.278 1072.98 128.432 1073.34 127.687C1073.71 126.937 1074.23 126.354 1074.89 125.938C1075.55 125.522 1076.29 125.314 1077.1 125.314C1078.4 125.314 1079.4 125.727 1080.1 126.554C1080.81 127.38 1081.17 128.549 1081.17 130.06V130.922H1074.95C1075.02 131.707 1075.28 132.328 1075.73 132.785C1076.2 133.242 1076.78 133.471 1077.47 133.471C1078.45 133.471 1079.25 133.075 1079.86 132.284L1081.02 133.383C1080.63 133.951 1080.12 134.393 1079.49 134.71C1078.85 135.02 1078.14 135.176 1077.35 135.176ZM1077.1 127.028C1076.51 127.028 1076.04 127.233 1075.67 127.643C1075.31 128.054 1075.09 128.625 1074.99 129.357H1079.06V129.199C1079.01 128.484 1078.82 127.945 1078.48 127.582C1078.15 127.213 1077.69 127.028 1077.1 127.028Z" fill="#006BC1"/>
<path d="M114.814 121H111.355L102.482 106.877V121H99.0234V101.094H102.482L111.383 115.271V101.094H114.814V121ZM122.115 121H118.793V106.207H122.115V121ZM118.588 102.365C118.588 101.855 118.747 101.431 119.066 101.094C119.395 100.757 119.859 100.588 120.461 100.588C121.062 100.588 121.527 100.757 121.855 101.094C122.184 101.431 122.348 101.855 122.348 102.365C122.348 102.867 122.184 103.286 121.855 103.623C121.527 103.951 121.062 104.115 120.461 104.115C119.859 104.115 119.395 103.951 119.066 103.623C118.747 103.286 118.588 102.867 118.588 102.365ZM130.551 114.656L129.074 116.174V121H125.752V100H129.074V112.113L130.113 110.814L134.201 106.207H138.193L132.697 112.373L138.781 121H134.939L130.551 114.656ZM143.498 106.207L143.594 107.752C144.633 106.54 146.055 105.934 147.859 105.934C149.837 105.934 151.191 106.69 151.92 108.203C152.995 106.69 154.508 105.934 156.459 105.934C158.09 105.934 159.303 106.385 160.096 107.287C160.898 108.189 161.308 109.52 161.326 111.279V121H158.004V111.375C158.004 110.436 157.799 109.748 157.389 109.311C156.979 108.873 156.299 108.654 155.352 108.654C154.595 108.654 153.975 108.859 153.492 109.27C153.018 109.671 152.686 110.199 152.494 110.855L152.508 121H149.186V111.266C149.14 109.525 148.251 108.654 146.52 108.654C145.189 108.654 144.245 109.197 143.689 110.281V121H140.367V106.207H143.498ZM173.576 121C173.43 120.717 173.303 120.257 173.193 119.619C172.136 120.722 170.842 121.273 169.311 121.273C167.825 121.273 166.613 120.85 165.674 120.002C164.735 119.154 164.266 118.106 164.266 116.857C164.266 115.281 164.849 114.073 166.016 113.234C167.191 112.387 168.868 111.963 171.047 111.963H173.084V110.992C173.084 110.227 172.87 109.616 172.441 109.16C172.013 108.695 171.361 108.463 170.486 108.463C169.73 108.463 169.11 108.654 168.627 109.037C168.144 109.411 167.902 109.889 167.902 110.473H164.58C164.58 109.661 164.849 108.905 165.387 108.203C165.924 107.492 166.654 106.936 167.574 106.535C168.504 106.134 169.538 105.934 170.678 105.934C172.41 105.934 173.79 106.371 174.82 107.246C175.85 108.112 176.379 109.333 176.406 110.91V117.582C176.406 118.913 176.593 119.975 176.967 120.768V121H173.576ZM169.926 118.607C170.582 118.607 171.197 118.448 171.771 118.129C172.355 117.81 172.792 117.382 173.084 116.844V114.055H171.293C170.062 114.055 169.137 114.269 168.518 114.697C167.898 115.126 167.588 115.732 167.588 116.516C167.588 117.154 167.798 117.664 168.217 118.047C168.645 118.421 169.215 118.607 169.926 118.607ZM184.049 102.611V106.207H186.66V108.668H184.049V116.926C184.049 117.491 184.158 117.901 184.377 118.156C184.605 118.402 185.006 118.525 185.58 118.525C185.963 118.525 186.35 118.48 186.742 118.389V120.959C185.986 121.169 185.257 121.273 184.555 121.273C182.003 121.273 180.727 119.865 180.727 117.049V108.668H178.293V106.207H180.727V102.611H184.049ZM192.744 121H189.422V106.207H192.744V121ZM189.217 102.365C189.217 101.855 189.376 101.431 189.695 101.094C190.023 100.757 190.488 100.588 191.09 100.588C191.691 100.588 192.156 100.757 192.484 101.094C192.812 101.431 192.977 101.855 192.977 102.365C192.977 102.867 192.812 103.286 192.484 103.623C192.156 103.951 191.691 104.115 191.09 104.115C190.488 104.115 190.023 103.951 189.695 103.623C189.376 103.286 189.217 102.867 189.217 102.365ZM208.152 114.656L206.676 116.174V121H203.354V100H206.676V112.113L207.715 110.814L211.803 106.207H215.795L210.299 112.373L216.383 121H212.541L208.152 114.656ZM224.217 121.273C222.111 121.273 220.402 120.613 219.09 119.291C217.786 117.96 217.135 116.192 217.135 113.986V113.576C217.135 112.1 217.417 110.783 217.982 109.625C218.557 108.458 219.359 107.551 220.389 106.904C221.419 106.257 222.567 105.934 223.834 105.934C225.848 105.934 227.402 106.576 228.496 107.861C229.599 109.146 230.15 110.965 230.15 113.316V114.656H220.484C220.585 115.878 220.99 116.844 221.701 117.555C222.421 118.266 223.324 118.621 224.408 118.621C225.93 118.621 227.17 118.006 228.127 116.775L229.918 118.484C229.326 119.368 228.533 120.057 227.539 120.549C226.555 121.032 225.447 121.273 224.217 121.273ZM223.82 108.6C222.909 108.6 222.171 108.919 221.605 109.557C221.049 110.195 220.694 111.083 220.539 112.223H226.869V111.977C226.796 110.865 226.5 110.026 225.98 109.461C225.461 108.887 224.741 108.6 223.82 108.6ZM241.033 116.98C241.033 116.388 240.787 115.937 240.295 115.627C239.812 115.317 239.005 115.044 237.875 114.807C236.745 114.57 235.801 114.269 235.045 113.904C233.386 113.102 232.557 111.94 232.557 110.418C232.557 109.142 233.094 108.076 234.17 107.219C235.245 106.362 236.613 105.934 238.271 105.934C240.04 105.934 241.466 106.371 242.551 107.246C243.645 108.121 244.191 109.256 244.191 110.65H240.869C240.869 110.012 240.632 109.484 240.158 109.064C239.684 108.636 239.055 108.422 238.271 108.422C237.542 108.422 236.945 108.59 236.48 108.928C236.025 109.265 235.797 109.716 235.797 110.281C235.797 110.792 236.011 111.188 236.439 111.471C236.868 111.753 237.734 112.04 239.037 112.332C240.34 112.615 241.361 112.956 242.1 113.357C242.847 113.749 243.398 114.223 243.754 114.779C244.118 115.335 244.301 116.01 244.301 116.803C244.301 118.133 243.749 119.214 242.646 120.043C241.544 120.863 240.099 121.273 238.312 121.273C237.1 121.273 236.02 121.055 235.072 120.617C234.124 120.18 233.386 119.578 232.857 118.812C232.329 118.047 232.064 117.222 232.064 116.338H235.291C235.337 117.122 235.633 117.728 236.18 118.156C236.727 118.576 237.451 118.785 238.354 118.785C239.229 118.785 239.894 118.621 240.35 118.293C240.805 117.956 241.033 117.518 241.033 116.98ZM253.721 121.273C251.615 121.273 249.906 120.613 248.594 119.291C247.29 117.96 246.639 116.192 246.639 113.986V113.576C246.639 112.1 246.921 110.783 247.486 109.625C248.061 108.458 248.863 107.551 249.893 106.904C250.923 106.257 252.071 105.934 253.338 105.934C255.352 105.934 256.906 106.576 258 107.861C259.103 109.146 259.654 110.965 259.654 113.316V114.656H249.988C250.089 115.878 250.494 116.844 251.205 117.555C251.925 118.266 252.827 118.621 253.912 118.621C255.434 118.621 256.674 118.006 257.631 116.775L259.422 118.484C258.829 119.368 258.036 120.057 257.043 120.549C256.059 121.032 254.951 121.273 253.721 121.273ZM253.324 108.6C252.413 108.6 251.674 108.919 251.109 109.557C250.553 110.195 250.198 111.083 250.043 112.223H256.373V111.977C256.3 110.865 256.004 110.026 255.484 109.461C254.965 108.887 254.245 108.6 253.324 108.6ZM269.99 109.242C269.553 109.169 269.102 109.133 268.637 109.133C267.115 109.133 266.089 109.716 265.561 110.883V121H262.238V106.207H265.41L265.492 107.861C266.294 106.576 267.406 105.934 268.828 105.934C269.302 105.934 269.694 105.997 270.004 106.125L269.99 109.242ZM281.051 119.551C280.076 120.699 278.69 121.273 276.895 121.273C275.29 121.273 274.074 120.804 273.244 119.865C272.424 118.926 272.014 117.568 272.014 115.791V106.207H275.336V115.75C275.336 117.628 276.115 118.566 277.674 118.566C279.287 118.566 280.376 117.988 280.941 116.83V106.207H284.264V121H281.133L281.051 119.551ZM296.486 121C296.34 120.717 296.213 120.257 296.104 119.619C295.046 120.722 293.752 121.273 292.221 121.273C290.735 121.273 289.523 120.85 288.584 120.002C287.645 119.154 287.176 118.106 287.176 116.857C287.176 115.281 287.759 114.073 288.926 113.234C290.102 112.387 291.779 111.963 293.957 111.963H295.994V110.992C295.994 110.227 295.78 109.616 295.352 109.16C294.923 108.695 294.271 108.463 293.396 108.463C292.64 108.463 292.02 108.654 291.537 109.037C291.054 109.411 290.812 109.889 290.812 110.473H287.49C287.49 109.661 287.759 108.905 288.297 108.203C288.835 107.492 289.564 106.936 290.484 106.535C291.414 106.134 292.449 105.934 293.588 105.934C295.32 105.934 296.701 106.371 297.73 107.246C298.76 108.112 299.289 109.333 299.316 110.91V117.582C299.316 118.913 299.503 119.975 299.877 120.768V121H296.486ZM292.836 118.607C293.492 118.607 294.107 118.448 294.682 118.129C295.265 117.81 295.702 117.382 295.994 116.844V114.055H294.203C292.973 114.055 292.048 114.269 291.428 114.697C290.808 115.126 290.498 115.732 290.498 116.516C290.498 117.154 290.708 117.664 291.127 118.047C291.555 118.421 292.125 118.607 292.836 118.607ZM305.879 106.207L305.975 107.916C307.068 106.594 308.504 105.934 310.281 105.934C313.362 105.934 314.93 107.697 314.984 111.225V121H311.662V111.416C311.662 110.477 311.457 109.785 311.047 109.338C310.646 108.882 309.985 108.654 309.064 108.654C307.725 108.654 306.727 109.26 306.07 110.473V121H302.748V106.207H305.879ZM328.479 106.207L328.574 107.752C329.613 106.54 331.035 105.934 332.84 105.934C334.818 105.934 336.171 106.69 336.9 108.203C337.976 106.69 339.489 105.934 341.439 105.934C343.071 105.934 344.283 106.385 345.076 107.287C345.878 108.189 346.288 109.52 346.307 111.279V121H342.984V111.375C342.984 110.436 342.779 109.748 342.369 109.311C341.959 108.873 341.28 108.654 340.332 108.654C339.576 108.654 338.956 108.859 338.473 109.27C337.999 109.671 337.666 110.199 337.475 110.855L337.488 121H334.166V111.266C334.12 109.525 333.232 108.654 331.5 108.654C330.169 108.654 329.226 109.197 328.67 110.281V121H325.348V106.207H328.479ZM356.232 121.273C354.127 121.273 352.418 120.613 351.105 119.291C349.802 117.96 349.15 116.192 349.15 113.986V113.576C349.15 112.1 349.433 110.783 349.998 109.625C350.572 108.458 351.374 107.551 352.404 106.904C353.434 106.257 354.583 105.934 355.85 105.934C357.864 105.934 359.418 106.576 360.512 107.861C361.615 109.146 362.166 110.965 362.166 113.316V114.656H352.5C352.6 115.878 353.006 116.844 353.717 117.555C354.437 118.266 355.339 118.621 356.424 118.621C357.946 118.621 359.186 118.006 360.143 116.775L361.934 118.484C361.341 119.368 360.548 120.057 359.555 120.549C358.57 121.032 357.463 121.273 356.232 121.273ZM355.836 108.6C354.924 108.6 354.186 108.919 353.621 109.557C353.065 110.195 352.71 111.083 352.555 112.223H358.885V111.977C358.812 110.865 358.516 110.026 357.996 109.461C357.477 108.887 356.757 108.6 355.836 108.6ZM367.881 106.207L367.977 107.752C369.016 106.54 370.438 105.934 372.242 105.934C374.22 105.934 375.574 106.69 376.303 108.203C377.378 106.69 378.891 105.934 380.842 105.934C382.473 105.934 383.686 106.385 384.479 107.287C385.281 108.189 385.691 109.52 385.709 111.279V121H382.387V111.375C382.387 110.436 382.182 109.748 381.771 109.311C381.361 108.873 380.682 108.654 379.734 108.654C378.978 108.654 378.358 108.859 377.875 109.27C377.401 109.671 377.068 110.199 376.877 110.855L376.891 121H373.568V111.266C373.523 109.525 372.634 108.654 370.902 108.654C369.572 108.654 368.628 109.197 368.072 110.281V121H364.75V106.207H367.881ZM402.102 113.754C402.102 116.051 401.587 117.878 400.557 119.236C399.536 120.594 398.128 121.273 396.332 121.273C394.6 121.273 393.251 120.649 392.285 119.4L392.121 121H389.113V100H392.436V107.629C393.393 106.499 394.682 105.934 396.305 105.934C398.109 105.934 399.527 106.604 400.557 107.943C401.587 109.283 402.102 111.156 402.102 113.562V113.754ZM398.779 113.467C398.779 111.863 398.497 110.66 397.932 109.857C397.367 109.055 396.546 108.654 395.471 108.654C394.031 108.654 393.019 109.283 392.436 110.541V116.639C393.028 117.924 394.049 118.566 395.498 118.566C396.537 118.566 397.339 118.179 397.904 117.404C398.469 116.63 398.761 115.458 398.779 113.891V113.467ZM413.736 121C413.59 120.717 413.463 120.257 413.354 119.619C412.296 120.722 411.002 121.273 409.471 121.273C407.985 121.273 406.773 120.85 405.834 120.002C404.895 119.154 404.426 118.106 404.426 116.857C404.426 115.281 405.009 114.073 406.176 113.234C407.352 112.387 409.029 111.963 411.207 111.963H413.244V110.992C413.244 110.227 413.03 109.616 412.602 109.16C412.173 108.695 411.521 108.463 410.646 108.463C409.89 108.463 409.27 108.654 408.787 109.037C408.304 109.411 408.062 109.889 408.062 110.473H404.74C404.74 109.661 405.009 108.905 405.547 108.203C406.085 107.492 406.814 106.936 407.734 106.535C408.664 106.134 409.699 105.934 410.838 105.934C412.57 105.934 413.951 106.371 414.98 107.246C416.01 108.112 416.539 109.333 416.566 110.91V117.582C416.566 118.913 416.753 119.975 417.127 120.768V121H413.736ZM410.086 118.607C410.742 118.607 411.357 118.448 411.932 118.129C412.515 117.81 412.952 117.382 413.244 116.844V114.055H411.453C410.223 114.055 409.298 114.269 408.678 114.697C408.058 115.126 407.748 115.732 407.748 116.516C407.748 117.154 407.958 117.664 408.377 118.047C408.805 118.421 409.375 118.607 410.086 118.607ZM426.123 118.621C426.952 118.621 427.641 118.38 428.188 117.896C428.734 117.413 429.026 116.816 429.062 116.105H432.193C432.157 117.026 431.87 117.887 431.332 118.689C430.794 119.482 430.065 120.111 429.145 120.576C428.224 121.041 427.23 121.273 426.164 121.273C424.095 121.273 422.454 120.604 421.242 119.264C420.03 117.924 419.424 116.074 419.424 113.713V113.371C419.424 111.12 420.025 109.32 421.229 107.971C422.432 106.613 424.072 105.934 426.15 105.934C427.91 105.934 429.34 106.449 430.443 107.479C431.555 108.499 432.139 109.844 432.193 111.512H429.062C429.026 110.664 428.734 109.967 428.188 109.42C427.65 108.873 426.962 108.6 426.123 108.6C425.048 108.6 424.218 108.992 423.635 109.775C423.051 110.55 422.755 111.73 422.746 113.316V113.85C422.746 115.454 423.033 116.652 423.607 117.445C424.191 118.229 425.029 118.621 426.123 118.621ZM443.541 121C443.395 120.717 443.268 120.257 443.158 119.619C442.101 120.722 440.807 121.273 439.275 121.273C437.79 121.273 436.577 120.85 435.639 120.002C434.7 119.154 434.23 118.106 434.23 116.857C434.23 115.281 434.814 114.073 435.98 113.234C437.156 112.387 438.833 111.963 441.012 111.963H443.049V110.992C443.049 110.227 442.835 109.616 442.406 109.16C441.978 108.695 441.326 108.463 440.451 108.463C439.695 108.463 439.075 108.654 438.592 109.037C438.109 109.411 437.867 109.889 437.867 110.473H434.545C434.545 109.661 434.814 108.905 435.352 108.203C435.889 107.492 436.618 106.936 437.539 106.535C438.469 106.134 439.503 105.934 440.643 105.934C442.374 105.934 443.755 106.371 444.785 107.246C445.815 108.112 446.344 109.333 446.371 110.91V117.582C446.371 118.913 446.558 119.975 446.932 120.768V121H443.541ZM439.891 118.607C440.547 118.607 441.162 118.448 441.736 118.129C442.32 117.81 442.757 117.382 443.049 116.844V114.055H441.258C440.027 114.055 439.102 114.269 438.482 114.697C437.863 115.126 437.553 115.732 437.553 116.516C437.553 117.154 437.762 117.664 438.182 118.047C438.61 118.421 439.18 118.607 439.891 118.607ZM460.986 102.611V106.207H463.598V108.668H460.986V116.926C460.986 117.491 461.096 117.901 461.314 118.156C461.542 118.402 461.943 118.525 462.518 118.525C462.9 118.525 463.288 118.48 463.68 118.389V120.959C462.923 121.169 462.194 121.273 461.492 121.273C458.94 121.273 457.664 119.865 457.664 117.049V108.668H455.23V106.207H457.664V102.611H460.986ZM474.986 121C474.84 120.717 474.713 120.257 474.604 119.619C473.546 120.722 472.252 121.273 470.721 121.273C469.235 121.273 468.023 120.85 467.084 120.002C466.145 119.154 465.676 118.106 465.676 116.857C465.676 115.281 466.259 114.073 467.426 113.234C468.602 112.387 470.279 111.963 472.457 111.963H474.494V110.992C474.494 110.227 474.28 109.616 473.852 109.16C473.423 108.695 472.771 108.463 471.896 108.463C471.14 108.463 470.52 108.654 470.037 109.037C469.554 109.411 469.312 109.889 469.312 110.473H465.99C465.99 109.661 466.259 108.905 466.797 108.203C467.335 107.492 468.064 106.936 468.984 106.535C469.914 106.134 470.949 105.934 472.088 105.934C473.82 105.934 475.201 106.371 476.23 107.246C477.26 108.112 477.789 109.333 477.816 110.91V117.582C477.816 118.913 478.003 119.975 478.377 120.768V121H474.986ZM471.336 118.607C471.992 118.607 472.607 118.448 473.182 118.129C473.765 117.81 474.202 117.382 474.494 116.844V114.055H472.703C471.473 114.055 470.548 114.269 469.928 114.697C469.308 115.126 468.998 115.732 468.998 116.516C468.998 117.154 469.208 117.664 469.627 118.047C470.055 118.421 470.625 118.607 471.336 118.607ZM484.379 106.207L484.475 107.916C485.568 106.594 487.004 105.934 488.781 105.934C491.862 105.934 493.43 107.697 493.484 111.225V121H490.162V111.416C490.162 110.477 489.957 109.785 489.547 109.338C489.146 108.882 488.485 108.654 487.564 108.654C486.225 108.654 485.227 109.26 484.57 110.473V121H481.248V106.207H484.379ZM509.836 113.754C509.836 116.042 509.316 117.869 508.277 119.236C507.238 120.594 505.844 121.273 504.094 121.273C502.471 121.273 501.173 120.74 500.197 119.674V126.688H496.875V106.207H499.938L500.074 107.711C501.049 106.526 502.376 105.934 504.053 105.934C505.857 105.934 507.27 106.608 508.291 107.957C509.321 109.297 509.836 111.161 509.836 113.549V113.754ZM506.527 113.467C506.527 111.99 506.231 110.819 505.639 109.953C505.055 109.087 504.217 108.654 503.123 108.654C501.765 108.654 500.79 109.215 500.197 110.336V116.898C500.799 118.047 501.783 118.621 503.15 118.621C504.208 118.621 505.033 118.197 505.625 117.35C506.227 116.493 506.527 115.199 506.527 113.467ZM521.498 121C521.352 120.717 521.225 120.257 521.115 119.619C520.058 120.722 518.764 121.273 517.232 121.273C515.747 121.273 514.535 120.85 513.596 120.002C512.657 119.154 512.188 118.106 512.188 116.857C512.188 115.281 512.771 114.073 513.938 113.234C515.113 112.387 516.79 111.963 518.969 111.963H521.006V110.992C521.006 110.227 520.792 109.616 520.363 109.16C519.935 108.695 519.283 108.463 518.408 108.463C517.652 108.463 517.032 108.654 516.549 109.037C516.066 109.411 515.824 109.889 515.824 110.473H512.502C512.502 109.661 512.771 108.905 513.309 108.203C513.846 107.492 514.576 106.936 515.496 106.535C516.426 106.134 517.46 105.934 518.6 105.934C520.331 105.934 521.712 106.371 522.742 107.246C523.772 108.112 524.301 109.333 524.328 110.91V117.582C524.328 118.913 524.515 119.975 524.889 120.768V121H521.498ZM517.848 118.607C518.504 118.607 519.119 118.448 519.693 118.129C520.277 117.81 520.714 117.382 521.006 116.844V114.055H519.215C517.984 114.055 517.059 114.269 516.439 114.697C515.82 115.126 515.51 115.732 515.51 116.516C515.51 117.154 515.719 117.664 516.139 118.047C516.567 118.421 517.137 118.607 517.848 118.607ZM107.541 157C107.395 156.717 107.268 156.257 107.158 155.619C106.101 156.722 104.807 157.273 103.275 157.273C101.79 157.273 100.577 156.85 99.6387 156.002C98.6999 155.154 98.2305 154.106 98.2305 152.857C98.2305 151.281 98.8138 150.073 99.9805 149.234C101.156 148.387 102.833 147.963 105.012 147.963H107.049V146.992C107.049 146.227 106.835 145.616 106.406 145.16C105.978 144.695 105.326 144.463 104.451 144.463C103.695 144.463 103.075 144.654 102.592 145.037C102.109 145.411 101.867 145.889 101.867 146.473H98.5449C98.5449 145.661 98.8138 144.905 99.3516 144.203C99.8893 143.492 100.618 142.936 101.539 142.535C102.469 142.134 103.503 141.934 104.643 141.934C106.374 141.934 107.755 142.371 108.785 143.246C109.815 144.112 110.344 145.333 110.371 146.91V153.582C110.371 154.913 110.558 155.975 110.932 156.768V157H107.541ZM103.891 154.607C104.547 154.607 105.162 154.448 105.736 154.129C106.32 153.81 106.757 153.382 107.049 152.844V150.055H105.258C104.027 150.055 103.102 150.269 102.482 150.697C101.863 151.126 101.553 151.732 101.553 152.516C101.553 153.154 101.762 153.664 102.182 154.047C102.61 154.421 103.18 154.607 103.891 154.607ZM113.229 149.494C113.229 147.215 113.757 145.388 114.814 144.012C115.872 142.626 117.289 141.934 119.066 141.934C120.634 141.934 121.901 142.48 122.867 143.574V136H126.189V157H123.182L123.018 155.469C122.024 156.672 120.698 157.273 119.039 157.273C117.307 157.273 115.904 156.576 114.828 155.182C113.762 153.787 113.229 151.891 113.229 149.494ZM116.551 149.781C116.551 151.285 116.838 152.461 117.412 153.309C117.995 154.147 118.82 154.566 119.887 154.566C121.245 154.566 122.238 153.96 122.867 152.748V146.432C122.257 145.247 121.272 144.654 119.914 144.654C118.839 144.654 118.009 145.083 117.426 145.939C116.842 146.787 116.551 148.068 116.551 149.781ZM138.494 157C138.348 156.717 138.221 156.257 138.111 155.619C137.054 156.722 135.76 157.273 134.229 157.273C132.743 157.273 131.531 156.85 130.592 156.002C129.653 155.154 129.184 154.106 129.184 152.857C129.184 151.281 129.767 150.073 130.934 149.234C132.109 148.387 133.786 147.963 135.965 147.963H138.002V146.992C138.002 146.227 137.788 145.616 137.359 145.16C136.931 144.695 136.279 144.463 135.404 144.463C134.648 144.463 134.028 144.654 133.545 145.037C133.062 145.411 132.82 145.889 132.82 146.473H129.498C129.498 145.661 129.767 144.905 130.305 144.203C130.842 143.492 131.572 142.936 132.492 142.535C133.422 142.134 134.456 141.934 135.596 141.934C137.327 141.934 138.708 142.371 139.738 143.246C140.768 144.112 141.297 145.333 141.324 146.91V153.582C141.324 154.913 141.511 155.975 141.885 156.768V157H138.494ZM134.844 154.607C135.5 154.607 136.115 154.448 136.689 154.129C137.273 153.81 137.71 153.382 138.002 152.844V150.055H136.211C134.98 150.055 134.055 150.269 133.436 150.697C132.816 151.126 132.506 151.732 132.506 152.516C132.506 153.154 132.715 153.664 133.135 154.047C133.563 154.421 134.133 154.607 134.844 154.607ZM164.758 149.754C164.758 152.051 164.243 153.878 163.213 155.236C162.192 156.594 160.784 157.273 158.988 157.273C157.257 157.273 155.908 156.649 154.941 155.4L154.777 157H151.77V136H155.092V143.629C156.049 142.499 157.339 141.934 158.961 141.934C160.766 141.934 162.183 142.604 163.213 143.943C164.243 145.283 164.758 147.156 164.758 149.562V149.754ZM161.436 149.467C161.436 147.863 161.153 146.66 160.588 145.857C160.023 145.055 159.202 144.654 158.127 144.654C156.687 144.654 155.675 145.283 155.092 146.541V152.639C155.684 153.924 156.705 154.566 158.154 154.566C159.193 154.566 159.995 154.179 160.561 153.404C161.126 152.63 161.417 151.458 161.436 149.891V149.467ZM176.393 157C176.247 156.717 176.119 156.257 176.01 155.619C174.952 156.722 173.658 157.273 172.127 157.273C170.641 157.273 169.429 156.85 168.49 156.002C167.551 155.154 167.082 154.106 167.082 152.857C167.082 151.281 167.665 150.073 168.832 149.234C170.008 148.387 171.685 147.963 173.863 147.963H175.9V146.992C175.9 146.227 175.686 145.616 175.258 145.16C174.829 144.695 174.178 144.463 173.303 144.463C172.546 144.463 171.926 144.654 171.443 145.037C170.96 145.411 170.719 145.889 170.719 146.473H167.396C167.396 145.661 167.665 144.905 168.203 144.203C168.741 143.492 169.47 142.936 170.391 142.535C171.32 142.134 172.355 141.934 173.494 141.934C175.226 141.934 176.607 142.371 177.637 143.246C178.667 144.112 179.195 145.333 179.223 146.91V153.582C179.223 154.913 179.41 155.975 179.783 156.768V157H176.393ZM172.742 154.607C173.398 154.607 174.014 154.448 174.588 154.129C175.171 153.81 175.609 153.382 175.9 152.844V150.055H174.109C172.879 150.055 171.954 150.269 171.334 150.697C170.714 151.126 170.404 151.732 170.404 152.516C170.404 153.154 170.614 153.664 171.033 154.047C171.462 154.421 172.031 154.607 172.742 154.607ZM186.865 138.611V142.207H189.477V144.668H186.865V152.926C186.865 153.491 186.975 153.901 187.193 154.156C187.421 154.402 187.822 154.525 188.396 154.525C188.779 154.525 189.167 154.48 189.559 154.389V156.959C188.802 157.169 188.073 157.273 187.371 157.273C184.819 157.273 183.543 155.865 183.543 153.049V144.668H181.109V142.207H183.543V138.611H186.865ZM200.865 157C200.719 156.717 200.592 156.257 200.482 155.619C199.425 156.722 198.131 157.273 196.6 157.273C195.114 157.273 193.902 156.85 192.963 156.002C192.024 155.154 191.555 154.106 191.555 152.857C191.555 151.281 192.138 150.073 193.305 149.234C194.48 148.387 196.158 147.963 198.336 147.963H200.373V146.992C200.373 146.227 200.159 145.616 199.73 145.16C199.302 144.695 198.65 144.463 197.775 144.463C197.019 144.463 196.399 144.654 195.916 145.037C195.433 145.411 195.191 145.889 195.191 146.473H191.869C191.869 145.661 192.138 144.905 192.676 144.203C193.214 143.492 193.943 142.936 194.863 142.535C195.793 142.134 196.827 141.934 197.967 141.934C199.699 141.934 201.079 142.371 202.109 143.246C203.139 144.112 203.668 145.333 203.695 146.91V153.582C203.695 154.913 203.882 155.975 204.256 156.768V157H200.865ZM197.215 154.607C197.871 154.607 198.486 154.448 199.061 154.129C199.644 153.81 200.081 153.382 200.373 152.844V150.055H198.582C197.352 150.055 196.426 150.269 195.807 150.697C195.187 151.126 194.877 151.732 194.877 152.516C194.877 153.154 195.087 153.664 195.506 154.047C195.934 154.421 196.504 154.607 197.215 154.607ZM215.467 152.98C215.467 152.388 215.221 151.937 214.729 151.627C214.245 151.317 213.439 151.044 212.309 150.807C211.178 150.57 210.235 150.269 209.479 149.904C207.82 149.102 206.99 147.94 206.99 146.418C206.99 145.142 207.528 144.076 208.604 143.219C209.679 142.362 211.046 141.934 212.705 141.934C214.473 141.934 215.9 142.371 216.984 143.246C218.078 144.121 218.625 145.256 218.625 146.65H215.303C215.303 146.012 215.066 145.484 214.592 145.064C214.118 144.636 213.489 144.422 212.705 144.422C211.976 144.422 211.379 144.59 210.914 144.928C210.458 145.265 210.23 145.716 210.23 146.281C210.23 146.792 210.445 147.188 210.873 147.471C211.301 147.753 212.167 148.04 213.471 148.332C214.774 148.615 215.795 148.956 216.533 149.357C217.281 149.749 217.832 150.223 218.188 150.779C218.552 151.335 218.734 152.01 218.734 152.803C218.734 154.133 218.183 155.214 217.08 156.043C215.977 156.863 214.533 157.273 212.746 157.273C211.534 157.273 210.454 157.055 209.506 156.617C208.558 156.18 207.82 155.578 207.291 154.812C206.762 154.047 206.498 153.222 206.498 152.338H209.725C209.77 153.122 210.066 153.728 210.613 154.156C211.16 154.576 211.885 154.785 212.787 154.785C213.662 154.785 214.327 154.621 214.783 154.293C215.239 153.956 215.467 153.518 215.467 152.98ZM230.479 157C230.333 156.717 230.205 156.257 230.096 155.619C229.038 156.722 227.744 157.273 226.213 157.273C224.727 157.273 223.515 156.85 222.576 156.002C221.637 155.154 221.168 154.106 221.168 152.857C221.168 151.281 221.751 150.073 222.918 149.234C224.094 148.387 225.771 147.963 227.949 147.963H229.986V146.992C229.986 146.227 229.772 145.616 229.344 145.16C228.915 144.695 228.264 144.463 227.389 144.463C226.632 144.463 226.012 144.654 225.529 145.037C225.046 145.411 224.805 145.889 224.805 146.473H221.482C221.482 145.661 221.751 144.905 222.289 144.203C222.827 143.492 223.556 142.936 224.477 142.535C225.406 142.134 226.441 141.934 227.58 141.934C229.312 141.934 230.693 142.371 231.723 143.246C232.753 144.112 233.281 145.333 233.309 146.91V153.582C233.309 154.913 233.495 155.975 233.869 156.768V157H230.479ZM226.828 154.607C227.484 154.607 228.1 154.448 228.674 154.129C229.257 153.81 229.695 153.382 229.986 152.844V150.055H228.195C226.965 150.055 226.04 150.269 225.42 150.697C224.8 151.126 224.49 151.732 224.49 152.516C224.49 153.154 224.7 153.664 225.119 154.047C225.548 154.421 226.117 154.607 226.828 154.607ZM239.871 142.207L239.967 143.916C241.061 142.594 242.496 141.934 244.273 141.934C247.354 141.934 248.922 143.697 248.977 147.225V157H245.654V147.416C245.654 146.477 245.449 145.785 245.039 145.338C244.638 144.882 243.977 144.654 243.057 144.654C241.717 144.654 240.719 145.26 240.062 146.473V157H236.74V142.207H239.871ZM258.725 149.494C258.725 147.215 259.253 145.388 260.311 144.012C261.368 142.626 262.785 141.934 264.562 141.934C266.13 141.934 267.397 142.48 268.363 143.574V136H271.686V157H268.678L268.514 155.469C267.52 156.672 266.194 157.273 264.535 157.273C262.803 157.273 261.4 156.576 260.324 155.182C259.258 153.787 258.725 151.891 258.725 149.494ZM262.047 149.781C262.047 151.285 262.334 152.461 262.908 153.309C263.492 154.147 264.316 154.566 265.383 154.566C266.741 154.566 267.734 153.96 268.363 152.748V146.432C267.753 145.247 266.768 144.654 265.41 144.654C264.335 144.654 263.505 145.083 262.922 145.939C262.339 146.787 262.047 148.068 262.047 149.781ZM281.666 157.273C279.561 157.273 277.852 156.613 276.539 155.291C275.236 153.96 274.584 152.192 274.584 149.986V149.576C274.584 148.1 274.867 146.783 275.432 145.625C276.006 144.458 276.808 143.551 277.838 142.904C278.868 142.257 280.016 141.934 281.283 141.934C283.298 141.934 284.852 142.576 285.945 143.861C287.048 145.146 287.6 146.965 287.6 149.316V150.656H277.934C278.034 151.878 278.439 152.844 279.15 153.555C279.87 154.266 280.773 154.621 281.857 154.621C283.38 154.621 284.619 154.006 285.576 152.775L287.367 154.484C286.775 155.368 285.982 156.057 284.988 156.549C284.004 157.032 282.896 157.273 281.666 157.273ZM281.27 144.6C280.358 144.6 279.62 144.919 279.055 145.557C278.499 146.195 278.143 147.083 277.988 148.223H284.318V147.977C284.245 146.865 283.949 146.026 283.43 145.461C282.91 144.887 282.19 144.6 281.27 144.6ZM293.273 142.207L293.369 143.916C294.463 142.594 295.898 141.934 297.676 141.934C300.757 141.934 302.324 143.697 302.379 147.225V157H299.057V147.416C299.057 146.477 298.852 145.785 298.441 145.338C298.04 144.882 297.38 144.654 296.459 144.654C295.119 144.654 294.121 145.26 293.465 146.473V157H290.143V142.207H293.273ZM305.195 149.494C305.195 147.197 305.733 145.365 306.809 143.998C307.893 142.622 309.329 141.934 311.115 141.934C312.801 141.934 314.128 142.521 315.094 143.697L315.244 142.207H318.238V156.549C318.238 158.49 317.632 160.021 316.42 161.143C315.217 162.264 313.59 162.824 311.539 162.824C310.454 162.824 309.393 162.596 308.354 162.141C307.324 161.694 306.54 161.106 306.002 160.377L307.574 158.381C308.595 159.593 309.853 160.199 311.348 160.199C312.451 160.199 313.321 159.898 313.959 159.297C314.597 158.704 314.916 157.829 314.916 156.672V155.674C313.959 156.74 312.683 157.273 311.088 157.273C309.356 157.273 307.939 156.585 306.836 155.209C305.742 153.833 305.195 151.928 305.195 149.494ZM308.504 149.781C308.504 151.267 308.805 152.438 309.406 153.295C310.017 154.143 310.86 154.566 311.936 154.566C313.275 154.566 314.269 153.992 314.916 152.844V146.336C314.287 145.215 313.303 144.654 311.963 144.654C310.869 144.654 310.017 145.087 309.406 145.953C308.805 146.819 308.504 148.095 308.504 149.781ZM330.502 157C330.356 156.717 330.229 156.257 330.119 155.619C329.062 156.722 327.768 157.273 326.236 157.273C324.751 157.273 323.538 156.85 322.6 156.002C321.661 155.154 321.191 154.106 321.191 152.857C321.191 151.281 321.775 150.073 322.941 149.234C324.117 148.387 325.794 147.963 327.973 147.963H330.01V146.992C330.01 146.227 329.796 145.616 329.367 145.16C328.939 144.695 328.287 144.463 327.412 144.463C326.656 144.463 326.036 144.654 325.553 145.037C325.07 145.411 324.828 145.889 324.828 146.473H321.506C321.506 145.661 321.775 144.905 322.312 144.203C322.85 143.492 323.579 142.936 324.5 142.535C325.43 142.134 326.464 141.934 327.604 141.934C329.335 141.934 330.716 142.371 331.746 143.246C332.776 144.112 333.305 145.333 333.332 146.91V153.582C333.332 154.913 333.519 155.975 333.893 156.768V157H330.502ZM326.852 154.607C327.508 154.607 328.123 154.448 328.697 154.129C329.281 153.81 329.718 153.382 330.01 152.844V150.055H328.219C326.988 150.055 326.063 150.269 325.443 150.697C324.824 151.126 324.514 151.732 324.514 152.516C324.514 153.154 324.723 153.664 325.143 154.047C325.571 154.421 326.141 154.607 326.852 154.607ZM339.895 142.207L339.99 143.916C341.084 142.594 342.52 141.934 344.297 141.934C347.378 141.934 348.945 143.697 349 147.225V157H345.678V147.416C345.678 146.477 345.473 145.785 345.062 145.338C344.661 144.882 344.001 144.654 343.08 144.654C341.74 144.654 340.742 145.26 340.086 146.473V157H336.764V142.207H339.895ZM372.352 149.754C372.352 152.051 371.837 153.878 370.807 155.236C369.786 156.594 368.378 157.273 366.582 157.273C364.85 157.273 363.501 156.649 362.535 155.4L362.371 157H359.363V136H362.686V143.629C363.643 142.499 364.932 141.934 366.555 141.934C368.359 141.934 369.777 142.604 370.807 143.943C371.837 145.283 372.352 147.156 372.352 149.562V149.754ZM369.029 149.467C369.029 147.863 368.747 146.66 368.182 145.857C367.617 145.055 366.796 144.654 365.721 144.654C364.281 144.654 363.269 145.283 362.686 146.541V152.639C363.278 153.924 364.299 154.566 365.748 154.566C366.787 154.566 367.589 154.179 368.154 153.404C368.719 152.63 369.011 151.458 369.029 149.891V149.467ZM381.662 157.273C379.557 157.273 377.848 156.613 376.535 155.291C375.232 153.96 374.58 152.192 374.58 149.986V149.576C374.58 148.1 374.863 146.783 375.428 145.625C376.002 144.458 376.804 143.551 377.834 142.904C378.864 142.257 380.012 141.934 381.279 141.934C383.294 141.934 384.848 142.576 385.941 143.861C387.044 145.146 387.596 146.965 387.596 149.316V150.656H377.93C378.03 151.878 378.436 152.844 379.146 153.555C379.867 154.266 380.769 154.621 381.854 154.621C383.376 154.621 384.615 154.006 385.572 152.775L387.363 154.484C386.771 155.368 385.978 156.057 384.984 156.549C384 157.032 382.893 157.273 381.662 157.273ZM381.266 144.6C380.354 144.6 379.616 144.919 379.051 145.557C378.495 146.195 378.139 147.083 377.984 148.223H384.314V147.977C384.242 146.865 383.945 146.026 383.426 145.461C382.906 144.887 382.186 144.6 381.266 144.6ZM397.932 145.242C397.494 145.169 397.043 145.133 396.578 145.133C395.056 145.133 394.031 145.716 393.502 146.883V157H390.18V142.207H393.352L393.434 143.861C394.236 142.576 395.348 141.934 396.77 141.934C397.243 141.934 397.635 141.997 397.945 142.125L397.932 145.242ZM403.564 157H400.242V136H403.564V157ZM416.033 157C415.887 156.717 415.76 156.257 415.65 155.619C414.593 156.722 413.299 157.273 411.768 157.273C410.282 157.273 409.07 156.85 408.131 156.002C407.192 155.154 406.723 154.106 406.723 152.857C406.723 151.281 407.306 150.073 408.473 149.234C409.648 148.387 411.326 147.963 413.504 147.963H415.541V146.992C415.541 146.227 415.327 145.616 414.898 145.16C414.47 144.695 413.818 144.463 412.943 144.463C412.187 144.463 411.567 144.654 411.084 145.037C410.601 145.411 410.359 145.889 410.359 146.473H407.037C407.037 145.661 407.306 144.905 407.844 144.203C408.382 143.492 409.111 142.936 410.031 142.535C410.961 142.134 411.995 141.934 413.135 141.934C414.867 141.934 416.247 142.371 417.277 143.246C418.307 144.112 418.836 145.333 418.863 146.91V153.582C418.863 154.913 419.05 155.975 419.424 156.768V157H416.033ZM412.383 154.607C413.039 154.607 413.654 154.448 414.229 154.129C414.812 153.81 415.249 153.382 415.541 152.844V150.055H413.75C412.52 150.055 411.594 150.269 410.975 150.697C410.355 151.126 410.045 151.732 410.045 152.516C410.045 153.154 410.255 153.664 410.674 154.047C411.102 154.421 411.672 154.607 412.383 154.607ZM425.426 142.207L425.521 143.916C426.615 142.594 428.051 141.934 429.828 141.934C432.909 141.934 434.477 143.697 434.531 147.225V157H431.209V147.416C431.209 146.477 431.004 145.785 430.594 145.338C430.193 144.882 429.532 144.654 428.611 144.654C427.271 144.654 426.273 145.26 425.617 146.473V157H422.295V142.207H425.426ZM437.348 149.494C437.348 147.197 437.885 145.365 438.961 143.998C440.046 142.622 441.481 141.934 443.268 141.934C444.954 141.934 446.28 142.521 447.246 143.697L447.396 142.207H450.391V156.549C450.391 158.49 449.785 160.021 448.572 161.143C447.369 162.264 445.742 162.824 443.691 162.824C442.607 162.824 441.545 162.596 440.506 162.141C439.476 161.694 438.692 161.106 438.154 160.377L439.727 158.381C440.747 159.593 442.005 160.199 443.5 160.199C444.603 160.199 445.473 159.898 446.111 159.297C446.749 158.704 447.068 157.829 447.068 156.672V155.674C446.111 156.74 444.835 157.273 443.24 157.273C441.508 157.273 440.091 156.585 438.988 155.209C437.895 153.833 437.348 151.928 437.348 149.494ZM440.656 149.781C440.656 151.267 440.957 152.438 441.559 153.295C442.169 154.143 443.012 154.566 444.088 154.566C445.428 154.566 446.421 153.992 447.068 152.844V146.336C446.439 145.215 445.455 144.654 444.115 144.654C443.021 144.654 442.169 145.087 441.559 145.953C440.957 146.819 440.656 148.095 440.656 149.781ZM453.234 149.494C453.234 147.197 453.772 145.365 454.848 143.998C455.932 142.622 457.368 141.934 459.154 141.934C460.84 141.934 462.167 142.521 463.133 143.697L463.283 142.207H466.277V156.549C466.277 158.49 465.671 160.021 464.459 161.143C463.256 162.264 461.629 162.824 459.578 162.824C458.493 162.824 457.432 162.596 456.393 162.141C455.363 161.694 454.579 161.106 454.041 160.377L455.613 158.381C456.634 159.593 457.892 160.199 459.387 160.199C460.49 160.199 461.36 159.898 461.998 159.297C462.636 158.704 462.955 157.829 462.955 156.672V155.674C461.998 156.74 460.722 157.273 459.127 157.273C457.395 157.273 455.978 156.585 454.875 155.209C453.781 153.833 453.234 151.928 453.234 149.494ZM456.543 149.781C456.543 151.267 456.844 152.438 457.445 153.295C458.056 154.143 458.899 154.566 459.975 154.566C461.314 154.566 462.308 153.992 462.955 152.844V146.336C462.326 145.215 461.342 144.654 460.002 144.654C458.908 144.654 458.056 145.087 457.445 145.953C456.844 146.819 456.543 148.095 456.543 149.781ZM478.541 157C478.395 156.717 478.268 156.257 478.158 155.619C477.101 156.722 475.807 157.273 474.275 157.273C472.79 157.273 471.577 156.85 470.639 156.002C469.7 155.154 469.23 154.106 469.23 152.857C469.23 151.281 469.814 150.073 470.98 149.234C472.156 148.387 473.833 147.963 476.012 147.963H478.049V146.992C478.049 146.227 477.835 145.616 477.406 145.16C476.978 144.695 476.326 144.463 475.451 144.463C474.695 144.463 474.075 144.654 473.592 145.037C473.109 145.411 472.867 145.889 472.867 146.473H469.545C469.545 145.661 469.814 144.905 470.352 144.203C470.889 143.492 471.618 142.936 472.539 142.535C473.469 142.134 474.503 141.934 475.643 141.934C477.374 141.934 478.755 142.371 479.785 143.246C480.815 144.112 481.344 145.333 481.371 146.91V153.582C481.371 154.913 481.558 155.975 481.932 156.768V157H478.541ZM474.891 154.607C475.547 154.607 476.162 154.448 476.736 154.129C477.32 153.81 477.757 153.382 478.049 152.844V150.055H476.258C475.027 150.055 474.102 150.269 473.482 150.697C472.863 151.126 472.553 151.732 472.553 152.516C472.553 153.154 472.762 153.664 473.182 154.047C473.61 154.421 474.18 154.607 474.891 154.607ZM487.934 142.207L488.029 143.916C489.123 142.594 490.559 141.934 492.336 141.934C495.417 141.934 496.984 143.697 497.039 147.225V157H493.717V147.416C493.717 146.477 493.512 145.785 493.102 145.338C492.701 144.882 492.04 144.654 491.119 144.654C489.779 144.654 488.781 145.26 488.125 146.473V157H484.803V142.207H487.934ZM509.275 157C509.13 156.717 509.002 156.257 508.893 155.619C507.835 156.722 506.541 157.273 505.01 157.273C503.524 157.273 502.312 156.85 501.373 156.002C500.434 155.154 499.965 154.106 499.965 152.857C499.965 151.281 500.548 150.073 501.715 149.234C502.891 148.387 504.568 147.963 506.746 147.963H508.783V146.992C508.783 146.227 508.569 145.616 508.141 145.16C507.712 144.695 507.061 144.463 506.186 144.463C505.429 144.463 504.809 144.654 504.326 145.037C503.843 145.411 503.602 145.889 503.602 146.473H500.279C500.279 145.661 500.548 144.905 501.086 144.203C501.624 143.492 502.353 142.936 503.273 142.535C504.203 142.134 505.238 141.934 506.377 141.934C508.109 141.934 509.49 142.371 510.52 143.246C511.549 144.112 512.078 145.333 512.105 146.91V153.582C512.105 154.913 512.292 155.975 512.666 156.768V157H509.275ZM505.625 154.607C506.281 154.607 506.896 154.448 507.471 154.129C508.054 153.81 508.492 153.382 508.783 152.844V150.055H506.992C505.762 150.055 504.837 150.269 504.217 150.697C503.597 151.126 503.287 151.732 503.287 152.516C503.287 153.154 503.497 153.664 503.916 154.047C504.344 154.421 504.914 154.607 505.625 154.607ZM518.668 142.207L518.764 143.916C519.857 142.594 521.293 141.934 523.07 141.934C526.151 141.934 527.719 143.697 527.773 147.225V157H524.451V147.416C524.451 146.477 524.246 145.785 523.836 145.338C523.435 144.882 522.774 144.654 521.854 144.654C520.514 144.654 519.516 145.26 518.859 146.473V157H515.537V142.207H518.668ZM546.436 152.98C546.436 152.388 546.189 151.937 545.697 151.627C545.214 151.317 544.408 151.044 543.277 150.807C542.147 150.57 541.204 150.269 540.447 149.904C538.788 149.102 537.959 147.94 537.959 146.418C537.959 145.142 538.497 144.076 539.572 143.219C540.648 142.362 542.015 141.934 543.674 141.934C545.442 141.934 546.868 142.371 547.953 143.246C549.047 144.121 549.594 145.256 549.594 146.65H546.271C546.271 146.012 546.035 145.484 545.561 145.064C545.087 144.636 544.458 144.422 543.674 144.422C542.945 144.422 542.348 144.59 541.883 144.928C541.427 145.265 541.199 145.716 541.199 146.281C541.199 146.792 541.413 147.188 541.842 147.471C542.27 147.753 543.136 148.04 544.439 148.332C545.743 148.615 546.764 148.956 547.502 149.357C548.249 149.749 548.801 150.223 549.156 150.779C549.521 151.335 549.703 152.01 549.703 152.803C549.703 154.133 549.152 155.214 548.049 156.043C546.946 156.863 545.501 157.273 543.715 157.273C542.503 157.273 541.423 157.055 540.475 156.617C539.527 156.18 538.788 155.578 538.26 154.812C537.731 154.047 537.467 153.222 537.467 152.338H540.693C540.739 153.122 541.035 153.728 541.582 154.156C542.129 154.576 542.854 154.785 543.756 154.785C544.631 154.785 545.296 154.621 545.752 154.293C546.208 153.956 546.436 153.518 546.436 152.98ZM559.123 157.273C557.018 157.273 555.309 156.613 553.996 155.291C552.693 153.96 552.041 152.192 552.041 149.986V149.576C552.041 148.1 552.324 146.783 552.889 145.625C553.463 144.458 554.265 143.551 555.295 142.904C556.325 142.257 557.473 141.934 558.74 141.934C560.755 141.934 562.309 142.576 563.402 143.861C564.505 145.146 565.057 146.965 565.057 149.316V150.656H555.391C555.491 151.878 555.896 152.844 556.607 153.555C557.327 154.266 558.23 154.621 559.314 154.621C560.837 154.621 562.076 154.006 563.033 152.775L564.824 154.484C564.232 155.368 563.439 156.057 562.445 156.549C561.461 157.032 560.354 157.273 559.123 157.273ZM558.727 144.6C557.815 144.6 557.077 144.919 556.512 145.557C555.956 146.195 555.6 147.083 555.445 148.223H561.775V147.977C561.702 146.865 561.406 146.026 560.887 145.461C560.367 144.887 559.647 144.6 558.727 144.6ZM572.453 150.656L570.977 152.174V157H567.654V136H570.977V148.113L572.016 146.814L576.104 142.207H580.096L574.6 148.373L580.684 157H576.842L572.453 150.656ZM591.115 157C590.969 156.717 590.842 156.257 590.732 155.619C589.675 156.722 588.381 157.273 586.85 157.273C585.364 157.273 584.152 156.85 583.213 156.002C582.274 155.154 581.805 154.106 581.805 152.857C581.805 151.281 582.388 150.073 583.555 149.234C584.73 148.387 586.408 147.963 588.586 147.963H590.623V146.992C590.623 146.227 590.409 145.616 589.98 145.16C589.552 144.695 588.9 144.463 588.025 144.463C587.269 144.463 586.649 144.654 586.166 145.037C585.683 145.411 585.441 145.889 585.441 146.473H582.119C582.119 145.661 582.388 144.905 582.926 144.203C583.464 143.492 584.193 142.936 585.113 142.535C586.043 142.134 587.077 141.934 588.217 141.934C589.949 141.934 591.329 142.371 592.359 143.246C593.389 144.112 593.918 145.333 593.945 146.91V153.582C593.945 154.913 594.132 155.975 594.506 156.768V157H591.115ZM587.465 154.607C588.121 154.607 588.736 154.448 589.311 154.129C589.894 153.81 590.331 153.382 590.623 152.844V150.055H588.832C587.602 150.055 586.676 150.269 586.057 150.697C585.437 151.126 585.127 151.732 585.127 152.516C585.127 153.154 585.337 153.664 585.756 154.047C586.184 154.421 586.754 154.607 587.465 154.607ZM605.17 145.242C604.732 145.169 604.281 145.133 603.816 145.133C602.294 145.133 601.269 145.716 600.74 146.883V157H597.418V142.207H600.59L600.672 143.861C601.474 142.576 602.586 141.934 604.008 141.934C604.482 141.934 604.874 141.997 605.184 142.125L605.17 145.242ZM615.697 157C615.551 156.717 615.424 156.257 615.314 155.619C614.257 156.722 612.963 157.273 611.432 157.273C609.946 157.273 608.734 156.85 607.795 156.002C606.856 155.154 606.387 154.106 606.387 152.857C606.387 151.281 606.97 150.073 608.137 149.234C609.312 148.387 610.99 147.963 613.168 147.963H615.205V146.992C615.205 146.227 614.991 145.616 614.562 145.16C614.134 144.695 613.482 144.463 612.607 144.463C611.851 144.463 611.231 144.654 610.748 145.037C610.265 145.411 610.023 145.889 610.023 146.473H606.701C606.701 145.661 606.97 144.905 607.508 144.203C608.046 143.492 608.775 142.936 609.695 142.535C610.625 142.134 611.66 141.934 612.799 141.934C614.531 141.934 615.911 142.371 616.941 143.246C617.971 144.112 618.5 145.333 618.527 146.91V153.582C618.527 154.913 618.714 155.975 619.088 156.768V157H615.697ZM612.047 154.607C612.703 154.607 613.318 154.448 613.893 154.129C614.476 153.81 614.913 153.382 615.205 152.844V150.055H613.414C612.184 150.055 611.258 150.269 610.639 150.697C610.019 151.126 609.709 151.732 609.709 152.516C609.709 153.154 609.919 153.664 610.338 154.047C610.766 154.421 611.336 154.607 612.047 154.607ZM625.09 142.207L625.186 143.916C626.279 142.594 627.715 141.934 629.492 141.934C632.573 141.934 634.141 143.697 634.195 147.225V157H630.873V147.416C630.873 146.477 630.668 145.785 630.258 145.338C629.857 144.882 629.196 144.654 628.275 144.654C626.936 144.654 625.938 145.26 625.281 146.473V157H621.959V142.207H625.09ZM637.012 149.494C637.012 147.197 637.549 145.365 638.625 143.998C639.71 142.622 641.145 141.934 642.932 141.934C644.618 141.934 645.944 142.521 646.91 143.697L647.061 142.207H650.055V156.549C650.055 158.49 649.449 160.021 648.236 161.143C647.033 162.264 645.406 162.824 643.355 162.824C642.271 162.824 641.209 162.596 640.17 162.141C639.14 161.694 638.356 161.106 637.818 160.377L639.391 158.381C640.411 159.593 641.669 160.199 643.164 160.199C644.267 160.199 645.137 159.898 645.775 159.297C646.413 158.704 646.732 157.829 646.732 156.672V155.674C645.775 156.74 644.499 157.273 642.904 157.273C641.173 157.273 639.755 156.585 638.652 155.209C637.559 153.833 637.012 151.928 637.012 149.494ZM640.32 149.781C640.32 151.267 640.621 152.438 641.223 153.295C641.833 154.143 642.676 154.566 643.752 154.566C645.092 154.566 646.085 153.992 646.732 152.844V146.336C646.104 145.215 645.119 144.654 643.779 144.654C642.686 144.654 641.833 145.087 641.223 145.953C640.621 146.819 640.32 148.095 640.32 149.781ZM663.918 142.207V158.312C663.918 159.826 663.54 160.979 662.783 161.771C662.036 162.574 660.938 162.975 659.488 162.975C658.878 162.975 658.29 162.897 657.725 162.742V160.117C658.071 160.199 658.463 160.24 658.9 160.24C660.003 160.24 660.568 159.639 660.596 158.436V142.207H663.918ZM660.309 138.365C660.309 137.855 660.468 137.431 660.787 137.094C661.115 136.757 661.58 136.588 662.182 136.588C662.783 136.588 663.248 136.757 663.576 137.094C663.904 137.431 664.068 137.855 664.068 138.365C664.068 138.867 663.904 139.286 663.576 139.623C663.248 139.951 662.783 140.115 662.182 140.115C661.58 140.115 661.115 139.951 660.787 139.623C660.468 139.286 660.309 138.867 660.309 138.365ZM676.441 155.551C675.466 156.699 674.081 157.273 672.285 157.273C670.681 157.273 669.464 156.804 668.635 155.865C667.814 154.926 667.404 153.568 667.404 151.791V142.207H670.727V151.75C670.727 153.628 671.506 154.566 673.064 154.566C674.678 154.566 675.767 153.988 676.332 152.83V142.207H679.654V157H676.523L676.441 155.551ZM682.457 149.494C682.457 147.197 682.995 145.365 684.07 143.998C685.155 142.622 686.59 141.934 688.377 141.934C690.063 141.934 691.389 142.521 692.355 143.697L692.506 142.207H695.5V156.549C695.5 158.49 694.894 160.021 693.682 161.143C692.479 162.264 690.852 162.824 688.801 162.824C687.716 162.824 686.654 162.596 685.615 162.141C684.585 161.694 683.801 161.106 683.264 160.377L684.836 158.381C685.857 159.593 687.115 160.199 688.609 160.199C689.712 160.199 690.583 159.898 691.221 159.297C691.859 158.704 692.178 157.829 692.178 156.672V155.674C691.221 156.74 689.945 157.273 688.35 157.273C686.618 157.273 685.201 156.585 684.098 155.209C683.004 153.833 682.457 151.928 682.457 149.494ZM685.766 149.781C685.766 151.267 686.066 152.438 686.668 153.295C687.279 154.143 688.122 154.566 689.197 154.566C690.537 154.566 691.531 153.992 692.178 152.844V146.336C691.549 145.215 690.564 144.654 689.225 144.654C688.131 144.654 687.279 145.087 686.668 145.953C686.066 146.819 685.766 148.095 685.766 149.781ZM707.764 157C707.618 156.717 707.49 156.257 707.381 155.619C706.324 156.722 705.029 157.273 703.498 157.273C702.012 157.273 700.8 156.85 699.861 156.002C698.923 155.154 698.453 154.106 698.453 152.857C698.453 151.281 699.036 150.073 700.203 149.234C701.379 148.387 703.056 147.963 705.234 147.963H707.271V146.992C707.271 146.227 707.057 145.616 706.629 145.16C706.201 144.695 705.549 144.463 704.674 144.463C703.917 144.463 703.298 144.654 702.814 145.037C702.331 145.411 702.09 145.889 702.09 146.473H698.768C698.768 145.661 699.036 144.905 699.574 144.203C700.112 143.492 700.841 142.936 701.762 142.535C702.691 142.134 703.726 141.934 704.865 141.934C706.597 141.934 707.978 142.371 709.008 143.246C710.038 144.112 710.566 145.333 710.594 146.91V153.582C710.594 154.913 710.781 155.975 711.154 156.768V157H707.764ZM704.113 154.607C704.77 154.607 705.385 154.448 705.959 154.129C706.542 153.81 706.98 153.382 707.271 152.844V150.055H705.48C704.25 150.055 703.325 150.269 702.705 150.697C702.085 151.126 701.775 151.732 701.775 152.516C701.775 153.154 701.985 153.664 702.404 154.047C702.833 154.421 703.402 154.607 704.113 154.607Z" fill="white"/>
</g>
</g>
<defs>
<filter id="filter0_d" x="0" y="0" width="1208" height="266" filterUnits="userSpaceOnUse" color-interpolation-filters="sRGB">
<feFlood flood-opacity="0" result="BackgroundImageFix"/>
<feColorMatrix in="SourceAlpha" type="matrix" values="0 0 0 0 0 0 0 0 0 0 0 0 0 0 0 0 0 0 127 0" result="hardAlpha"/>
<feOffset dy="4"/>
<feGaussianBlur stdDeviation="2"/>
<feComposite in2="hardAlpha" operator="out"/>
<feColorMatrix type="matrix" values="0 0 0 0 0 0 0 0 0 0 0 0 0 0 0 0 0 0 0.25 0"/>
<feBlend mode="normal" in2="BackgroundImageFix" result="effect1_dropShadow"/>
<feBlend mode="normal" in="SourceGraphic" in2="effect1_dropShadow" result="shape"/>
</filter>
<linearGradient id="paint0_linear" x1="1384.24" y1="230.541" x2="244.702" y2="230.541" gradientUnits="userSpaceOnUse">
<stop stop-color="white"/>
<stop offset="0.964" stop-color="white" stop-opacity="0"/>
</linearGradient>
<linearGradient id="paint1_linear" x1="246.754" y1="192.706" x2="195.594" y2="345.776" gradientUnits="userSpaceOnUse">
<stop stop-color="white"/>
<stop offset="1" stop-color="white" stop-opacity="0.102"/>
</linearGradient>
<linearGradient id="paint2_linear" x1="1059.97" y1="210.949" x2="964.566" y2="210.949" gradientUnits="userSpaceOnUse">
<stop stop-color="white"/>
<stop offset="0.964" stop-color="white" stop-opacity="0"/>
</linearGradient>
<linearGradient id="paint3_linear" x1="-190.894" y1="6.91173" x2="805.409" y2="6.91173" gradientUnits="userSpaceOnUse">
<stop stop-color="white"/>
<stop offset="0.964" stop-color="white" stop-opacity="0"/>
</linearGradient>
<linearGradient id="paint4_linear" x1="1378.6" y1="-40.0092" x2="1348.19" y2="131.346" gradientUnits="userSpaceOnUse">
<stop stop-color="white" stop-opacity="0"/>
<stop offset="1" stop-color="white"/>
</linearGradient>
<linearGradient id="paint5_linear" x1="175.695" y1="67.2774" x2="271.099" y2="67.2774" gradientUnits="userSpaceOnUse">
<stop stop-color="white"/>
<stop offset="0.964" stop-color="white" stop-opacity="0"/>
</linearGradient>
<linearGradient id="paint6_linear" x1="532.605" y1="160.003" x2="472.076" y2="-119.201" gradientUnits="userSpaceOnUse">
<stop stop-color="white"/>
<stop offset="0.964" stop-color="white" stop-opacity="0"/>
</linearGradient>
<linearGradient id="paint7_linear" x1="862.536" y1="164.499" x2="899.447" y2="242.862" gradientUnits="userSpaceOnUse">
<stop stop-color="white"/>
<stop offset="0.387" stop-color="white"/>
</linearGradient>
<clipPath id="clip0">
<rect x="4" width="1200" height="258" rx="10" fill="white"/>
</clipPath>
</defs>
</svg>
