<svg width="32" height="29" viewBox="0 0 32 29" fill="none" xmlns="http://www.w3.org/2000/svg">
<path d="M15.7503 29H9.14061C6.9047 28.9976 4.76109 28.154 3.18007 26.6542C1.59905 25.1544 0.709726 23.121 0.707214 21L0.707214 8C0.709726 5.879 1.59905 3.84555 3.18007 2.34578C4.76109 0.846002 6.9047 0.00238211 9.14061 0L22.8449 0C25.0808 0.00238211 27.2244 0.846002 28.8054 2.34578C30.3864 3.84555 31.2757 5.879 31.2783 8V21C31.2757 23.121 30.3864 25.1544 28.8054 26.6542C27.2244 28.154 25.0808 28.9976 22.8449 29H16.232C16.9515 28.9888 17.6694 28.9307 18.3804 28.826V18.693H21.9425L22.6203 14.501H18.3804V11.781C18.3498 11.4677 18.3941 11.1519 18.5101 10.8572C18.626 10.5624 18.8106 10.2962 19.05 10.0785C19.2894 9.8608 19.5776 9.69715 19.8929 9.59976C20.2083 9.50236 20.5428 9.47373 20.8715 9.516H22.7995V5.947C21.6675 5.77515 20.524 5.68058 19.3777 5.664C15.7629 5.664 13.604 7.773 13.604 11.306V14.5H9.72251V18.692H13.605V28.824C14.3149 28.9301 15.0317 28.989 15.7503 29Z" fill="white"/>
</svg>
