<svg width="31" height="24" viewBox="0 0 31 24" fill="none" xmlns="http://www.w3.org/2000/svg">
<path d="M9.92675 23.6012C21.4731 23.6012 27.7918 14.5182 27.7918 6.6542C27.7918 6.3982 27.7918 6.1432 27.7791 5.8872C29.0094 5.04204 30.071 3.99569 30.9142 2.7972C29.7656 3.27831 28.5482 3.59541 27.3016 3.7382C28.6149 2.99244 29.5982 1.81983 30.0688 0.438199C28.8354 1.13195 27.4853 1.61906 26.0777 1.8782C25.2159 1.00809 24.0983 0.403688 22.87 0.143357C21.6416 -0.116974 20.3592 -0.0212209 19.1889 0.418199C18.0186 0.857619 17.0145 1.62043 16.3068 2.60773C15.5991 3.59503 15.2203 4.76126 15.2198 5.9552C15.2231 6.4122 15.2764 6.86765 15.3789 7.3142C12.8821 7.19509 10.4396 6.57924 8.21001 5.50664C5.98037 4.43403 4.01344 2.92865 2.43687 1.0882C1.63727 2.40147 1.39355 3.95389 1.75504 5.4312C2.11653 6.9085 3.05623 8.20034 4.38392 9.0452C3.38861 9.01228 2.4154 8.75776 1.54292 8.3022V8.3832C1.54393 9.75784 2.04516 11.09 2.96191 12.1546C3.87866 13.2192 5.15473 13.9509 6.57449 14.2262C5.65185 14.4622 4.68476 14.4964 3.74615 14.3262C4.14642 15.5098 4.92711 16.5449 5.97877 17.2865C7.03044 18.028 8.30034 18.4388 9.6105 18.4612C7.38659 20.1199 4.63865 21.02 1.80963 21.0162C1.31027 21.0215 0.811045 20.9975 0.314819 20.9442C3.18625 22.681 6.52127 23.6029 9.92675 23.6012Z" fill="white"/>
</svg>
