<svg width="40" height="40" viewBox="0 0 40 40" fill="none" xmlns="http://www.w3.org/2000/svg">
<mask id="mask0" mask-type="alpha" maskUnits="userSpaceOnUse" x="10" y="12" width="20" height="16">
<path d="M18 24.5V15.5L24 20L18 24.5ZM28 12.4C27.4 12.2 23.7 12 20 12C16.3 12 12.6 12.19 12 12.38C10.44 12.9 10 16.4 10 20C10 23.59 10.44 27.1 12 27.61C12.6 27.81 16.3 28 20 28C23.7 28 27.4 27.81 28 27.61C29.56 27.1 30 23.59 30 20C30 16.4 29.56 12.91 28 12.4Z" fill="#9E9E9E"/>
</mask>
<g mask="url(#mask0)">
<rect width="40" height="40" fill="#006BC1"/>
</g>
</svg>
